<?xml version="1.0" encoding="UTF-8" standalone="no"?>
<!DOCTYPE svg PUBLIC "-//W3C//DTD SVG 1.1//EN" "http://www.w3.org/Graphics/SVG/1.1/DTD/svg11.dtd">
<svg version="1.1" xmlns="http://www.w3.org/2000/svg" xmlns:xlink="http://www.w3.org/1999/xlink" preserveAspectRatio="xMidYMid meet" viewBox="0 0 640 640" width="640" height="640"><defs><path d="M577.91 310.6C577.91 448.58 465.88 560.6 327.91 560.6C189.93 560.6 77.91 448.58 77.91 310.6C77.91 172.62 189.93 60.6 327.91 60.6C465.88 60.6 577.91 172.62 577.91 310.6Z" id="a7LqEK6La"></path><path d="M374.98 216.07L375.84 216.48L376.61 217.04L377.27 217.72L377.82 218.5L378.22 219.38L378.48 220.33L378.57 221.34L378.48 222.35L378.22 223.3L377.82 224.18L377.27 224.96L376.61 225.64L375.84 226.19L374.98 226.61L374.04 226.87L373.05 226.96L367.53 226.96L366.54 226.87L365.6 226.61L364.74 226.19L363.97 225.64L363.31 224.96L362.76 224.18L362.35 223.3L362.1 222.35L362.01 221.34L362.1 220.33L362.35 219.38L362.76 218.5L363.31 217.72L363.97 217.04L364.74 216.48L365.6 216.07L366.54 215.81L367.53 215.72L373.05 215.72L374.04 215.81L374.98 216.07Z" id="ewT6nBT9c"></path><path d="M346.3 215.78L346.71 215.86L347.11 215.98L347.5 216.12L347.87 216.29L348.23 216.48L348.57 216.7L348.9 216.95L349.2 217.22L349.49 217.51L349.75 217.82L349.99 218.15L350.21 218.5L350.4 218.87L350.57 219.25L350.71 219.64L350.82 220.05L350.9 220.47L350.95 220.9L350.96 221.34L350.95 221.78L350.9 222.21L350.82 222.63L350.71 223.03L350.57 223.43L350.4 223.81L350.21 224.18L349.99 224.52L349.75 224.85L349.49 225.17L349.2 225.46L348.9 225.73L348.57 225.97L348.23 226.19L347.87 226.39L347.5 226.56L347.11 226.7L346.71 226.81L346.3 226.89L345.87 226.94L345.44 226.96L308.84 226.96L308.41 226.94L307.98 226.89L307.57 226.81L307.17 226.7L306.78 226.56L306.41 226.39L306.05 226.19L305.71 225.97L305.38 225.73L305.08 225.46L304.79 225.17L304.53 224.85L304.29 224.52L304.07 224.18L303.88 223.81L303.71 223.43L303.57 223.03L303.46 222.63L303.38 222.21L303.33 221.78L303.32 221.34L303.33 220.9L303.38 220.47L303.46 220.05L303.57 219.64L303.71 219.25L303.88 218.87L304.07 218.5L304.29 218.15L304.53 217.82L304.79 217.51L305.08 217.22L305.38 216.95L305.71 216.7L306.05 216.48L306.41 216.29L306.78 216.12L307.17 215.98L307.57 215.86L307.98 215.78L308.41 215.73L308.84 215.72L345.44 215.72L345.87 215.73L346.3 215.78Z" id="lfv5j2hdm"></path><path d="M357.03 243.85L357.3 243.89L357.57 243.93L357.83 243.99L358.08 244.06L358.33 244.15L358.57 244.24L358.81 244.35L359.05 244.47L359.27 244.59L359.49 244.73L359.7 244.88L359.91 245.04L360.11 245.21L360.3 245.38L360.48 245.57L360.65 245.76L360.82 245.96L360.97 246.17L361.12 246.39L361.25 246.61L361.38 246.84L361.49 247.08L361.6 247.32L361.69 247.57L361.77 247.82L361.84 248.08L361.9 248.35L361.95 248.62L361.98 248.89L362 249.17L362.01 249.45L362 249.73L361.98 250.01L361.95 250.28L361.9 250.55L361.84 250.81L361.77 251.07L361.69 251.33L361.6 251.58L361.49 251.82L361.38 252.06L361.25 252.29L361.12 252.51L360.97 252.73L360.82 252.94L360.65 253.14L360.48 253.33L360.3 253.52L360.11 253.69L359.91 253.86L359.7 254.02L359.49 254.17L359.27 254.3L359.05 254.43L358.81 254.55L358.57 254.65L358.33 254.75L358.08 254.83L357.83 254.9L357.57 254.96L357.3 255.01L357.03 255.04L356.76 255.06L356.49 255.07L290.73 255.07L290.45 255.06L290.18 255.04L289.91 255.01L289.65 254.96L289.39 254.9L289.13 254.83L288.88 254.75L288.64 254.65L288.4 254.55L288.17 254.43L287.94 254.3L287.72 254.17L287.51 254.02L287.3 253.86L287.11 253.69L286.92 253.52L286.74 253.33L286.56 253.14L286.4 252.94L286.24 252.73L286.1 252.51L285.96 252.29L285.84 252.06L285.72 251.82L285.62 251.58L285.52 251.33L285.44 251.07L285.37 250.81L285.31 250.55L285.27 250.28L285.23 250.01L285.21 249.73L285.21 249.45L285.21 249.17L285.23 248.89L285.27 248.62L285.31 248.35L285.37 248.08L285.44 247.82L285.52 247.57L285.62 247.32L285.72 247.08L285.84 246.84L285.96 246.61L286.1 246.39L286.24 246.17L286.4 245.96L286.56 245.76L286.74 245.57L286.92 245.38L287.11 245.21L287.3 245.04L287.51 244.88L287.72 244.73L287.94 244.59L288.17 244.47L288.4 244.35L288.64 244.24L288.88 244.15L289.13 244.06L289.39 243.99L289.65 243.93L289.91 243.89L290.18 243.85L290.45 243.83L290.73 243.83L356.49 243.83L356.76 243.83L357.03 243.85Z" id="f10lCPsvnx"></path><path d="M279.19 163.8L261.06 163.8L261.06 155.34L198.9 155.34L198.9 163.8L180.77 163.8L180.77 155.34L160.05 155.34L160.05 178.6L299.91 178.6L299.91 155.34L279.19 155.34L279.19 163.8Z" id="d3q18cyFNM"></path><path d="M160.05 178.6L160.05 269.54L299.91 269.54L299.91 178.6L279.19 178.6L261.06 178.6L198.9 178.6L180.77 178.6L160.05 178.6Z" id="dceqONpoQ"></path><path d="M180.77 254.74L180.77 193.41L279.19 193.41L279.19 254.74L180.77 254.74ZM185.95 250.51L204.08 250.51L204.08 235.7L185.95 235.7L185.95 250.51ZM209.26 250.51L227.39 250.51L227.39 235.7L209.26 235.7L209.26 250.51ZM232.57 250.51L250.7 250.51L250.7 235.7L232.57 235.7L232.57 250.51ZM255.88 250.51L274.01 250.51L274.01 235.7L255.88 235.7L255.88 250.51ZM185.95 231.47L204.08 231.47L204.08 216.67L185.95 216.67L185.95 231.47ZM232.57 231.47L250.7 231.47L250.7 216.67L232.57 216.67L232.57 231.47ZM209.26 231.47L227.39 231.47L227.39 216.67L209.26 216.67L209.26 231.47ZM255.88 231.47L274.01 231.47L274.01 216.67L255.88 216.67L255.88 231.47ZM255.88 212.44L274.01 212.44L274.01 197.64L255.88 197.64L255.88 212.44ZM209.26 212.44L227.39 212.44L227.39 197.64L209.26 197.64L209.26 212.44ZM232.57 212.44L250.7 212.44L250.7 197.64L232.57 197.64L232.57 212.44ZM185.95 212.44L204.08 212.44L204.08 197.64L185.95 197.64L185.95 212.44Z" id="a1kR1yOGvu"></path><path d="M198.9 146.88C198.9 146.88 198.9 146.88 198.9 146.88C198.9 157.03 198.9 162.67 198.9 163.8C198.9 163.8 198.9 163.8 198.9 163.8C188.02 163.8 181.98 163.8 180.77 163.8C180.77 163.8 180.77 163.8 180.77 163.8C180.77 153.65 180.77 148.01 180.77 146.88C180.77 146.88 180.77 146.88 180.77 146.88C191.65 146.88 197.69 146.88 198.9 146.88Z" id="d2iCEa3MEv"></path><path d="M279.19 146.88C279.19 146.88 279.19 146.88 279.19 146.88C279.19 157.03 279.19 162.67 279.19 163.8C279.19 163.8 279.19 163.8 279.19 163.8C268.31 163.8 262.27 163.8 261.06 163.8C261.06 163.8 261.06 163.8 261.06 163.8C261.06 153.65 261.06 148.01 261.06 146.88C261.06 146.88 261.06 146.88 261.06 146.88C271.94 146.88 277.98 146.88 279.19 146.88Z" id="a18ZzhxD6o"></path><path d="M250.7 216.67C250.7 216.67 250.7 216.67 250.7 216.67C250.7 225.55 250.7 230.49 250.7 231.47C250.7 231.47 250.7 231.47 250.7 231.47C239.82 231.47 233.78 231.47 232.57 231.47C232.57 231.47 232.57 231.47 232.57 231.47C232.57 222.59 232.57 217.66 232.57 216.67C232.57 216.67 232.57 216.67 232.57 216.67C243.45 216.67 249.49 216.67 250.7 216.67Z" id="d33VAUFUhi"></path><path d="M471.91 437.46C381.19 437.46 330.79 437.46 320.71 437.46C312.36 437.46 305.59 431.94 305.59 425.13C305.59 409.73 305.59 286.48 305.59 271.08C305.59 264.27 312.36 258.75 320.71 258.75C334.32 258.75 443.18 258.75 456.79 258.75C465.14 258.75 471.91 264.27 471.91 271.08C471.91 293.26 471.91 348.72 471.91 437.46Z" id="aBdYJ5Z5z"></path><path d="M471.91 437.46L332.05 437.46L471.91 323.45L471.91 323.45L471.91 437.46Z" id="jpCnutmJ"></path><path d="M524.83 431.29C524.82 434.69 521.44 437.45 517.27 437.46C508.2 437.46 435.62 437.46 426.55 437.46C422.38 437.45 419 434.69 418.99 431.29C418.99 423.18 418.99 358.28 418.99 350.17C418.98 348.83 419.51 347.53 420.5 346.47C421.16 345.76 424.43 342.19 430.33 335.78L430.33 326.54L513.49 326.54L513.49 335.78C519.39 342.19 522.66 345.76 523.32 346.47C524.31 347.53 524.84 348.83 524.83 350.17C524.83 366.39 524.83 423.18 524.83 431.29Z" id="b5z4V4oE78"></path><path d="M347.17 277.24C347.17 277.24 347.17 277.24 347.17 277.24C347.17 288.33 347.17 294.49 347.17 295.72C347.17 295.72 347.17 295.72 347.17 295.72C338.1 295.72 333.06 295.72 332.05 295.72C332.05 295.72 332.05 295.72 332.05 295.72C332.05 284.63 332.05 278.47 332.05 277.24C332.05 277.24 332.05 277.24 332.05 277.24C341.12 277.24 346.16 277.24 347.17 277.24Z" id="d4C0YIlIhS"></path><path d="M350.95 314.21C350.95 314.21 350.95 314.21 350.95 314.21C350.95 360.43 350.95 386.1 350.95 391.24C350.95 391.24 350.95 391.24 350.95 391.24C337.34 391.24 329.78 391.24 328.27 391.24C328.27 391.24 328.27 391.24 328.27 391.24C328.27 345.02 328.27 319.35 328.27 314.21C328.27 314.21 328.27 314.21 328.27 314.21C341.88 314.21 349.44 314.21 350.95 314.21Z" id="a9vRNr5Tx"></path><path d="M502.15 354.27C507.19 354.27 509.71 356.32 509.71 360.43C509.71 393.7 509.71 412.19 509.71 415.89C509.71 420 507.19 422.05 502.15 422.05C465.86 422.05 445.7 422.05 441.67 422.05C436.63 422.05 434.11 420 434.11 415.89C434.11 382.61 434.11 364.13 434.11 360.43C434.11 356.32 436.63 354.27 441.67 354.27C477.96 354.27 498.12 354.27 502.15 354.27Z" id="c8peYLjLnj"></path><path d="M494.59 394.32L479.47 394.32L479.47 406.65L464.35 406.65L464.35 394.32L449.23 394.32L449.23 382L464.35 382L464.35 369.67L479.47 369.67L479.47 382L494.59 382L494.59 382L494.59 394.32Z" id="lRY7nFOaD"></path><path d="M517.27 308.05C519.36 308.05 521.05 309.43 521.05 311.13C521.05 312.36 521.05 322.22 521.05 323.45C521.05 325.16 519.36 326.54 517.27 326.54C508.2 326.54 435.62 326.54 426.55 326.54C424.46 326.54 422.77 325.16 422.77 323.45C422.77 322.22 422.77 312.36 422.77 311.13C422.77 309.43 424.46 308.05 426.55 308.05C431.59 308.05 456.79 308.05 502.15 308.05C511.22 308.05 516.26 308.05 517.27 308.05Z" id="c7p8GElmUH"></path><path d="M456.79 289.56L445.45 280.32L434.11 289.56L434.11 258.75L456.79 258.75L456.79 258.75L456.79 289.56Z" id="beEtKdiS"></path><path d="M343.39 403.56C343.39 403.56 343.39 403.56 343.39 403.56C343.39 412.81 343.39 417.94 343.39 418.97C343.39 418.97 343.39 418.97 343.39 418.97C338.85 418.97 336.33 418.97 335.83 418.97C335.83 418.97 335.83 418.97 335.83 418.97C335.83 409.73 335.83 404.59 335.83 403.56C335.83 403.56 335.83 403.56 335.83 403.56C340.36 403.56 342.88 403.56 343.39 403.56Z" id="b2MXnJPVqc"></path><path d="M366.07 345.02L358.51 345.02L358.51 311.13L347.17 311.13L347.17 304.97C356.24 304.97 361.28 304.97 362.29 304.97C364.38 304.97 366.07 306.35 366.07 308.05C366.07 312.98 366.07 325.3 366.07 345.02Z" id="bLHXEgYbo"></path><path d="M445.45 308.05C445.45 308.05 445.45 308.05 445.45 308.05C445.45 313.59 445.45 316.68 445.45 317.29C445.45 317.29 445.45 317.29 445.45 317.29C440.91 317.29 438.39 317.29 437.89 317.29C437.89 317.29 437.89 317.29 437.89 317.29C437.89 311.75 437.89 308.67 437.89 308.05C437.89 308.05 437.89 308.05 437.89 308.05C442.43 308.05 444.95 308.05 445.45 308.05Z" id="dfmc5Ld03"></path><path d="M460.57 308.05C460.57 308.05 460.57 308.05 460.57 308.05C460.57 313.59 460.57 316.68 460.57 317.29C460.57 317.29 460.57 317.29 460.57 317.29C456.03 317.29 453.51 317.29 453.01 317.29C453.01 317.29 453.01 317.29 453.01 317.29C453.01 311.75 453.01 308.67 453.01 308.05C453.01 308.05 453.01 308.05 453.01 308.05C457.55 308.05 460.07 308.05 460.57 308.05Z" id="b2Ek7cJ0Ta"></path><path d="M475.69 308.05C475.69 308.05 475.69 308.05 475.69 308.05C475.69 313.59 475.69 316.68 475.69 317.29C475.69 317.29 475.69 317.29 475.69 317.29C471.15 317.29 468.63 317.29 468.13 317.29C468.13 317.29 468.13 317.29 468.13 317.29C468.13 311.75 468.13 308.67 468.13 308.05C468.13 308.05 468.13 308.05 468.13 308.05C472.67 308.05 475.19 308.05 475.69 308.05Z" id="aruN1a6yj"></path><path d="M490.81 308.05C490.81 308.05 490.81 308.05 490.81 308.05C490.81 313.59 490.81 316.68 490.81 317.29C490.81 317.29 490.81 317.29 490.81 317.29C486.27 317.29 483.75 317.29 483.25 317.29C483.25 317.29 483.25 317.29 483.25 317.29C483.25 311.75 483.25 308.67 483.25 308.05C483.25 308.05 483.25 308.05 483.25 308.05C487.79 308.05 490.31 308.05 490.81 308.05Z" id="ayyIqOWHb"></path><path d="M505.93 308.05C505.93 308.05 505.93 308.05 505.93 308.05C505.93 313.59 505.93 316.68 505.93 317.29C505.93 317.29 505.93 317.29 505.93 317.29C501.39 317.29 498.87 317.29 498.37 317.29C498.37 317.29 498.37 317.29 498.37 317.29C498.37 311.75 498.37 308.67 498.37 308.05C498.37 308.05 498.37 308.05 498.37 308.05C502.91 308.05 505.43 308.05 505.93 308.05Z" id="c2UAJku7Q"></path><path d="M400.09 360.43C400.09 360.43 400.09 360.43 400.09 360.43C400.09 364.13 400.09 366.18 400.09 366.59C400.09 366.59 400.09 366.59 400.09 366.59C381.94 366.59 371.86 366.59 369.85 366.59C369.85 366.59 369.85 366.59 369.85 366.59C369.85 362.89 369.85 360.84 369.85 360.43C369.85 360.43 369.85 360.43 369.85 360.43C387.99 360.43 398.07 360.43 400.09 360.43Z" id="a1QKNNJGxi"></path><path d="M400.09 372.75C400.09 372.75 400.09 372.75 400.09 372.75C400.09 376.45 400.09 378.5 400.09 378.91C400.09 378.91 400.09 378.91 400.09 378.91C381.94 378.91 371.86 378.91 369.85 378.91C369.85 378.91 369.85 378.91 369.85 378.91C369.85 375.22 369.85 373.16 369.85 372.75C369.85 372.75 369.85 372.75 369.85 372.75C387.99 372.75 398.07 372.75 400.09 372.75Z" id="b3aM9AH5Pn"></path><path d="M400.09 385.08C400.09 385.08 400.09 385.08 400.09 385.08C400.09 388.77 400.09 390.83 400.09 391.24C400.09 391.24 400.09 391.24 400.09 391.24C381.94 391.24 371.86 391.24 369.85 391.24C369.85 391.24 369.85 391.24 369.85 391.24C369.85 387.54 369.85 385.49 369.85 385.08C369.85 385.08 369.85 385.08 369.85 385.08C387.99 385.08 398.07 385.08 400.09 385.08Z" id="b5Z0QyPZUy"></path><path d="M400.09 397.4C400.09 397.4 400.09 397.4 400.09 397.4C400.09 401.1 400.09 403.15 400.09 403.56C400.09 403.56 400.09 403.56 400.09 403.56C381.94 403.56 371.86 403.56 369.85 403.56C369.85 403.56 369.85 403.56 369.85 403.56C369.85 399.87 369.85 397.81 369.85 397.4C369.85 397.4 369.85 397.4 369.85 397.4C387.99 397.4 398.07 397.4 400.09 397.4Z" id="b1C9SjtuCT"></path><path d="M377.41 274.16C377.41 274.16 377.41 274.16 377.41 274.16C377.41 277.85 377.41 279.91 377.41 280.32C377.41 280.32 377.41 280.32 377.41 280.32C372.87 280.32 370.35 280.32 369.85 280.32C369.85 280.32 369.85 280.32 369.85 280.32C369.85 276.62 369.85 274.57 369.85 274.16C369.85 274.16 369.85 274.16 369.85 274.16C374.38 274.16 376.9 274.16 377.41 274.16Z" id="a1RGS5gH4M"></path><path d="M415.21 274.16C415.21 274.16 415.21 274.16 415.21 274.16C415.21 277.85 415.21 279.91 415.21 280.32C415.21 280.32 415.21 280.32 415.21 280.32C397.06 280.32 386.98 280.32 384.97 280.32C384.97 280.32 384.97 280.32 384.97 280.32C384.97 276.62 384.97 274.57 384.97 274.16C384.97 274.16 384.97 274.16 384.97 274.16C403.11 274.16 413.19 274.16 415.21 274.16Z" id="dOHacDZjQ"></path><path d="M415.21 286.48C415.21 286.48 415.21 286.48 415.21 286.48C415.21 290.18 415.21 292.23 415.21 292.64C415.21 292.64 415.21 292.64 415.21 292.64C387.99 292.64 372.87 292.64 369.85 292.64C369.85 292.64 369.85 292.64 369.85 292.64C369.85 288.95 369.85 286.89 369.85 286.48C369.85 286.48 369.85 286.48 369.85 286.48C397.06 286.48 412.19 286.48 415.21 286.48Z" id="c6lEGX57ge"></path><path d="M350.95 394.32L343.39 406.65L339.61 406.65L335.83 406.65L328.27 394.32L328.27 391.24L350.95 391.24L350.95 391.24L350.95 394.32Z" id="b2kuP3WBPS"></path><path d="M350.95 314.21L328.27 314.21L328.27 295.72L332.05 295.72L347.17 295.72L350.95 295.72L350.95 308.05L350.95 308.05L350.95 314.21Z" id="cV9lZmm6M"></path><path d="M349.41 100.46C317.93 100.46 292.41 126.61 292.41 158.88C292.41 191.15 317.93 217.31 349.41 217.31C380.89 217.31 406.42 191.15 406.42 158.88C406.42 126.61 380.89 100.46 349.41 100.46Z" id="a2nmceoXAn"></path><path d="M290.44 160.9C290.44 144.79 296.55 129.64 307.64 118.23C309.17 116.65 311.66 116.65 313.2 118.22C314.74 119.79 314.74 122.34 313.21 123.92C303.6 133.81 298.3 146.94 298.3 160.9C298.3 189.78 321.23 213.28 349.41 213.28C377.59 213.28 400.52 189.78 400.52 160.9C400.52 133.37 379.69 110.73 353.34 108.67C353.34 110.83 353.34 128.17 353.34 130.34C353.34 132.56 351.58 134.37 349.41 134.37C347.24 134.37 345.48 132.56 345.48 130.34C345.48 127.75 345.48 107.07 345.48 104.48C345.48 102.26 347.24 100.46 349.41 100.46C381.93 100.46 408.38 127.57 408.38 160.9C408.38 194.22 381.93 221.34 349.41 221.34C316.9 221.34 290.44 194.22 290.44 160.9Z" id="mZRi8G9z"></path><path d="M329.75 140.99C345.02 152.31 353.5 158.6 355.2 159.86C357.7 161.72 357.99 165.44 355.8 167.69C355.8 167.69 355.8 167.69 355.8 167.69C353.61 169.93 349.98 169.64 348.16 167.07C346.93 165.33 340.8 156.64 329.75 140.99L329.75 140.99Z" id="c4sjYKEn4T"></path><path d="M346.82 344.2C342.2 344.2 338.46 340.6 338.46 336.16C338.46 332.61 338.46 304.23 338.46 300.68C338.46 296.24 342.2 292.64 346.82 292.64C349.32 292.64 369.39 292.64 371.9 292.64C376.51 292.64 380.26 296.24 380.26 300.68C380.26 304.23 380.26 332.62 380.26 336.16C380.26 340.6 376.51 344.2 371.9 344.2C366.88 344.2 349.32 344.2 346.82 344.2Z" id="b1iVa3Mko"></path><path d="M193.05 494.14C188.43 494.14 184.69 490.54 184.69 486.1C184.69 467.56 184.69 319.22 184.69 300.68C184.69 296.24 188.43 292.64 193.05 292.64C208.42 292.64 331.44 292.64 346.82 292.64C351.43 292.64 355.17 296.24 355.17 300.68C355.17 319.22 355.17 467.56 355.17 486.1C355.17 490.54 351.43 494.14 346.82 494.14C316.06 494.14 208.42 494.14 193.05 494.14Z" id="a1yI7u26S"></path><path d="M269.93 292.64L269.93 494.14C316.06 494.14 341.69 494.14 346.82 494.14C351.43 494.14 355.17 490.54 355.17 486.1C355.17 467.56 355.17 319.22 355.17 300.68C355.17 296.24 351.43 292.64 346.82 292.64C336.56 292.64 310.94 292.64 269.93 292.64Z" id="fBxpfbWIl"></path><path d="M278.29 345.36C278.29 338.14 278.29 334.12 278.29 333.32C278.29 328.88 274.55 325.28 269.93 325.28C265.31 325.28 261.57 328.88 261.57 333.32C261.57 334.12 261.57 338.14 261.57 345.36C254.06 345.36 249.88 345.36 249.05 345.36C244.43 345.36 240.69 348.96 240.69 353.4C240.69 357.84 244.43 361.44 249.05 361.44C249.88 361.44 254.06 361.44 261.57 361.44C261.57 368.67 261.57 372.68 261.57 373.49C261.57 377.93 265.31 381.53 269.93 381.53C274.55 381.53 278.29 377.93 278.29 373.49C278.29 372.68 278.29 368.67 278.29 361.44C285.8 361.44 289.98 361.44 290.81 361.44C295.43 361.44 299.17 357.84 299.17 353.4C299.17 348.96 295.43 345.36 290.81 345.36C289.14 345.36 284.97 345.36 278.29 345.36Z" id="a2l10ZNZEV"></path><path d="M223.39 414.59C218.77 414.59 215.03 410.99 215.03 406.55C215.03 402.11 218.77 398.51 223.39 398.51C232.69 398.51 307.17 398.51 316.48 398.51C321.09 398.51 324.83 402.11 324.83 406.55C324.83 410.99 321.09 414.59 316.48 414.59C297.86 414.59 232.69 414.59 223.39 414.59Z" id="b1FEgryV2J"></path><path d="M223.39 439.26C218.77 439.26 215.03 435.66 215.03 431.22C215.03 426.78 218.77 423.18 223.39 423.18C232.69 423.18 307.17 423.18 316.48 423.18C321.09 423.18 324.83 426.78 324.83 431.22C324.83 435.66 321.09 439.26 316.48 439.26C297.86 439.26 232.69 439.26 223.39 439.26Z" id="h1SOsxjFdM"></path><path d="M223.39 463.93C218.77 463.93 215.03 460.33 215.03 455.89C215.03 451.45 218.77 447.85 223.39 447.85C232.69 447.85 307.17 447.85 316.48 447.85C321.09 447.85 324.83 451.45 324.83 455.89C324.83 460.33 321.09 463.93 316.48 463.93C297.86 463.93 232.69 463.93 223.39 463.93Z" id="aq5pP65Rq"></path><path d="M278.29 345.36C278.29 338.14 278.29 334.12 278.29 333.32C278.29 328.88 274.55 325.28 269.93 325.28C269.93 330.91 269.93 375.9 269.93 381.52C274.55 381.52 278.29 377.92 278.29 373.49C278.29 372.68 278.29 368.67 278.29 361.44C285.8 361.44 289.98 361.44 290.81 361.44C295.43 361.44 299.17 357.84 299.17 353.4C299.17 348.96 295.43 345.36 290.81 345.36C289.14 345.36 284.97 345.36 278.29 345.36Z" id="d1oQ0ftQe"></path><path d="M269.93 398.51L269.93 414.59C297.86 414.59 313.37 414.59 316.48 414.59C321.09 414.59 324.83 410.99 324.83 406.55C324.83 402.11 321.09 398.51 316.48 398.51C310.27 398.51 294.75 398.51 269.93 398.51Z" id="bgQkqFUaX"></path><path d="M269.93 423.18L269.93 439.26C297.86 439.26 313.37 439.26 316.48 439.26C321.09 439.26 324.83 435.66 324.83 431.22C324.83 426.78 321.09 423.18 316.48 423.18C310.27 423.18 294.75 423.18 269.93 423.18Z" id="b5NovF2ane"></path><path d="M269.93 447.85L269.93 463.93C297.86 463.93 313.37 463.93 316.48 463.93C321.09 463.93 324.83 460.33 324.83 455.89C324.83 451.45 321.09 447.85 316.48 447.85C310.27 447.85 294.75 447.85 269.93 447.85Z" id="c14FXhuaDS"></path></defs><g><g><g><use xlink:href="#a7LqEK6La" opacity="1" fill="#ffffff" fill-opacity="1"></use><g><use xlink:href="#a7LqEK6La" opacity="1" fill-opacity="0" stroke="#992825" stroke-width="10" stroke-opacity="1"></use></g></g><g><use xlink:href="#ewT6nBT9c" opacity="1" fill="#ffffff" fill-opacity="1"></use><g><use xlink:href="#ewT6nBT9c" opacity="1" fill-opacity="0" stroke="#000000" stroke-width="1" stroke-opacity="0"></use></g></g><g><use xlink:href="#lfv5j2hdm" opacity="1" fill="#ffffff" fill-opacity="1"></use><g><use xlink:href="#lfv5j2hdm" opacity="1" fill-opacity="0" stroke="#000000" stroke-width="1" stroke-opacity="0"></use></g></g><g><use xlink:href="#f10lCPsvnx" opacity="1" fill="#ffffff" fill-opacity="1"></use><g><use xlink:href="#f10lCPsvnx" opacity="1" fill-opacity="0" stroke="#000000" stroke-width="1" stroke-opacity="0"></use></g></g><g><use xlink:href="#d3q18cyFNM" opacity="1" fill="#fc3952" fill-opacity="1"></use><g><use xlink:href="#d3q18cyFNM" opacity="1" fill-opacity="0" stroke="#000000" stroke-width="1" stroke-opacity="0"></use></g></g><g><use xlink:href="#dceqONpoQ" opacity="1" fill="#edeada" fill-opacity="1"></use><g><use xlink:href="#dceqONpoQ" opacity="1" fill-opacity="0" stroke="#000000" stroke-width="1" stroke-opacity="0"></use></g></g><g><use xlink:href="#a1kR1yOGvu" opacity="1" fill="#cec9ae" fill-opacity="1"></use><g><use xlink:href="#a1kR1yOGvu" opacity="1" fill-opacity="0" stroke="#000000" stroke-width="1" stroke-opacity="0"></use></g></g><g><use xlink:href="#d2iCEa3MEv" opacity="1" fill="#28384c" fill-opacity="1"></use><g><use xlink:href="#d2iCEa3MEv" opacity="1" fill-opacity="0" stroke="#000000" stroke-width="1" stroke-opacity="0"></use></g></g><g><use xlink:href="#a18ZzhxD6o" opacity="1" fill="#28384c" fill-opacity="1"></use><g><use xlink:href="#a18ZzhxD6o" opacity="1" fill-opacity="0" stroke="#000000" stroke-width="1" stroke-opacity="0"></use></g></g><g><use xlink:href="#d33VAUFUhi" opacity="1" fill="#26b99a" fill-opacity="1"></use><g><use xlink:href="#d33VAUFUhi" opacity="1" fill-opacity="0" stroke="#000000" stroke-width="1" stroke-opacity="0"></use></g></g><g><use xlink:href="#aBdYJ5Z5z" opacity="1" fill="#e6e7e8" fill-opacity="1"></use><g><use xlink:href="#aBdYJ5Z5z" opacity="1" fill-opacity="0" stroke="#000000" stroke-width="1" stroke-opacity="0"></use></g></g><g><use xlink:href="#jpCnutmJ" opacity="1" fill="#d8d7da" fill-opacity="1"></use><g><use xlink:href="#jpCnutmJ" opacity="1" fill-opacity="0" stroke="#000000" stroke-width="1" stroke-opacity="0"></use></g></g><g><use xlink:href="#b5z4V4oE78" opacity="1" fill="#5aaae7" fill-opacity="1"></use><g><use xlink:href="#b5z4V4oE78" opacity="1" fill-opacity="0" stroke="#000000" stroke-width="1" stroke-opacity="0"></use></g></g><g><use xlink:href="#d4C0YIlIhS" opacity="1" fill="#5aaae7" fill-opacity="1"></use><g><use xlink:href="#d4C0YIlIhS" opacity="1" fill-opacity="0" stroke="#000000" stroke-width="1" stroke-opacity="0"></use></g></g><g><use xlink:href="#a9vRNr5Tx" opacity="1" fill="#3d9ae2" fill-opacity="1"></use><g><use xlink:href="#a9vRNr5Tx" opacity="1" fill-opacity="0" stroke="#000000" stroke-width="1" stroke-opacity="0"></use></g></g><g><use xlink:href="#c8peYLjLnj" opacity="1" fill="#e6e7e8" fill-opacity="1"></use><g><use xlink:href="#c8peYLjLnj" opacity="1" fill-opacity="0" stroke="#000000" stroke-width="1" stroke-opacity="0"></use></g></g><g><use xlink:href="#lRY7nFOaD" opacity="1" fill="#ff5023" fill-opacity="1"></use><g><use xlink:href="#lRY7nFOaD" opacity="1" fill-opacity="0" stroke="#000000" stroke-width="1" stroke-opacity="0"></use></g></g><g><use xlink:href="#c7p8GElmUH" opacity="1" fill="#787680" fill-opacity="1"></use><g><use xlink:href="#c7p8GElmUH" opacity="1" fill-opacity="0" stroke="#000000" stroke-width="1" stroke-opacity="0"></use></g></g><g><use xlink:href="#beEtKdiS" opacity="1" fill="#ff5023" fill-opacity="1"></use><g><use xlink:href="#beEtKdiS" opacity="1" fill-opacity="0" stroke="#000000" stroke-width="1" stroke-opacity="0"></use></g></g><g><use xlink:href="#b2MXnJPVqc" opacity="1" fill="#787680" fill-opacity="1"></use><g><use xlink:href="#b2MXnJPVqc" opacity="1" fill-opacity="0" stroke="#000000" stroke-width="1" stroke-opacity="0"></use></g></g><g><use xlink:href="#bLHXEgYbo" opacity="1" fill="#1a6fb0" fill-opacity="1"></use><g><use xlink:href="#bLHXEgYbo" opacity="1" fill-opacity="0" stroke="#000000" stroke-width="1" stroke-opacity="0"></use></g></g><g><use xlink:href="#dfmc5Ld03" opacity="1" fill="#57565c" fill-opacity="1"></use><g><use xlink:href="#dfmc5Ld03" opacity="1" fill-opacity="0" stroke="#000000" stroke-width="1" stroke-opacity="0"></use></g></g><g><use xlink:href="#b2Ek7cJ0Ta" opacity="1" fill="#57565c" fill-opacity="1"></use><g><use xlink:href="#b2Ek7cJ0Ta" opacity="1" fill-opacity="0" stroke="#000000" stroke-width="1" stroke-opacity="0"></use></g></g><g><use xlink:href="#aruN1a6yj" opacity="1" fill="#57565c" fill-opacity="1"></use><g><use xlink:href="#aruN1a6yj" opacity="1" fill-opacity="0" stroke="#000000" stroke-width="1" stroke-opacity="0"></use></g></g><g><use xlink:href="#ayyIqOWHb" opacity="1" fill="#57565c" fill-opacity="1"></use><g><use xlink:href="#ayyIqOWHb" opacity="1" fill-opacity="0" stroke="#000000" stroke-width="1" stroke-opacity="0"></use></g></g><g><use xlink:href="#c2UAJku7Q" opacity="1" fill="#57565c" fill-opacity="1"></use><g><use xlink:href="#c2UAJku7Q" opacity="1" fill-opacity="0" stroke="#000000" stroke-width="1" stroke-opacity="0"></use></g></g><g><use xlink:href="#a1QKNNJGxi" opacity="1" fill="#acabb1" fill-opacity="1"></use><g><use xlink:href="#a1QKNNJGxi" opacity="1" fill-opacity="0" stroke="#000000" stroke-width="1" stroke-opacity="0"></use></g></g><g><use xlink:href="#b3aM9AH5Pn" opacity="1" fill="#acabb1" fill-opacity="1"></use><g><use xlink:href="#b3aM9AH5Pn" opacity="1" fill-opacity="0" stroke="#000000" stroke-width="1" stroke-opacity="0"></use></g></g><g><use xlink:href="#b5Z0QyPZUy" opacity="1" fill="#acabb1" fill-opacity="1"></use><g><use xlink:href="#b5Z0QyPZUy" opacity="1" fill-opacity="0" stroke="#000000" stroke-width="1" stroke-opacity="0"></use></g></g><g><use xlink:href="#b1C9SjtuCT" opacity="1" fill="#acabb1" fill-opacity="1"></use><g><use xlink:href="#b1C9SjtuCT" opacity="1" fill-opacity="0" stroke="#000000" stroke-width="1" stroke-opacity="0"></use></g></g><g><use xlink:href="#a1RGS5gH4M" opacity="1" fill="#898890" fill-opacity="1"></use><g><use xlink:href="#a1RGS5gH4M" opacity="1" fill-opacity="0" stroke="#000000" stroke-width="1" stroke-opacity="0"></use></g></g><g><use xlink:href="#dOHacDZjQ" opacity="1" fill="#acabb1" fill-opacity="1"></use><g><use xlink:href="#dOHacDZjQ" opacity="1" fill-opacity="0" stroke="#000000" stroke-width="1" stroke-opacity="0"></use></g></g><g><use xlink:href="#c6lEGX57ge" opacity="1" fill="#acabb1" fill-opacity="1"></use><g><use xlink:href="#c6lEGX57ge" opacity="1" fill-opacity="0" stroke="#000000" stroke-width="1" stroke-opacity="0"></use></g></g><g><use xlink:href="#b2kuP3WBPS" opacity="1" fill="#1e81ce" fill-opacity="1"></use><g><use xlink:href="#b2kuP3WBPS" opacity="1" fill-opacity="0" stroke="#000000" stroke-width="1" stroke-opacity="0"></use></g></g><g><use xlink:href="#cV9lZmm6M" opacity="1" fill="#1e81ce" fill-opacity="1"></use><g><use xlink:href="#cV9lZmm6M" opacity="1" fill-opacity="0" stroke="#000000" stroke-width="1" stroke-opacity="0"></use></g></g><g><use xlink:href="#a2nmceoXAn" opacity="1" fill="#3083c9" fill-opacity="1"></use><g><use xlink:href="#a2nmceoXAn" opacity="1" fill-opacity="0" stroke="#000000" stroke-width="1" stroke-opacity="0"></use></g></g><g><use xlink:href="#mZRi8G9z" opacity="1" fill="#a1c8ec" fill-opacity="1"></use><g><use xlink:href="#mZRi8G9z" opacity="1" fill-opacity="0" stroke="#000000" stroke-width="1" stroke-opacity="0"></use></g></g><g><use xlink:href="#c4sjYKEn4T" opacity="1" fill="#a1c8ec" fill-opacity="1"></use><g><use xlink:href="#c4sjYKEn4T" opacity="1" fill-opacity="0" stroke="#000000" stroke-width="1" stroke-opacity="0"></use></g></g><g><use xlink:href="#b1iVa3Mko" opacity="1" fill="#51b3da" fill-opacity="1"></use><g><use xlink:href="#b1iVa3Mko" opacity="1" fill-opacity="0" stroke="#000000" stroke-width="1" stroke-opacity="0"></use></g></g><g><use xlink:href="#a1yI7u26S" opacity="1" fill="#ffedbe" fill-opacity="1"></use><g><use xlink:href="#a1yI7u26S" opacity="1" fill-opacity="0" stroke="#000000" stroke-width="1" stroke-opacity="0"></use></g></g><g><use xlink:href="#fBxpfbWIl" opacity="1" fill="#ffda79" fill-opacity="1"></use><g><use xlink:href="#fBxpfbWIl" opacity="1" fill-opacity="0" stroke="#000000" stroke-width="1" stroke-opacity="0"></use></g></g><g><use xlink:href="#a2l10ZNZEV" opacity="1" fill="#ff5e5b" fill-opacity="1"></use><g><use xlink:href="#a2l10ZNZEV" opacity="1" fill-opacity="0" stroke="#000000" stroke-width="1" stroke-opacity="0"></use></g></g><g><use xlink:href="#b1FEgryV2J" opacity="1" fill="#ffc72d" fill-opacity="1"></use><g><use xlink:href="#b1FEgryV2J" opacity="1" fill-opacity="0" stroke="#000000" stroke-width="1" stroke-opacity="0"></use></g></g><g><use xlink:href="#h1SOsxjFdM" opacity="1" fill="#ffc72d" fill-opacity="1"></use><g><use xlink:href="#h1SOsxjFdM" opacity="1" fill-opacity="0" stroke="#000000" stroke-width="1" stroke-opacity="0"></use></g></g><g><use xlink:href="#aq5pP65Rq" opacity="1" fill="#ffc72d" fill-opacity="1"></use><g><use xlink:href="#aq5pP65Rq" opacity="1" fill-opacity="0" stroke="#000000" stroke-width="1" stroke-opacity="0"></use></g></g><g><use xlink:href="#d1oQ0ftQe" opacity="1" fill="#ff423d" fill-opacity="1"></use><g><use xlink:href="#d1oQ0ftQe" opacity="1" fill-opacity="0" stroke="#000000" stroke-width="1" stroke-opacity="0"></use></g></g><g><use xlink:href="#bgQkqFUaX" opacity="1" fill="#ffb700" fill-opacity="1"></use><g><use xlink:href="#bgQkqFUaX" opacity="1" fill-opacity="0" stroke="#000000" stroke-width="1" stroke-opacity="0"></use></g></g><g><use xlink:href="#b5NovF2ane" opacity="1" fill="#ffb700" fill-opacity="1"></use><g><use xlink:href="#b5NovF2ane" opacity="1" fill-opacity="0" stroke="#000000" stroke-width="1" stroke-opacity="0"></use></g></g><g><use xlink:href="#c14FXhuaDS" opacity="1" fill="#ffb700" fill-opacity="1"></use><g><use xlink:href="#c14FXhuaDS" opacity="1" fill-opacity="0" stroke="#000000" stroke-width="1" stroke-opacity="0"></use></g></g></g></g></svg>