<?xml version="1.0" encoding="UTF-8" standalone="no"?>
<!DOCTYPE svg PUBLIC "-//W3C//DTD SVG 1.1//EN" "http://www.w3.org/Graphics/SVG/1.1/DTD/svg11.dtd">
<svg version="1.1" xmlns="http://www.w3.org/2000/svg" xmlns:xlink="http://www.w3.org/1999/xlink" preserveAspectRatio="xMidYMid meet" viewBox="0 0 640 640" width="640" height="640"><defs><path d="M580.14 309.87C580.14 447.85 468.12 559.87 330.14 559.87C192.16 559.87 80.14 447.85 80.14 309.87C80.14 171.89 192.16 59.87 330.14 59.87C468.12 59.87 580.14 171.89 580.14 309.87Z" id="gjPFmYBOl"></path><path d="M374.98 216.07L375.84 216.48L376.61 217.04L377.27 217.72L377.82 218.5L378.22 219.38L378.48 220.33L378.57 221.34L378.48 222.35L378.22 223.3L377.82 224.18L377.27 224.96L376.61 225.64L375.84 226.19L374.98 226.61L374.04 226.87L373.05 226.96L367.53 226.96L366.54 226.87L365.6 226.61L364.74 226.19L363.97 225.64L363.31 224.96L362.76 224.18L362.35 223.3L362.1 222.35L362.01 221.34L362.1 220.33L362.35 219.38L362.76 218.5L363.31 217.72L363.97 217.04L364.74 216.48L365.6 216.07L366.54 215.81L367.53 215.72L373.05 215.72L374.04 215.81L374.98 216.07Z" id="b59zuWW1Kp"></path><path d="M346.3 215.78L346.71 215.86L347.11 215.98L347.5 216.12L347.87 216.29L348.23 216.48L348.57 216.7L348.9 216.95L349.2 217.22L349.49 217.51L349.75 217.82L349.99 218.15L350.21 218.5L350.4 218.87L350.57 219.25L350.71 219.64L350.82 220.05L350.9 220.47L350.95 220.9L350.96 221.34L350.95 221.78L350.9 222.21L350.82 222.63L350.71 223.03L350.57 223.43L350.4 223.81L350.21 224.18L349.99 224.52L349.75 224.85L349.49 225.17L349.2 225.46L348.9 225.73L348.57 225.97L348.23 226.19L347.87 226.39L347.5 226.56L347.11 226.7L346.71 226.81L346.3 226.89L345.87 226.94L345.44 226.96L308.84 226.96L308.41 226.94L307.98 226.89L307.57 226.81L307.17 226.7L306.78 226.56L306.41 226.39L306.05 226.19L305.71 225.97L305.38 225.73L305.08 225.46L304.79 225.17L304.53 224.85L304.29 224.52L304.07 224.18L303.88 223.81L303.71 223.43L303.57 223.03L303.46 222.63L303.38 222.21L303.33 221.78L303.32 221.34L303.33 220.9L303.38 220.47L303.46 220.05L303.57 219.64L303.71 219.25L303.88 218.87L304.07 218.5L304.29 218.15L304.53 217.82L304.79 217.51L305.08 217.22L305.38 216.95L305.71 216.7L306.05 216.48L306.41 216.29L306.78 216.12L307.17 215.98L307.57 215.86L307.98 215.78L308.41 215.73L308.84 215.72L345.44 215.72L345.87 215.73L346.3 215.78Z" id="b5MFza2v1O"></path><path d="M357.03 243.85L357.3 243.89L357.57 243.93L357.83 243.99L358.08 244.06L358.33 244.15L358.57 244.24L358.81 244.35L359.05 244.47L359.27 244.59L359.49 244.73L359.7 244.88L359.91 245.04L360.11 245.21L360.3 245.38L360.48 245.57L360.65 245.76L360.82 245.96L360.97 246.17L361.12 246.39L361.25 246.61L361.38 246.84L361.49 247.08L361.6 247.32L361.69 247.57L361.77 247.82L361.84 248.08L361.9 248.35L361.95 248.62L361.98 248.89L362 249.17L362.01 249.45L362 249.73L361.98 250.01L361.95 250.28L361.9 250.55L361.84 250.81L361.77 251.07L361.69 251.33L361.6 251.58L361.49 251.82L361.38 252.06L361.25 252.29L361.12 252.51L360.97 252.73L360.82 252.94L360.65 253.14L360.48 253.33L360.3 253.52L360.11 253.69L359.91 253.86L359.7 254.02L359.49 254.17L359.27 254.3L359.05 254.43L358.81 254.55L358.57 254.65L358.33 254.75L358.08 254.83L357.83 254.9L357.57 254.96L357.3 255.01L357.03 255.04L356.76 255.06L356.49 255.07L290.73 255.07L290.45 255.06L290.18 255.04L289.91 255.01L289.65 254.96L289.39 254.9L289.13 254.83L288.88 254.75L288.64 254.65L288.4 254.55L288.17 254.43L287.94 254.3L287.72 254.17L287.51 254.02L287.3 253.86L287.11 253.69L286.92 253.52L286.74 253.33L286.56 253.14L286.4 252.94L286.24 252.73L286.1 252.51L285.96 252.29L285.84 252.06L285.72 251.82L285.62 251.58L285.52 251.33L285.44 251.07L285.37 250.81L285.31 250.55L285.27 250.28L285.23 250.01L285.21 249.73L285.21 249.45L285.21 249.17L285.23 248.89L285.27 248.62L285.31 248.35L285.37 248.08L285.44 247.82L285.52 247.57L285.62 247.32L285.72 247.08L285.84 246.84L285.96 246.61L286.1 246.39L286.24 246.17L286.4 245.96L286.56 245.76L286.74 245.57L286.92 245.38L287.11 245.21L287.3 245.04L287.51 244.88L287.72 244.73L287.94 244.59L288.17 244.47L288.4 244.35L288.64 244.24L288.88 244.15L289.13 244.06L289.39 243.99L289.65 243.93L289.91 243.89L290.18 243.85L290.45 243.83L290.73 243.83L356.49 243.83L356.76 243.83L357.03 243.85Z" id="a16EvB3tSC"></path><path d="M410.62 428.77C410.41 427.82 410.3 426.83 410.3 425.82C410.3 417.67 417.44 411.07 426.24 411.07C424.12 411.07 413.49 411.07 394.36 411.07L394.36 428.77C404.12 428.77 409.54 428.77 410.62 428.77Z" id="c3h7lLshzQ"></path><path d="M343.35 411.07C352.16 411.07 359.29 417.67 359.29 425.82C359.29 426.83 359.18 427.82 358.98 428.77C360.06 428.77 365.48 428.77 375.24 428.77L375.24 411.07C356.11 411.07 345.48 411.07 343.35 411.07Z" id="a6YNmYN8yN"></path><path d="M375.24 346.17L394.36 346.17L394.36 328.46L384.8 328.46L375.24 328.46L375.24 346.17Z" id="b7qpji51z8"></path><path d="M394.36 369.77C394.36 369.77 394.36 369.77 394.36 369.77C394.36 394.55 394.36 408.31 394.36 411.07C394.36 411.07 394.36 411.07 394.36 411.07C382.89 411.07 376.51 411.07 375.24 411.07C375.24 411.07 375.24 411.07 375.24 411.07C375.24 386.29 375.24 372.52 375.24 369.77C375.24 369.77 375.24 369.77 375.24 369.77C386.71 369.77 393.09 369.77 394.36 369.77Z" id="c26fAotAbO"></path><path d="M375.24 440.57L394.36 440.57L394.36 428.77L394.36 411.07L375.24 411.07L375.24 428.77L375.24 440.57Z" id="azgohuDO"></path><path d="M333.79 210.46L327.41 263.56L384.8 263.56L384.8 210.46L333.79 210.46Z" id="a25CW5N0vr"></path><path d="M327.41 298.96L327.41 328.46L375.24 328.46L384.8 328.46L384.8 298.96L327.41 298.96Z" id="f5fbkOYexb"></path><path d="M394.36 328.46L442.18 328.46L442.18 298.96L384.8 298.96L384.8 328.46L394.36 328.46Z" id="ajVOcmlMs"></path><path d="M435.81 210.46L384.8 210.46L384.8 263.56L442.18 263.56L435.81 210.46Z" id="d4bDqnsiQg"></path><path d="M327.41 369.77L375.24 369.77L394.36 369.77L442.18 369.77L442.18 346.17L394.36 346.17L375.24 346.17L327.41 346.17L327.41 369.77Z" id="eZZkqaqPE"></path><path d="M327.41 425.82C327.41 433.96 334.55 440.57 343.35 440.57C351.07 440.57 357.5 435.5 358.98 428.77C359.18 427.82 359.29 426.83 359.29 425.82C359.29 417.67 352.16 411.07 343.35 411.07C334.55 411.07 327.41 417.67 327.41 425.82Z" id="fzoGUgD7z"></path><path d="M410.62 428.77C412.1 435.5 418.53 440.57 426.24 440.57C435.05 440.57 442.18 433.96 442.18 425.82C442.18 417.67 435.05 411.07 426.24 411.07C417.44 411.07 410.3 417.67 410.3 425.82C410.3 426.83 410.41 427.82 410.62 428.77Z" id="aD7DPpPyF"></path><path d="M308.29 298.96L308.29 422.87L206.27 422.87L206.27 440.57L187.14 440.57L187.14 263.56L327.41 263.56L327.41 298.96L308.29 298.96ZM206.27 405.17L289.16 405.17L289.16 352.07L206.27 352.07L206.27 405.17ZM206.27 334.37L289.16 334.37L289.16 281.26L206.27 281.26L206.27 334.37Z" id="cYL4FjbF3"></path><path d="M327.41 263.56L327.41 298.96L384.8 298.96L442.18 298.96L461.31 298.96L461.31 440.57L480.44 440.57L480.44 263.56L384.8 263.56L327.41 263.56Z" id="f23GBQhvFA"></path><path d="M206.27 334.37L206.27 281.26L289.16 281.26L289.16 334.37L206.27 334.37ZM225.4 316.66L270.03 316.66L270.03 298.96L225.4 298.96L225.4 316.66Z" id="b1s9C8KBDN"></path><path d="M270.03 298.96C270.03 298.96 270.03 298.96 270.03 298.96C270.03 309.58 270.03 315.48 270.03 316.66C270.03 316.66 270.03 316.66 270.03 316.66C243.25 316.66 228.37 316.66 225.4 316.66C225.4 316.66 225.4 316.66 225.4 316.66C225.4 306.04 225.4 300.14 225.4 298.96C225.4 298.96 225.4 298.96 225.4 298.96C252.18 298.96 267.05 298.96 270.03 298.96Z" id="b21mXcyOXE"></path><path d="M206.27 405.17L206.27 352.07L289.16 352.07L289.16 405.17L206.27 405.17ZM225.4 387.47L270.03 387.47L270.03 369.77L225.4 369.77L225.4 387.47Z" id="dwezX4cI9"></path><path d="M270.03 369.77C270.03 369.77 270.03 369.77 270.03 369.77C270.03 380.39 270.03 386.29 270.03 387.47C270.03 387.47 270.03 387.47 270.03 387.47C243.25 387.47 228.37 387.47 225.4 387.47C225.4 387.47 225.4 387.47 225.4 387.47C225.4 376.85 225.4 370.95 225.4 369.77C225.4 369.77 225.4 369.77 225.4 369.77C252.18 369.77 267.05 369.77 270.03 369.77Z" id="n4RyNl9yrR"></path><path d="M320 280.14L211.91 280.14L211.91 140.78L320 140.78L320 280.14Z" id="b19y2JsxJO"></path><path d="M320 280.14L265.96 280.14L265.96 140.78L320 140.78L320 280.14Z" id="a87ublXgah"></path><path d="M306.56 267.13L225.35 267.13L225.35 153.79L306.56 153.79L306.56 267.13Z" id="hLfBSxiFb"></path><path d="M306.56 267.13L265.96 267.13L265.96 153.79L306.56 153.79L306.56 267.13Z" id="b5pz2bBICr"></path><path d="M265.96 210.46C265.96 205.67 261.95 201.79 257 201.79C252.05 201.79 248.04 205.67 248.04 210.46C248.04 221.06 265.96 232.14 265.96 232.14C265.96 232.14 283.87 221.06 283.87 210.46C283.87 205.67 279.86 201.79 274.91 201.79C269.97 201.79 265.96 205.67 265.96 210.46Z" id="a7agATSLGr"></path><path d="M265.96 210.46C265.96 212.63 265.96 229.98 265.96 232.14C265.96 232.14 283.87 221.06 283.87 210.46C283.87 205.67 279.86 201.79 274.91 201.79C269.97 201.79 265.96 205.67 265.96 210.46Z" id="k3AQrvqB3"></path><path d="M243.56 136.45L288.35 136.45L288.35 162.47L243.56 162.47L243.56 136.45Z" id="dPnz2mFby"></path><path d="M265.96 136.45L288.35 136.45L288.35 162.47L265.96 162.47L265.96 136.45Z" id="f1O6smZc3"></path><path d="M207.44 258.31C207.44 255.1 207.44 239.05 207.44 210.17L216.39 210.17C216.39 239.05 216.39 255.1 216.39 258.31C216.39 267.95 224.5 275.8 234.46 275.8C244.42 275.8 252.52 267.95 252.52 258.31C252.52 257.45 252.52 253.16 252.52 245.44L261.48 245.44C261.48 253.16 261.48 257.45 261.48 258.31C261.48 272.74 249.36 284.48 234.46 284.48C219.56 284.48 207.44 272.74 207.44 258.31Z" id="c2840MlNDp"></path><path d="M243.56 236.77C243.56 229.6 249.59 223.76 257 223.76C264.41 223.76 270.44 229.6 270.44 236.77C270.44 243.94 264.41 249.78 257 249.78C249.59 249.78 243.56 243.94 243.56 236.77Z" id="c3hbv4dK6F"></path><path d="M257 223.76C264.41 223.76 270.44 229.6 270.44 236.77C270.44 243.94 264.41 249.78 257 249.78C257 244.58 257 226.36 257 223.76Z" id="f5sNEC8gOk"></path><path d="M252.52 236.77C252.52 239.16 254.53 241.11 257 241.11C259.47 241.11 261.48 239.16 261.48 236.77C261.48 234.38 259.47 232.43 257 232.43C254.53 232.43 252.52 234.38 252.52 236.77Z" id="a4A9ySR27"></path><path d="M257 241.11C259.47 241.11 261.48 239.16 261.48 236.77C261.48 234.38 259.47 232.43 257 232.43C257 234.17 257 240.24 257 241.11Z" id="f4FFojK7N"></path><path d="M171.61 175.48C171.61 174.61 171.61 170.27 171.61 162.47L194 162.47L194 171.14L180.56 171.14C180.56 173.74 180.56 175.19 180.56 175.48C180.56 192.22 194.63 205.83 211.91 205.83C229.2 205.83 243.27 192.22 243.27 175.48C243.27 175.19 243.27 173.74 243.27 171.14L229.83 171.14L229.83 162.47L252.22 162.47C252.22 170.27 252.22 174.61 252.22 175.48C252.22 197 234.14 214.51 211.91 214.51C189.69 214.51 171.61 197 171.61 175.48Z" id="b6a6wU20A"></path><path d="M211.91 205.83C229.2 205.83 243.27 192.22 243.27 175.48C243.27 175.19 243.27 173.74 243.27 171.14L229.83 171.14L229.83 162.47L252.22 162.47C252.22 170.27 252.22 174.61 252.22 175.48C252.22 197 234.14 214.51 211.91 214.51C211.91 212.77 211.91 206.7 211.91 205.83Z" id="bMhlhyrqZ"></path><path d="M194 158.13C189.05 158.13 185.04 162.01 185.04 166.8C185.04 171.59 189.05 175.48 194 175.48C198.95 175.48 202.96 171.59 202.96 166.8C202.96 162.01 198.95 158.13 194 158.13Z" id="c226jVLZrP"></path><path d="M229.53 158.13C224.58 158.13 220.57 162.01 220.57 166.8C220.57 171.59 224.58 175.48 229.53 175.48C234.48 175.48 238.49 171.59 238.49 166.8C238.49 162.01 234.48 158.13 229.53 158.13Z" id="b6OLwrPu3g"></path></defs><g><g><g><use xlink:href="#gjPFmYBOl" opacity="1" fill="#ffffff" fill-opacity="1"></use><g><use xlink:href="#gjPFmYBOl" opacity="1" fill-opacity="0" stroke="#992825" stroke-width="10" stroke-opacity="1"></use></g></g><g><use xlink:href="#b59zuWW1Kp" opacity="1" fill="#ffffff" fill-opacity="1"></use><g><use xlink:href="#b59zuWW1Kp" opacity="1" fill-opacity="0" stroke="#000000" stroke-width="1" stroke-opacity="0"></use></g></g><g><use xlink:href="#b5MFza2v1O" opacity="1" fill="#ffffff" fill-opacity="1"></use><g><use xlink:href="#b5MFza2v1O" opacity="1" fill-opacity="0" stroke="#000000" stroke-width="1" stroke-opacity="0"></use></g></g><g><use xlink:href="#a16EvB3tSC" opacity="1" fill="#ffffff" fill-opacity="1"></use><g><use xlink:href="#a16EvB3tSC" opacity="1" fill-opacity="0" stroke="#000000" stroke-width="1" stroke-opacity="0"></use></g></g><g><use xlink:href="#c3h7lLshzQ" opacity="1" fill="#acabb1" fill-opacity="1"></use><g><use xlink:href="#c3h7lLshzQ" opacity="1" fill-opacity="0" stroke="#000000" stroke-width="1" stroke-opacity="0"></use></g></g><g><use xlink:href="#a6YNmYN8yN" opacity="1" fill="#acabb1" fill-opacity="1"></use><g><use xlink:href="#a6YNmYN8yN" opacity="1" fill-opacity="0" stroke="#000000" stroke-width="1" stroke-opacity="0"></use></g></g><g><use xlink:href="#b7qpji51z8" opacity="1" fill="#acabb1" fill-opacity="1"></use><g><use xlink:href="#b7qpji51z8" opacity="1" fill-opacity="0" stroke="#000000" stroke-width="1" stroke-opacity="0"></use></g></g><g><use xlink:href="#c26fAotAbO" opacity="1" fill="#acabb1" fill-opacity="1"></use><g><use xlink:href="#c26fAotAbO" opacity="1" fill-opacity="0" stroke="#000000" stroke-width="1" stroke-opacity="0"></use></g></g><g><use xlink:href="#azgohuDO" opacity="1" fill="#565659" fill-opacity="1"></use><g><use xlink:href="#azgohuDO" opacity="1" fill-opacity="0" stroke="#000000" stroke-width="1" stroke-opacity="0"></use></g></g><g><use xlink:href="#a25CW5N0vr" opacity="1" fill="#ccf7f9" fill-opacity="1"></use><g><use xlink:href="#a25CW5N0vr" opacity="1" fill-opacity="0" stroke="#000000" stroke-width="1" stroke-opacity="0"></use></g></g><g><use xlink:href="#f5fbkOYexb" opacity="1" fill="#ccf7f9" fill-opacity="1"></use><g><use xlink:href="#f5fbkOYexb" opacity="1" fill-opacity="0" stroke="#000000" stroke-width="1" stroke-opacity="0"></use></g></g><g><use xlink:href="#ajVOcmlMs" opacity="1" fill="#00d7df" fill-opacity="1"></use><g><use xlink:href="#ajVOcmlMs" opacity="1" fill-opacity="0" stroke="#000000" stroke-width="1" stroke-opacity="0"></use></g></g><g><use xlink:href="#d4bDqnsiQg" opacity="1" fill="#00d7df" fill-opacity="1"></use><g><use xlink:href="#d4bDqnsiQg" opacity="1" fill-opacity="0" stroke="#000000" stroke-width="1" stroke-opacity="0"></use></g></g><g><use xlink:href="#eZZkqaqPE" opacity="1" fill="#00a1a7" fill-opacity="1"></use><g><use xlink:href="#eZZkqaqPE" opacity="1" fill-opacity="0" stroke="#000000" stroke-width="1" stroke-opacity="0"></use></g></g><g><use xlink:href="#fzoGUgD7z" opacity="1" fill="#565659" fill-opacity="1"></use><g><use xlink:href="#fzoGUgD7z" opacity="1" fill-opacity="0" stroke="#000000" stroke-width="1" stroke-opacity="0"></use></g></g><g><use xlink:href="#aD7DPpPyF" opacity="1" fill="#565659" fill-opacity="1"></use><g><use xlink:href="#aD7DPpPyF" opacity="1" fill-opacity="0" stroke="#000000" stroke-width="1" stroke-opacity="0"></use></g></g><g><use xlink:href="#cYL4FjbF3" opacity="1" fill="#a0815c" fill-opacity="1"></use><g><use xlink:href="#cYL4FjbF3" opacity="1" fill-opacity="0" stroke="#000000" stroke-width="1" stroke-opacity="0"></use></g></g><g><use xlink:href="#f23GBQhvFA" opacity="1" fill="#786145" fill-opacity="1"></use><g><use xlink:href="#f23GBQhvFA" opacity="1" fill-opacity="0" stroke="#000000" stroke-width="1" stroke-opacity="0"></use></g></g><g><use xlink:href="#b1s9C8KBDN" opacity="1" fill="#b39a7d" fill-opacity="1"></use><g><use xlink:href="#b1s9C8KBDN" opacity="1" fill-opacity="0" stroke="#000000" stroke-width="1" stroke-opacity="0"></use></g></g><g><use xlink:href="#b21mXcyOXE" opacity="1" fill="#50412e" fill-opacity="1"></use><g><use xlink:href="#b21mXcyOXE" opacity="1" fill-opacity="0" stroke="#000000" stroke-width="1" stroke-opacity="0"></use></g></g><g><use xlink:href="#dwezX4cI9" opacity="1" fill="#b39a7d" fill-opacity="1"></use><g><use xlink:href="#dwezX4cI9" opacity="1" fill-opacity="0" stroke="#000000" stroke-width="1" stroke-opacity="0"></use></g></g><g><use xlink:href="#n4RyNl9yrR" opacity="1" fill="#50412e" fill-opacity="1"></use><g><use xlink:href="#n4RyNl9yrR" opacity="1" fill-opacity="0" stroke="#000000" stroke-width="1" stroke-opacity="0"></use></g></g><g><use xlink:href="#b19y2JsxJO" opacity="1" fill="#0042a2" fill-opacity="1"></use><g><use xlink:href="#b19y2JsxJO" opacity="1" fill-opacity="0" stroke="#000000" stroke-width="1" stroke-opacity="0"></use></g></g><g><use xlink:href="#a87ublXgah" opacity="1" fill="#002659" fill-opacity="1"></use><g><use xlink:href="#a87ublXgah" opacity="1" fill-opacity="0" stroke="#000000" stroke-width="1" stroke-opacity="0"></use></g></g><g><use xlink:href="#hLfBSxiFb" opacity="1" fill="#f5f0eb" fill-opacity="1"></use><g><use xlink:href="#hLfBSxiFb" opacity="1" fill-opacity="0" stroke="#000000" stroke-width="1" stroke-opacity="0"></use></g></g><g><use xlink:href="#b5pz2bBICr" opacity="1" fill="#ebe1dc" fill-opacity="1"></use><g><use xlink:href="#b5pz2bBICr" opacity="1" fill-opacity="0" stroke="#000000" stroke-width="1" stroke-opacity="0"></use></g></g><g><use xlink:href="#a7agATSLGr" opacity="1" fill="#ff3980" fill-opacity="1"></use><g><use xlink:href="#a7agATSLGr" opacity="1" fill-opacity="0" stroke="#000000" stroke-width="1" stroke-opacity="0"></use></g></g><g><use xlink:href="#k3AQrvqB3" opacity="1" fill="#f30051" fill-opacity="1"></use><g><use xlink:href="#k3AQrvqB3" opacity="1" fill-opacity="0" stroke="#000000" stroke-width="1" stroke-opacity="0"></use></g></g><g><use xlink:href="#dPnz2mFby" opacity="1" fill="#76e2f8" fill-opacity="1"></use><g><use xlink:href="#dPnz2mFby" opacity="1" fill-opacity="0" stroke="#000000" stroke-width="1" stroke-opacity="0"></use></g></g><g><use xlink:href="#f1O6smZc3" opacity="1" fill="#00cef5" fill-opacity="1"></use><g><use xlink:href="#f1O6smZc3" opacity="1" fill-opacity="0" stroke="#000000" stroke-width="1" stroke-opacity="0"></use></g></g><g><use xlink:href="#c2840MlNDp" opacity="1" fill="#ebe1dc" fill-opacity="1"></use><g><use xlink:href="#c2840MlNDp" opacity="1" fill-opacity="0" stroke="#000000" stroke-width="1" stroke-opacity="0"></use></g></g><g><use xlink:href="#c3hbv4dK6F" opacity="1" fill="#76e2f8" fill-opacity="1"></use><g><use xlink:href="#c3hbv4dK6F" opacity="1" fill-opacity="0" stroke="#000000" stroke-width="1" stroke-opacity="0"></use></g></g><g><use xlink:href="#f5sNEC8gOk" opacity="1" fill="#27d8f6" fill-opacity="1"></use><g><use xlink:href="#f5sNEC8gOk" opacity="1" fill-opacity="0" stroke="#000000" stroke-width="1" stroke-opacity="0"></use></g></g><g><use xlink:href="#a4A9ySR27" opacity="1" fill="#ffda2d" fill-opacity="1"></use><g><use xlink:href="#a4A9ySR27" opacity="1" fill-opacity="0" stroke="#000000" stroke-width="1" stroke-opacity="0"></use></g></g><g><use xlink:href="#f4FFojK7N" opacity="1" fill="#ffcd00" fill-opacity="1"></use><g><use xlink:href="#f4FFojK7N" opacity="1" fill-opacity="0" stroke="#000000" stroke-width="1" stroke-opacity="0"></use></g></g><g><use xlink:href="#b6a6wU20A" opacity="1" fill="#ff3980" fill-opacity="1"></use><g><use xlink:href="#b6a6wU20A" opacity="1" fill-opacity="0" stroke="#000000" stroke-width="1" stroke-opacity="0"></use></g></g><g><use xlink:href="#bMhlhyrqZ" opacity="1" fill="#f30051" fill-opacity="1"></use><g><use xlink:href="#bMhlhyrqZ" opacity="1" fill-opacity="0" stroke="#000000" stroke-width="1" stroke-opacity="0"></use></g></g><g><use xlink:href="#c226jVLZrP" opacity="1" fill="#f5f0eb" fill-opacity="1"></use><g><use xlink:href="#c226jVLZrP" opacity="1" fill-opacity="0" stroke="#000000" stroke-width="1" stroke-opacity="0"></use></g></g><g><use xlink:href="#b6OLwrPu3g" opacity="1" fill="#ebe1dc" fill-opacity="1"></use><g><use xlink:href="#b6OLwrPu3g" opacity="1" fill-opacity="0" stroke="#000000" stroke-width="1" stroke-opacity="0"></use></g></g></g></g></svg>