<?xml version="1.0" encoding="UTF-8" standalone="no"?>
<!DOCTYPE svg PUBLIC "-//W3C//DTD SVG 1.1//EN" "http://www.w3.org/Graphics/SVG/1.1/DTD/svg11.dtd">
<svg version="1.1" xmlns="http://www.w3.org/2000/svg" xmlns:xlink="http://www.w3.org/1999/xlink" preserveAspectRatio="xMidYMid meet" viewBox="0 0 640 640" width="640" height="640"><defs><path d="M575.73 294.43C575.73 432.41 463.7 544.43 325.73 544.43C187.75 544.43 75.73 432.41 75.73 294.43C75.73 156.45 187.75 44.43 325.73 44.43C463.7 44.43 575.73 156.45 575.73 294.43Z" id="bMTbqqH7r"></path><path d="M191.24 347.67L191.17 347.92L191.11 348.18L191.06 348.44L191.01 348.69L190.97 348.95L190.93 349.21L190.9 349.46L190.88 349.72L190.86 349.98L190.85 350.24L190.84 350.5L190.84 350.75L190.85 351.01L190.86 351.27L190.88 351.52L190.9 351.78L190.93 352.03L190.96 352.29L191 352.54L191.05 352.79L191.1 353.04L191.15 353.29L191.21 353.54L191.28 353.79L191.36 354.04L191.43 354.28L191.52 354.52L191.61 354.76L191.7 355L191.8 355.24L191.91 355.47L192.02 355.7L192.14 355.93L192.26 356.16L192.39 356.39L192.52 356.61L192.66 356.83L192.8 357.05L192.95 357.26L193.11 357.47L193.27 357.68L193.43 357.88L193.6 358.08L193.77 358.27L193.94 358.46L194.12 358.65L194.31 358.83L194.49 359L194.68 359.17L194.88 359.34L195.07 359.5L195.28 359.66L195.48 359.81L195.69 359.96L195.9 360.1L196.11 360.23L196.33 360.37L196.55 360.49L196.77 360.61L196.99 360.73L197.22 360.84L197.45 360.95L197.68 361.05L197.91 361.14L198.15 361.23L198.39 361.32L198.63 361.4L198.87 361.47L199.12 361.54L199.36 361.6L199.61 361.65L199.86 361.7L200.11 361.75L200.36 361.79L200.61 361.82L200.87 361.85L201.12 361.87L201.38 361.88L201.64 361.89L201.89 361.9L235.02 361.9L235.02 384.38L201.89 384.38L201.1 384.37L200.3 384.34L199.51 384.29L198.72 384.22L197.94 384.14L197.16 384.03L196.38 383.91L195.61 383.76L194.84 383.6L194.08 383.42L193.33 383.22L192.58 383.01L191.83 382.77L191.09 382.52L190.36 382.26L189.63 381.97L188.92 381.67L188.21 381.35L187.5 381.01L186.81 380.66L186.12 380.29L185.44 379.91L184.77 379.5L184.11 379.09L183.46 378.65L182.82 378.2L182.19 377.74L181.57 377.26L180.96 376.76L180.36 376.25L179.78 375.73L179.2 375.19L178.64 374.63L178.08 374.06L177.54 373.48L177.02 372.88L176.5 372.27L176 371.64L175.51 371.01L175.04 370.35L174.58 369.69L174.14 369.01L173.72 368.33L173.31 367.64L172.92 366.94L172.55 366.24L172.19 365.52L171.85 364.8L171.53 364.07L171.23 363.34L170.95 362.6L170.68 361.85L170.43 361.1L170.19 360.35L169.98 359.59L169.78 358.82L169.6 358.05L169.44 357.28L169.29 356.5L169.17 355.72L169.06 354.94L168.97 354.15L168.9 353.36L168.84 352.57L168.81 351.78L168.79 350.99L168.79 350.2L168.81 349.41L168.84 348.61L168.9 347.82L168.97 347.03L169.07 346.23L169.18 345.44L169.31 344.65L169.46 343.87L169.62 343.08L169.81 342.3L170.01 341.52L170.24 340.74L170.48 339.97L170.49 339.93L170.5 339.9L170.52 339.86L170.53 339.82L170.54 339.79L170.55 339.75L170.57 339.72L170.58 339.68L170.59 339.65L170.6 339.61L170.62 339.58L170.63 339.54L170.64 339.5L170.66 339.47L170.67 339.43L170.68 339.4L170.7 339.36L170.71 339.33L170.72 339.29L170.74 339.26L170.75 339.22L170.76 339.19L170.78 339.15L170.79 339.12L170.81 339.08L170.82 339.05L170.84 339.01L170.85 338.98L170.86 338.94L170.88 338.91L170.89 338.87L170.91 338.84L170.92 338.8L170.94 338.77L170.95 338.73L170.97 338.7L170.98 338.67L171 338.63L171.02 338.6L171.03 338.56L189.64 299.94L209.62 309.61L191.24 347.67Z" id="a58OkU5IpJ"></path><path d="M411.7 238.21C431.87 238.21 443.08 238.21 445.32 238.21C455.28 238.21 464.71 242.79 471 250.66C477.28 258.53 479.76 268.86 477.73 278.8C476.2 285.08 468.54 316.47 454.76 372.97L433.34 367.52C447.05 311.28 454.67 280.04 456.2 273.8C456.76 270.61 455.91 267.34 453.88 264.85C451.79 262.22 448.64 260.69 445.32 260.69C443.08 260.69 431.87 260.69 411.7 260.69" id="a124Kjy2jO"></path><path d="M412.8 442.86L412.48 443.28L412.16 443.69L411.82 444.09L411.48 444.48L411.13 444.87L410.77 445.24L410.4 445.61L410.03 445.97L409.65 446.31L409.26 446.65L408.86 446.98L408.46 447.3L408.05 447.61L407.63 447.9L407.21 448.19L406.78 448.47L406.35 448.74L405.91 448.99L405.46 449.24L405.01 449.48L404.55 449.7L404.09 449.92L403.62 450.12L403.15 450.32L402.68 450.5L402.2 450.67L401.71 450.83L401.23 450.98L400.73 451.12L400.24 451.24L399.74 451.36L399.24 451.46L398.73 451.55L398.23 451.63L397.72 451.7L397.2 451.75L396.69 451.8L396.17 451.83L395.65 451.84L395.13 451.85L251.59 451.85L250.67 451.83L249.77 451.78L248.88 451.68L248 451.56L247.13 451.39L246.28 451.2L245.43 450.97L244.6 450.7L243.79 450.41L242.99 450.08L242.2 449.73L241.44 449.34L240.68 448.93L239.95 448.48L239.24 448.01L238.54 447.51L237.87 446.99L237.21 446.44L236.58 445.86L235.97 445.26L235.38 444.64L234.82 444L234.28 443.33L233.76 442.64L233.27 441.94L232.81 441.21L232.37 440.46L231.96 439.7L231.59 438.92L231.23 438.12L230.91 437.3L230.63 436.47L230.37 435.63L230.14 434.77L229.95 433.89L229.79 433.01L229.66 432.11L229.57 431.21L229.52 430.29L229.5 429.36L229.5 367.52L417.22 367.52L417.22 429.36L412.8 442.86Z" id="gU2okBQfw"></path><path d="M417.22 367.97C417.22 236.14 417.22 162.9 417.22 148.25C417.22 135.83 407.33 125.76 395.13 125.76C380.78 125.76 265.94 125.76 251.59 125.76C239.39 125.76 229.5 135.83 229.5 148.25C229.5 165.49 229.5 251.7 229.5 406.87L395.47 406.87" id="g6C94Kt05A"></path><path d="M229.5 406.87L229.5 159.49L417.22 159.49L417.22 406.87L229.5 406.87Z" id="b2vuWbteqR"></path><path d="M414.79 171.49L412.15 172.91L409.3 174.49L406.26 176.24L403.03 178.16L399.62 180.26L396.03 182.55L392.28 185.02L388.36 187.69L384.3 190.56L380.09 193.63L375.74 196.91L371.27 200.4L366.68 204.12L361.97 208.05L357.15 212.22L352.24 216.62L347.23 221.26L342.14 226.15L336.98 231.28L331.75 236.67L326.46 242.32L321.11 248.24L315.72 254.42L310.29 260.88L304.84 267.62L299.35 274.64L293.86 281.95L288.36 289.56L282.85 297.47L277.36 305.68L271.88 314.21L266.42 323.04L260.99 332.2L255.6 341.69L250.26 351.5L244.97 361.65L239.74 372.14L234.58 382.98L229.5 394.17L229.5 159.49L417.22 159.49L417.22 170.23L414.79 171.49Z" id="d2h9BgnRZ"></path><path d="M335.59 423.87L336.15 424.03L336.68 424.24L337.19 424.51L337.66 424.83L338.1 425.19L338.5 425.6L338.86 426.04L339.17 426.53L339.43 427.04L339.64 427.59L339.79 428.16L339.89 428.75L339.92 429.36L339.89 429.98L339.79 430.57L339.64 431.14L339.43 431.68L339.17 432.2L338.86 432.68L338.5 433.13L338.1 433.54L337.66 433.9L337.19 434.22L336.68 434.48L336.15 434.7L335.59 434.86L335 434.95L334.4 434.99L312.32 434.99L311.71 434.95L311.13 434.86L310.57 434.7L310.04 434.48L309.53 434.22L309.06 433.9L308.62 433.54L308.22 433.13L307.86 432.68L307.55 432.2L307.29 431.68L307.08 431.14L306.92 430.57L306.83 429.98L306.79 429.36L306.83 428.75L306.92 428.16L307.08 427.59L307.29 427.04L307.55 426.53L307.86 426.04L308.22 425.6L308.62 425.19L309.06 424.83L309.53 424.51L310.04 424.24L310.57 424.03L311.13 423.87L311.71 423.77L312.32 423.74L334.4 423.74L335 423.77L335.59 423.87Z" id="d7extGaxHr"></path><path d="M334.85 294.45L335.08 294.47L335.3 294.5L335.51 294.54L335.73 294.59L335.94 294.65L336.15 294.71L336.35 294.79L336.55 294.87L336.75 294.96L336.94 295.05L337.13 295.16L337.31 295.27L337.49 295.39L337.66 295.51L337.83 295.64L337.99 295.78L338.15 295.92L338.31 296.07L338.45 296.23L338.59 296.39L338.73 296.56L338.86 296.73L338.98 296.91L339.09 297.09L339.2 297.27L339.31 297.47L339.4 297.66L339.49 297.86L339.57 298.07L339.64 298.27L339.7 298.48L339.76 298.7L339.81 298.92L339.85 299.14L339.88 299.36L339.9 299.59L339.92 299.82L339.92 300.05L339.92 322.54L362.01 322.54L362.23 322.55L362.46 322.56L362.68 322.58L362.9 322.61L363.12 322.65L363.33 322.7L363.54 322.76L363.75 322.83L363.96 322.9L364.16 322.98L364.35 323.07L364.54 323.17L364.73 323.27L364.92 323.38L365.09 323.5L365.27 323.62L365.44 323.76L365.6 323.89L365.76 324.04L365.91 324.19L366.06 324.34L366.2 324.5L366.33 324.67L366.46 324.84L366.59 325.02L366.7 325.2L366.81 325.39L366.91 325.58L367.01 325.77L367.09 325.97L367.17 326.18L367.25 326.38L367.31 326.59L367.37 326.81L367.42 327.03L367.46 327.25L367.49 327.47L367.51 327.7L367.52 327.93L367.53 328.16L367.53 350.65L367.52 350.88L367.51 351.11L367.49 351.34L367.46 351.56L367.42 351.78L367.37 352L367.31 352.22L367.25 352.43L367.17 352.64L367.09 352.84L367.01 353.04L366.91 353.23L366.81 353.43L366.7 353.61L366.59 353.79L366.46 353.97L366.33 354.14L366.2 354.31L366.06 354.47L365.91 354.63L365.76 354.78L365.6 354.92L365.44 355.06L365.27 355.19L365.09 355.31L364.92 355.43L364.73 355.54L364.54 355.65L364.35 355.74L364.16 355.83L363.96 355.91L363.75 355.99L363.54 356.05L363.33 356.11L363.12 356.16L362.9 356.2L362.68 356.23L362.46 356.25L362.23 356.27L362.01 356.27L339.92 356.27L339.92 378.76L339.92 378.99L339.9 379.22L339.88 379.45L339.85 379.67L339.81 379.89L339.76 380.11L339.7 380.33L339.64 380.54L339.57 380.75L339.49 380.95L339.4 381.15L339.31 381.35L339.2 381.54L339.09 381.72L338.98 381.91L338.86 382.08L338.73 382.25L338.59 382.42L338.45 382.58L338.31 382.74L338.15 382.89L337.99 383.03L337.83 383.17L337.66 383.3L337.49 383.42L337.31 383.54L337.13 383.65L336.94 383.76L336.75 383.85L336.55 383.94L336.35 384.02L336.15 384.1L335.94 384.16L335.73 384.22L335.51 384.27L335.3 384.31L335.08 384.34L334.85 384.37L334.63 384.38L334.4 384.38L312.32 384.38L312.09 384.38L311.86 384.37L311.64 384.34L311.42 384.31L311.2 384.27L310.99 384.22L310.78 384.16L310.57 384.1L310.37 384.02L310.17 383.94L309.97 383.85L309.78 383.76L309.59 383.65L309.41 383.54L309.23 383.42L309.06 383.3L308.89 383.17L308.72 383.03L308.56 382.89L308.41 382.74L308.27 382.58L308.12 382.42L307.99 382.25L307.86 382.08L307.74 381.91L307.62 381.72L307.51 381.54L307.41 381.35L307.32 381.15L307.23 380.95L307.15 380.75L307.08 380.54L307.01 380.33L306.96 380.11L306.91 379.89L306.87 379.67L306.84 379.45L306.81 379.22L306.8 378.99L306.79 378.76L306.79 356.27L284.71 356.27L284.48 356.27L284.26 356.25L284.04 356.23L283.82 356.2L283.6 356.16L283.38 356.11L283.17 356.05L282.97 355.99L282.76 355.91L282.56 355.83L282.37 355.74L282.17 355.65L281.99 355.54L281.8 355.43L281.62 355.31L281.45 355.19L281.28 355.06L281.12 354.92L280.96 354.78L280.81 354.63L280.66 354.47L280.52 354.31L280.38 354.14L280.26 353.97L280.13 353.79L280.02 353.61L279.91 353.43L279.81 353.23L279.71 353.04L279.62 352.84L279.54 352.64L279.47 352.43L279.41 352.22L279.35 352L279.3 351.78L279.26 351.56L279.23 351.34L279.21 351.11L279.19 350.88L279.19 350.65L279.19 328.16L279.19 327.93L279.21 327.7L279.23 327.47L279.26 327.25L279.3 327.03L279.35 326.81L279.41 326.59L279.47 326.38L279.54 326.18L279.62 325.97L279.71 325.77L279.81 325.58L279.91 325.39L280.02 325.2L280.13 325.02L280.26 324.84L280.38 324.67L280.52 324.5L280.66 324.34L280.81 324.19L280.96 324.04L281.12 323.89L281.28 323.76L281.45 323.62L281.62 323.5L281.8 323.38L281.99 323.27L282.17 323.17L282.37 323.07L282.56 322.98L282.76 322.9L282.97 322.83L283.17 322.76L283.38 322.7L283.6 322.65L283.82 322.61L284.04 322.58L284.26 322.56L284.48 322.55L284.71 322.54L306.79 322.54L306.79 300.05L306.8 299.82L306.81 299.59L306.84 299.36L306.87 299.14L306.91 298.92L306.96 298.7L307.01 298.48L307.08 298.27L307.15 298.07L307.23 297.86L307.32 297.66L307.41 297.47L307.51 297.27L307.62 297.09L307.74 296.91L307.86 296.73L307.99 296.56L308.12 296.39L308.27 296.23L308.41 296.07L308.56 295.92L308.72 295.78L308.89 295.64L309.06 295.51L309.23 295.39L309.41 295.27L309.59 295.16L309.78 295.05L309.97 294.96L310.17 294.87L310.37 294.79L310.57 294.71L310.78 294.65L310.99 294.59L311.2 294.54L311.42 294.5L311.64 294.47L311.86 294.45L312.09 294.43L312.32 294.43L334.4 294.43L334.63 294.43L334.85 294.45Z" id="d81x0BEDG"></path><path d="M442.93 362.05L444.71 362.23L446.47 362.48L448.2 362.81L449.92 363.2L451.6 363.66L453.26 364.19L454.89 364.78L456.5 365.43L458.06 366.14L459.6 366.92L461.1 367.75L462.57 368.63L464 369.58L465.39 370.57L466.74 371.62L468.05 372.72L469.31 373.87L470.54 375.07L471.71 376.31L472.84 377.6L473.92 378.94L474.95 380.31L475.93 381.73L476.85 383.18L477.73 384.67L478.54 386.2L479.3 387.77L480 389.37L480.64 391L481.22 392.66L481.74 394.35L482.19 396.06L482.57 397.81L482.89 399.58L483.14 401.37L483.33 403.18L483.43 405.02L483.47 406.87L483.43 408.73L483.33 410.56L483.14 412.38L482.89 414.17L482.57 415.94L482.19 417.68L481.74 419.4L481.22 421.09L480.64 422.75L480 424.38L479.3 425.98L478.54 427.54L477.73 429.07L476.85 430.57L475.93 432.02L474.95 433.44L473.92 434.81L472.84 436.14L471.71 437.43L470.54 438.68L469.31 439.87L468.05 441.02L466.74 442.12L465.39 443.17L464 444.17L462.57 445.11L461.1 446L459.6 446.83L458.06 447.6L456.5 448.32L454.89 448.97L453.26 449.56L451.6 450.08L449.92 450.54L448.2 450.94L446.47 451.26L444.71 451.52L442.93 451.7L441.12 451.81L439.3 451.85L437.48 451.81L435.68 451.7L433.9 451.52L432.14 451.26L430.4 450.94L428.69 450.54L427 450.08L425.34 449.56L423.71 448.97L422.11 448.32L420.54 447.6L419 446.83L417.5 446L416.04 445.11L414.61 444.17L413.22 443.17L411.87 442.12L410.56 441.02L409.29 439.87L408.07 438.68L406.89 437.43L405.77 436.14L404.69 434.81L403.66 433.44L402.68 432.02L401.75 430.57L400.88 429.07L400.06 427.54L399.3 425.98L398.6 424.38L397.96 422.75L397.39 421.09L396.87 419.4L396.42 417.68L396.03 415.94L395.71 414.17L395.46 412.38L395.28 410.56L395.17 408.73L395.13 406.87L395.17 405.02L395.28 403.18L395.46 401.37L395.71 399.58L396.03 397.81L396.42 396.06L396.87 394.35L397.39 392.66L397.96 391L398.6 389.37L399.3 387.77L400.06 386.2L400.88 384.67L401.75 383.18L402.68 381.73L403.66 380.31L404.69 378.94L405.77 377.6L406.89 376.31L408.07 375.07L409.29 373.87L410.56 372.72L411.87 371.62L413.22 370.57L414.61 369.58L416.04 368.63L417.5 367.75L419 366.92L420.54 366.14L422.11 365.43L423.71 364.78L425.34 364.19L427 363.66L428.69 363.2L430.4 362.81L432.14 362.48L433.9 362.23L435.68 362.05L437.48 361.93L439.3 361.9L441.12 361.93L442.93 362.05Z" id="f1x77f76xe"></path><path d="M441.97 384.55L443.27 384.75L444.55 385.02L445.79 385.37L447.01 385.79L448.19 386.28L449.34 386.84L450.45 387.45L451.52 388.14L452.55 388.88L453.53 389.67L454.47 390.53L455.36 391.43L456.19 392.38L456.98 393.39L457.7 394.43L458.37 395.52L458.98 396.65L459.52 397.82L460 399.03L460.42 400.26L460.76 401.53L461.03 402.83L461.23 404.15L461.35 405.5L461.39 406.87L461.35 408.24L461.23 409.59L461.03 410.92L460.76 412.21L460.42 413.48L460 414.72L459.52 415.92L458.98 417.09L458.37 418.22L457.7 419.31L456.98 420.36L456.19 421.36L455.36 422.32L454.47 423.22L453.53 424.07L452.55 424.87L451.52 425.61L450.45 426.29L449.34 426.91L448.19 427.47L447.01 427.96L445.79 428.38L444.55 428.72L443.27 429L441.97 429.2L440.65 429.32L439.3 429.36L437.96 429.32L436.63 429.2L435.33 429L434.06 428.72L432.81 428.38L431.6 427.96L430.41 427.47L429.27 426.91L428.16 426.29L427.09 425.61L426.06 424.87L425.07 424.07L424.14 423.22L423.25 422.32L422.41 421.36L421.63 420.36L420.9 419.31L420.23 418.22L419.62 417.09L419.08 415.92L418.6 414.72L418.19 413.48L417.84 412.21L417.57 410.92L417.38 409.59L417.26 408.24L417.22 406.87L417.26 405.5L417.38 404.15L417.57 402.83L417.84 401.53L418.19 400.26L418.6 399.03L419.08 397.82L419.62 396.65L420.23 395.52L420.9 394.43L421.63 393.39L422.41 392.38L423.25 391.43L424.14 390.53L425.07 389.67L426.06 388.88L427.09 388.14L428.16 387.45L429.27 386.84L430.41 386.28L431.6 385.79L432.81 385.37L434.06 385.02L435.33 384.75L436.63 384.55L437.96 384.43L439.3 384.38L440.65 384.43L441.97 384.55Z" id="c4qg55MJWw"></path><path d="M374.98 216.07L375.84 216.48L376.61 217.04L377.27 217.72L377.82 218.5L378.22 219.38L378.48 220.33L378.57 221.34L378.48 222.35L378.22 223.3L377.82 224.18L377.27 224.96L376.61 225.64L375.84 226.19L374.98 226.61L374.04 226.87L373.05 226.96L367.53 226.96L366.54 226.87L365.6 226.61L364.74 226.19L363.97 225.64L363.31 224.96L362.76 224.18L362.35 223.3L362.1 222.35L362.01 221.34L362.1 220.33L362.35 219.38L362.76 218.5L363.31 217.72L363.97 217.04L364.74 216.48L365.6 216.07L366.54 215.81L367.53 215.72L373.05 215.72L374.04 215.81L374.98 216.07Z" id="cyi6lDucq"></path><path d="M346.3 215.78L346.71 215.86L347.11 215.98L347.5 216.12L347.87 216.29L348.23 216.48L348.57 216.7L348.9 216.95L349.2 217.22L349.49 217.51L349.75 217.82L349.99 218.15L350.21 218.5L350.4 218.87L350.57 219.25L350.71 219.64L350.82 220.05L350.9 220.47L350.95 220.9L350.96 221.34L350.95 221.78L350.9 222.21L350.82 222.63L350.71 223.03L350.57 223.43L350.4 223.81L350.21 224.18L349.99 224.52L349.75 224.85L349.49 225.17L349.2 225.46L348.9 225.73L348.57 225.97L348.23 226.19L347.87 226.39L347.5 226.56L347.11 226.7L346.71 226.81L346.3 226.89L345.87 226.94L345.44 226.96L308.84 226.96L308.41 226.94L307.98 226.89L307.57 226.81L307.17 226.7L306.78 226.56L306.41 226.39L306.05 226.19L305.71 225.97L305.38 225.73L305.08 225.46L304.79 225.17L304.53 224.85L304.29 224.52L304.07 224.18L303.88 223.81L303.71 223.43L303.57 223.03L303.46 222.63L303.38 222.21L303.33 221.78L303.32 221.34L303.33 220.9L303.38 220.47L303.46 220.05L303.57 219.64L303.71 219.25L303.88 218.87L304.07 218.5L304.29 218.15L304.53 217.82L304.79 217.51L305.08 217.22L305.38 216.95L305.71 216.7L306.05 216.48L306.41 216.29L306.78 216.12L307.17 215.98L307.57 215.86L307.98 215.78L308.41 215.73L308.84 215.72L345.44 215.72L345.87 215.73L346.3 215.78Z" id="clg1eRD7Z"></path><path d="M357.03 243.85L357.3 243.89L357.57 243.93L357.83 243.99L358.08 244.06L358.33 244.15L358.57 244.24L358.81 244.35L359.05 244.47L359.27 244.59L359.49 244.73L359.7 244.88L359.91 245.04L360.11 245.21L360.3 245.38L360.48 245.57L360.65 245.76L360.82 245.96L360.97 246.17L361.12 246.39L361.25 246.61L361.38 246.84L361.49 247.08L361.6 247.32L361.69 247.57L361.77 247.82L361.84 248.08L361.9 248.35L361.95 248.62L361.98 248.89L362 249.17L362.01 249.45L362 249.73L361.98 250.01L361.95 250.28L361.9 250.55L361.84 250.81L361.77 251.07L361.69 251.33L361.6 251.58L361.49 251.82L361.38 252.06L361.25 252.29L361.12 252.51L360.97 252.73L360.82 252.94L360.65 253.14L360.48 253.33L360.3 253.52L360.11 253.69L359.91 253.86L359.7 254.02L359.49 254.17L359.27 254.3L359.05 254.43L358.81 254.55L358.57 254.65L358.33 254.75L358.08 254.83L357.83 254.9L357.57 254.96L357.3 255.01L357.03 255.04L356.76 255.06L356.49 255.07L290.73 255.07L290.45 255.06L290.18 255.04L289.91 255.01L289.65 254.96L289.39 254.9L289.13 254.83L288.88 254.75L288.64 254.65L288.4 254.55L288.17 254.43L287.94 254.3L287.72 254.17L287.51 254.02L287.3 253.86L287.11 253.69L286.92 253.52L286.74 253.33L286.56 253.14L286.4 252.94L286.24 252.73L286.1 252.51L285.96 252.29L285.84 252.06L285.72 251.82L285.62 251.58L285.52 251.33L285.44 251.07L285.37 250.81L285.31 250.55L285.27 250.28L285.23 250.01L285.21 249.73L285.21 249.45L285.21 249.17L285.23 248.89L285.27 248.62L285.31 248.35L285.37 248.08L285.44 247.82L285.52 247.57L285.62 247.32L285.72 247.08L285.84 246.84L285.96 246.61L286.1 246.39L286.24 246.17L286.4 245.96L286.56 245.76L286.74 245.57L286.92 245.38L287.11 245.21L287.3 245.04L287.51 244.88L287.72 244.73L287.94 244.59L288.17 244.47L288.4 244.35L288.64 244.24L288.88 244.15L289.13 244.06L289.39 243.99L289.65 243.93L289.91 243.89L290.18 243.85L290.45 243.83L290.73 243.83L356.49 243.83L356.76 243.83L357.03 243.85Z" id="baEEDC3BA"></path><path d="M234.5 163.08C224.34 158.33 218.69 155.69 217.56 155.16C216.83 154.82 215.99 154.82 215.26 155.17C214.53 155.51 213.98 156.16 213.76 156.95C210.99 166.8 188.82 245.64 186.04 255.49C182.96 266.06 187.97 277.32 197.8 281.92C199.63 282.78 214.28 289.63 216.12 290.49C225.96 295.08 237.63 291.59 243.47 282.31C248.99 273.39 293.19 202.09 298.71 193.17C299.16 192.49 299.28 191.64 299.06 190.86C298.84 190.07 298.29 189.42 297.56 189.08C296.4 188.54 290.59 185.83 280.14 180.95L289.34 160.51C301.54 166.21 308.32 169.37 309.68 170.01C315.45 172.72 319.76 177.88 321.48 184.11C323.21 190.39 322.21 197.13 318.72 202.6C313.02 211.8 267.4 285.33 261.69 294.52C250 313.12 226.64 320.12 206.92 310.92C205.09 310.07 190.43 303.23 188.6 302.37C168.89 293.15 158.85 270.57 165.06 249.4C167.92 239.23 190.8 157.86 193.66 147.69C195.46 141.41 199.83 136.23 205.65 133.46C211.42 130.71 218.08 130.68 223.87 133.37C225.19 133.98 231.8 137.07 243.71 142.63" id="c9LWOlZvNO"></path><path d="M245.07 143.33L245.91 143.87L246.68 144.47L247.39 145.14L248.03 145.85L248.61 146.62L249.12 147.43L249.56 148.28L249.92 149.17L250.21 150.08L250.43 151.02L250.56 151.97L250.62 152.94L250.59 153.91L250.48 154.89L250.28 155.86L249.99 156.82L249.61 157.77L249.15 158.68L248.62 159.53L248.03 160.32L247.38 161.04L246.67 161.7L245.92 162.29L245.12 162.81L244.28 163.25L243.42 163.62L242.52 163.92L241.6 164.14L240.67 164.27L239.72 164.33L238.76 164.3L237.8 164.18L236.85 163.98L235.9 163.69L234.97 163.3L218.19 155.47L227.4 135.03L244.18 142.86L245.07 143.33Z" id="a275tQA0K9"></path><path d="M286.51 159.63L287.47 159.83L288.41 160.12L289.35 160.51L305.91 168.24L296.7 188.68L280.14 180.95L279.25 180.48L278.41 179.95L277.64 179.34L276.93 178.68L276.28 177.96L275.7 177.19L275.19 176.38L274.76 175.53L274.39 174.64L274.1 173.73L273.89 172.8L273.75 171.84L273.7 170.88L273.73 169.9L273.84 168.93L274.04 167.96L274.33 166.99L274.71 166.04L275.17 165.13L275.7 164.28L276.29 163.49L276.94 162.77L277.65 162.11L278.4 161.53L279.2 161.01L280.03 160.56L280.9 160.19L281.8 159.89L282.72 159.68L283.65 159.54L284.6 159.48L285.56 159.51L286.51 159.63Z" id="d2iswvz3dn"></path></defs><g><g><g><use xlink:href="#bMTbqqH7r" opacity="1" fill="#ffffff" fill-opacity="1"></use><g><use xlink:href="#bMTbqqH7r" opacity="1" fill-opacity="0" stroke="#992825" stroke-width="10" stroke-opacity="1"></use></g></g><g><use xlink:href="#a58OkU5IpJ" opacity="1" fill="#7f8c8d" fill-opacity="1"></use><g><use xlink:href="#a58OkU5IpJ" opacity="1" fill-opacity="0" stroke="#000000" stroke-width="1" stroke-opacity="0"></use></g></g><g><use xlink:href="#a124Kjy2jO" opacity="1" fill="#7f8c8d" fill-opacity="1"></use><g><use xlink:href="#a124Kjy2jO" opacity="1" fill-opacity="0" stroke="#000000" stroke-width="1" stroke-opacity="0"></use></g></g><g><use xlink:href="#gU2okBQfw" opacity="1" fill="#464f5d" fill-opacity="1"></use><g><use xlink:href="#gU2okBQfw" opacity="1" fill-opacity="0" stroke="#000000" stroke-width="1" stroke-opacity="0"></use></g></g><g><use xlink:href="#g6C94Kt05A" opacity="1" fill="#464f5d" fill-opacity="1"></use><g><use xlink:href="#g6C94Kt05A" opacity="1" fill-opacity="0" stroke="#000000" stroke-width="1" stroke-opacity="0"></use></g></g><g><use xlink:href="#b2vuWbteqR" opacity="1" fill="#90bae1" fill-opacity="1"></use><g><use xlink:href="#b2vuWbteqR" opacity="1" fill-opacity="0" stroke="#000000" stroke-width="1" stroke-opacity="0"></use></g></g><g><use xlink:href="#d2h9BgnRZ" opacity="1" fill="#b0d3f0" fill-opacity="1"></use><g><use xlink:href="#d2h9BgnRZ" opacity="1" fill-opacity="0" stroke="#000000" stroke-width="1" stroke-opacity="0"></use></g></g><g><use xlink:href="#d7extGaxHr" opacity="1" fill="#bdc3c7" fill-opacity="1"></use><g><use xlink:href="#d7extGaxHr" opacity="1" fill-opacity="0" stroke="#000000" stroke-width="1" stroke-opacity="0"></use></g></g><g><use xlink:href="#d81x0BEDG" opacity="1" fill="#c03a2b" fill-opacity="1"></use><g><use xlink:href="#d81x0BEDG" opacity="1" fill-opacity="0" stroke="#000000" stroke-width="1" stroke-opacity="0"></use></g></g><g><use xlink:href="#f1x77f76xe" opacity="1" fill="#d1d4d1" fill-opacity="1"></use><g><use xlink:href="#f1x77f76xe" opacity="1" fill-opacity="0" stroke="#000000" stroke-width="1" stroke-opacity="0"></use></g></g><g><use xlink:href="#c4qg55MJWw" opacity="1" fill="#95a5a5" fill-opacity="1"></use><g><use xlink:href="#c4qg55MJWw" opacity="1" fill-opacity="0" stroke="#000000" stroke-width="1" stroke-opacity="0"></use></g></g><g><use xlink:href="#cyi6lDucq" opacity="1" fill="#ffffff" fill-opacity="1"></use><g><use xlink:href="#cyi6lDucq" opacity="1" fill-opacity="0" stroke="#000000" stroke-width="1" stroke-opacity="0"></use></g></g><g><use xlink:href="#clg1eRD7Z" opacity="1" fill="#ffffff" fill-opacity="1"></use><g><use xlink:href="#clg1eRD7Z" opacity="1" fill-opacity="0" stroke="#000000" stroke-width="1" stroke-opacity="0"></use></g></g><g><use xlink:href="#baEEDC3BA" opacity="1" fill="#ffffff" fill-opacity="1"></use><g><use xlink:href="#baEEDC3BA" opacity="1" fill-opacity="0" stroke="#000000" stroke-width="1" stroke-opacity="0"></use></g></g><g><use xlink:href="#c9LWOlZvNO" opacity="1" fill="#95a5a5" fill-opacity="1"></use><g><use xlink:href="#c9LWOlZvNO" opacity="1" fill-opacity="0" stroke="#000000" stroke-width="1" stroke-opacity="0"></use></g></g><g><use xlink:href="#a275tQA0K9" opacity="1" fill="#e4c05c" fill-opacity="1"></use><g><use xlink:href="#a275tQA0K9" opacity="1" fill-opacity="0" stroke="#000000" stroke-width="1" stroke-opacity="0"></use></g></g><g><use xlink:href="#d2iswvz3dn" opacity="1" fill="#e4c05c" fill-opacity="1"></use><g><use xlink:href="#d2iswvz3dn" opacity="1" fill-opacity="0" stroke="#000000" stroke-width="1" stroke-opacity="0"></use></g></g></g></g></svg>