<?xml version="1.0" encoding="UTF-8" standalone="no"?>
<!DOCTYPE svg PUBLIC "-//W3C//DTD SVG 1.1//EN" "http://www.w3.org/Graphics/SVG/1.1/DTD/svg11.dtd">
<svg version="1.1" xmlns="http://www.w3.org/2000/svg" xmlns:xlink="http://www.w3.org/1999/xlink" preserveAspectRatio="xMidYMid meet" viewBox="0 0 640 640" width="640" height="640"><defs><path d="M580.14 309.87C580.14 447.85 468.12 559.87 330.14 559.87C192.16 559.87 80.14 447.85 80.14 309.87C80.14 171.89 192.16 59.87 330.14 59.87C468.12 59.87 580.14 171.89 580.14 309.87Z" id="gjPFmYBOl"></path><path d="M374.98 216.07L375.84 216.48L376.61 217.04L377.27 217.72L377.82 218.5L378.22 219.38L378.48 220.33L378.57 221.34L378.48 222.35L378.22 223.3L377.82 224.18L377.27 224.96L376.61 225.64L375.84 226.19L374.98 226.61L374.04 226.87L373.05 226.96L367.53 226.96L366.54 226.87L365.6 226.61L364.74 226.19L363.97 225.64L363.31 224.96L362.76 224.18L362.35 223.3L362.1 222.35L362.01 221.34L362.1 220.33L362.35 219.38L362.76 218.5L363.31 217.72L363.97 217.04L364.74 216.48L365.6 216.07L366.54 215.81L367.53 215.72L373.05 215.72L374.04 215.81L374.98 216.07Z" id="b59zuWW1Kp"></path><path d="M346.3 215.78L346.71 215.86L347.11 215.98L347.5 216.12L347.87 216.29L348.23 216.48L348.57 216.7L348.9 216.95L349.2 217.22L349.49 217.51L349.75 217.82L349.99 218.15L350.21 218.5L350.4 218.87L350.57 219.25L350.71 219.64L350.82 220.05L350.9 220.47L350.95 220.9L350.96 221.34L350.95 221.78L350.9 222.21L350.82 222.63L350.71 223.03L350.57 223.43L350.4 223.81L350.21 224.18L349.99 224.52L349.75 224.85L349.49 225.17L349.2 225.46L348.9 225.73L348.57 225.97L348.23 226.19L347.87 226.39L347.5 226.56L347.11 226.7L346.71 226.81L346.3 226.89L345.87 226.94L345.44 226.96L308.84 226.96L308.41 226.94L307.98 226.89L307.57 226.81L307.17 226.7L306.78 226.56L306.41 226.39L306.05 226.19L305.71 225.97L305.38 225.73L305.08 225.46L304.79 225.17L304.53 224.85L304.29 224.52L304.07 224.18L303.88 223.81L303.71 223.43L303.57 223.03L303.46 222.63L303.38 222.21L303.33 221.78L303.32 221.34L303.33 220.9L303.38 220.47L303.46 220.05L303.57 219.64L303.71 219.25L303.88 218.87L304.07 218.5L304.29 218.15L304.53 217.82L304.79 217.51L305.08 217.22L305.38 216.95L305.71 216.7L306.05 216.48L306.41 216.29L306.78 216.12L307.17 215.98L307.57 215.86L307.98 215.78L308.41 215.73L308.84 215.72L345.44 215.72L345.87 215.73L346.3 215.78Z" id="b5MFza2v1O"></path><path d="M357.03 243.85L357.3 243.89L357.57 243.93L357.83 243.99L358.08 244.06L358.33 244.15L358.57 244.24L358.81 244.35L359.05 244.47L359.27 244.59L359.49 244.73L359.7 244.88L359.91 245.04L360.11 245.21L360.3 245.38L360.48 245.57L360.65 245.76L360.82 245.96L360.97 246.17L361.12 246.39L361.25 246.61L361.38 246.84L361.49 247.08L361.6 247.32L361.69 247.57L361.77 247.82L361.84 248.08L361.9 248.35L361.95 248.62L361.98 248.89L362 249.17L362.01 249.45L362 249.73L361.98 250.01L361.95 250.28L361.9 250.55L361.84 250.81L361.77 251.07L361.69 251.33L361.6 251.58L361.49 251.82L361.38 252.06L361.25 252.29L361.12 252.51L360.97 252.73L360.82 252.94L360.65 253.14L360.48 253.33L360.3 253.52L360.11 253.69L359.91 253.86L359.7 254.02L359.49 254.17L359.27 254.3L359.05 254.43L358.81 254.55L358.57 254.65L358.33 254.75L358.08 254.83L357.83 254.9L357.57 254.96L357.3 255.01L357.03 255.04L356.76 255.06L356.49 255.07L290.73 255.07L290.45 255.06L290.18 255.04L289.91 255.01L289.65 254.96L289.39 254.9L289.13 254.83L288.88 254.75L288.64 254.65L288.4 254.55L288.17 254.43L287.94 254.3L287.72 254.17L287.51 254.02L287.3 253.86L287.11 253.69L286.92 253.52L286.74 253.33L286.56 253.14L286.4 252.94L286.24 252.73L286.1 252.51L285.96 252.29L285.84 252.06L285.72 251.82L285.62 251.58L285.52 251.33L285.44 251.07L285.37 250.81L285.31 250.55L285.27 250.28L285.23 250.01L285.21 249.73L285.21 249.45L285.21 249.17L285.23 248.89L285.27 248.62L285.31 248.35L285.37 248.08L285.44 247.82L285.52 247.57L285.62 247.32L285.72 247.08L285.84 246.84L285.96 246.61L286.1 246.39L286.24 246.17L286.4 245.96L286.56 245.76L286.74 245.57L286.92 245.38L287.11 245.21L287.3 245.04L287.51 244.88L287.72 244.73L287.94 244.59L288.17 244.47L288.4 244.35L288.64 244.24L288.88 244.15L289.13 244.06L289.39 243.99L289.65 243.93L289.91 243.89L290.18 243.85L290.45 243.83L290.73 243.83L356.49 243.83L356.76 243.83L357.03 243.85Z" id="a16EvB3tSC"></path><path d="M473.89 209.77L475.17 209.91L476.43 210.1L477.67 210.34L478.88 210.63L480.07 210.97L481.24 211.36L482.38 211.79L483.49 212.27L484.57 212.79L485.61 213.35L486.63 213.95L487.61 214.59L488.55 215.28L489.46 215.99L490.33 216.74L491.15 217.53L491.94 218.35L492.68 219.2L493.37 220.08L494.02 220.99L494.62 221.93L495.17 222.89L495.67 223.88L496.11 224.89L496.5 225.92L496.84 226.98L497.12 228.05L497.33 229.14L497.49 230.25L497.59 231.38L497.62 232.52L497.62 247.75L497.61 248.13L497.58 248.51L497.53 248.88L497.45 249.24L497.36 249.6L497.25 249.96L497.12 250.3L496.97 250.64L496.8 250.97L496.62 251.29L496.42 251.6L496.21 251.9L495.98 252.2L495.73 252.48L495.47 252.75L495.19 253.02L494.9 253.27L494.6 253.5L494.29 253.73L493.96 253.94L493.62 254.15L493.27 254.33L492.91 254.51L492.54 254.66L492.16 254.81L491.78 254.94L491.38 255.05L490.97 255.15L490.56 255.23L490.14 255.29L489.71 255.34L489.28 255.36L488.84 255.37L453.73 255.37L453.29 255.36L452.86 255.34L452.43 255.29L452.01 255.23L451.6 255.15L451.19 255.05L450.79 254.94L450.4 254.81L450.02 254.66L449.65 254.51L449.29 254.33L448.95 254.15L448.61 253.94L448.28 253.73L447.97 253.5L447.66 253.27L447.38 253.02L447.1 252.75L446.84 252.48L446.59 252.2L446.36 251.9L446.15 251.6L445.95 251.29L445.76 250.97L445.6 250.64L445.45 250.3L445.32 249.96L445.21 249.6L445.12 249.24L445.04 248.88L444.99 248.51L444.96 248.13L444.95 247.75L444.95 232.52L444.98 231.38L445.08 230.25L445.23 229.14L445.45 228.05L445.73 226.98L446.07 225.92L446.46 224.89L446.9 223.88L447.4 222.89L447.95 221.93L448.55 220.99L449.2 220.08L449.89 219.2L450.63 218.35L451.42 217.53L452.24 216.74L453.11 215.99L454.02 215.28L454.96 214.59L455.94 213.95L456.95 213.35L458 212.79L459.08 212.27L460.19 211.79L461.33 211.36L462.5 210.97L463.69 210.63L464.9 210.34L466.14 210.1L467.4 209.91L468.68 209.77L469.97 209.69L471.28 209.66L472.6 209.69L473.89 209.77Z" id="c4IbAtK5OA"></path><path d="M473.05 164.11L473.9 164.29L474.7 164.55L475.47 164.87L476.19 165.25L476.87 165.69L477.49 166.18L478.06 166.72L478.56 167.31L479 167.94L479.37 168.6L479.67 169.3L479.88 170.03L480.02 170.79L480.06 171.57L480.06 186.81L480.02 187.59L479.88 188.34L479.67 189.07L479.37 189.77L479 190.44L478.56 191.07L478.06 191.65L477.49 192.2L476.87 192.69L476.19 193.13L475.47 193.51L474.7 193.83L473.9 194.08L473.05 194.27L472.18 194.39L471.28 194.43L470.39 194.39L469.51 194.27L468.67 194.08L467.87 193.83L467.1 193.51L466.37 193.13L465.7 192.69L465.08 192.2L464.51 191.65L464 191.07L463.56 190.44L463.19 189.77L462.9 189.07L462.68 188.34L462.55 187.59L462.51 186.81L462.51 171.57L462.55 170.79L462.68 170.03L462.9 169.3L463.19 168.6L463.56 167.94L464 167.31L464.51 166.72L465.08 166.18L465.7 165.69L466.37 165.25L467.1 164.87L467.87 164.55L468.67 164.29L469.51 164.11L470.39 163.99L471.28 163.95L472.18 163.99L473.05 164.11Z" id="bbJAAEeEm"></path><path d="M522.62 181.94L523.45 182.11L524.25 182.36L525.03 182.67L525.78 183.06L526.49 183.51L527.15 184.03L527.76 184.61L528.28 185.23L528.72 185.88L529.08 186.55L529.37 187.25L529.57 187.96L529.69 188.69L529.73 189.42L529.69 190.15L529.57 190.87L529.37 191.59L529.08 192.28L528.72 192.96L528.28 193.61L527.76 194.23L527.15 194.8L514.73 205.59L514.4 205.86L514.07 206.11L513.72 206.34L513.35 206.56L512.99 206.76L512.61 206.95L512.22 207.11L511.83 207.26L511.43 207.39L511.02 207.5L510.62 207.6L510.2 207.68L509.79 207.74L509.37 207.78L508.95 207.81L508.53 207.82L508.1 207.81L507.68 207.78L507.27 207.74L506.85 207.68L506.44 207.6L506.03 207.5L505.62 207.39L505.22 207.26L504.83 207.11L504.44 206.95L504.07 206.76L503.7 206.56L503.34 206.34L502.99 206.11L502.65 205.86L502.32 205.59L501.72 205.01L501.19 204.39L500.75 203.74L500.39 203.07L500.11 202.37L499.91 201.65L499.79 200.93L499.75 200.2L499.79 199.47L499.91 198.74L500.11 198.03L500.39 197.33L500.75 196.66L501.19 196.01L501.72 195.39L502.32 194.81L514.74 184.03L515.41 183.51L516.12 183.06L516.87 182.67L517.65 182.36L518.45 182.11L519.27 181.94L520.11 181.83L520.95 181.8L521.79 181.83L522.62 181.94Z" id="a1f2s7JJnw"></path><path d="M423.3 181.94L424.12 182.11L424.92 182.36L425.7 182.67L426.45 183.06L427.16 183.51L427.83 184.03L440.25 194.81L440.85 195.39L441.38 196.01L441.82 196.66L442.18 197.33L442.46 198.03L442.66 198.74L442.78 199.47L442.82 200.2L442.78 200.93L442.66 201.65L442.46 202.37L442.18 203.07L441.82 203.74L441.38 204.39L440.85 205.01L440.25 205.59L439.92 205.86L439.58 206.11L439.23 206.34L438.87 206.56L438.5 206.76L438.12 206.95L437.74 207.11L437.35 207.26L436.95 207.39L436.54 207.5L436.13 207.6L435.72 207.68L435.3 207.74L434.88 207.78L434.46 207.81L434.04 207.82L433.62 207.81L433.2 207.78L432.78 207.74L432.37 207.68L431.95 207.6L431.54 207.5L431.14 207.39L430.74 207.26L430.35 207.11L429.96 206.95L429.58 206.76L429.21 206.56L428.85 206.34L428.5 206.11L428.16 205.86L427.84 205.59L415.41 194.8L414.81 194.23L414.29 193.61L413.85 192.96L413.48 192.28L413.2 191.59L413 190.87L412.88 190.15L412.84 189.42L412.88 188.69L413 187.96L413.2 187.25L413.48 186.55L413.85 185.88L414.29 185.23L414.81 184.61L415.41 184.03L416.08 183.51L416.79 183.06L417.54 182.67L418.32 182.36L419.12 182.11L419.94 181.94L420.78 181.83L421.62 181.8L422.46 181.83L423.3 181.94Z" id="b37iMmzAT5"></path><path d="M506.9 240.15L507.14 240.16L507.39 240.19L507.63 240.21L507.87 240.25L508.11 240.29L508.35 240.33L508.59 240.38L508.82 240.44L509.05 240.5L509.28 240.57L509.5 240.64L509.73 240.72L509.95 240.8L510.17 240.89L510.38 240.99L510.59 241.08L510.8 241.19L511.01 241.3L511.21 241.41L511.41 241.53L511.61 241.65L511.8 241.78L511.99 241.91L512.17 242.05L512.35 242.19L512.53 242.34L512.7 242.49L512.87 242.64L513.03 242.8L513.19 242.96L513.35 243.13L513.5 243.3L513.64 243.47L513.78 243.65L513.92 243.83L514.05 244.02L514.18 244.21L514.3 244.4L520.62 255.37L502.83 277.51L532.74 301.08L510.09 316.32L488.84 316.32L488.67 316.32L488.5 316.31L488.33 316.31L488.16 316.3L487.99 316.28L487.82 316.27L487.65 316.25L487.48 316.23L487.31 316.2L487.14 316.18L486.97 316.15L486.81 316.11L486.64 316.08L486.48 316.04L486.31 316L486.15 315.95L485.99 315.91L485.82 315.86L485.66 315.8L485.51 315.75L485.35 315.69L485.19 315.63L485.04 315.56L484.89 315.5L484.73 315.43L484.58 315.35L484.44 315.28L484.29 315.2L484.14 315.12L484 315.03L483.86 314.95L483.72 314.86L483.59 314.76L483.45 314.67L483.32 314.57L483.19 314.47L483.06 314.36L482.94 314.26L482.82 314.15L482.7 314.03L467.6 301.08L418.61 301.08L418.25 301.08L417.88 301.06L417.52 301.03L417.17 300.98L416.82 300.93L416.48 300.86L416.14 300.79L415.81 300.7L415.48 300.6L415.17 300.49L414.85 300.37L414.55 300.24L414.25 300.1L413.96 299.95L413.67 299.8L413.4 299.63L413.13 299.45L412.87 299.27L412.62 299.07L412.38 298.87L412.15 298.66L411.92 298.45L411.71 298.22L411.51 297.99L411.31 297.75L411.13 297.5L410.96 297.25L410.8 296.99L410.65 296.73L410.51 296.45L410.39 296.18L410.27 295.89L410.17 295.61L410.08 295.31L410.01 295.02L409.95 294.71L409.9 294.41L409.86 294.1L409.84 293.78L409.83 293.46L409.83 247.75L409.84 247.44L409.86 247.12L409.9 246.81L409.95 246.5L410.01 246.2L410.08 245.9L410.17 245.61L410.27 245.32L410.39 245.04L410.51 244.76L410.65 244.49L410.8 244.23L410.96 243.97L411.13 243.71L411.31 243.47L411.51 243.23L411.71 243L411.92 242.77L412.15 242.55L412.38 242.34L412.62 242.14L412.87 241.95L413.13 241.76L413.4 241.59L413.67 241.42L413.96 241.26L414.25 241.11L414.55 240.97L414.85 240.85L415.17 240.73L415.48 240.62L415.81 240.52L416.14 240.43L416.48 240.35L416.82 240.29L417.17 240.23L417.52 240.19L417.88 240.16L418.25 240.14L418.61 240.14L506.4 240.14L506.65 240.14L506.9 240.15Z" id="fB6LsHoe5"></path><path d="M531.9 274.96L531.94 275.05L531.99 275.14L532.03 275.23L532.07 275.32L532.11 275.41L532.14 275.5L532.18 275.59L532.22 275.68L532.25 275.77L532.29 275.86L532.32 275.95L532.35 276.04L532.38 276.13L532.41 276.22L532.44 276.31L532.47 276.4L532.49 276.49L532.52 276.59L532.54 276.68L532.56 276.77L532.59 276.86L532.61 276.96L532.62 277.05L532.64 277.15L532.66 277.24L532.67 277.34L532.69 277.44L532.7 277.53L532.71 277.63L532.72 277.73L532.72 277.83L532.73 277.93L532.73 278.03L532.73 278.13L532.74 278.23L532.74 301.08L492.53 301.08L480.06 290.26L480.06 255.37L520.62 255.37L531.86 274.87L531.9 274.96Z" id="bSbk0FwE6"></path><path d="M444.95 285.85L444.95 255.37L462.51 255.37L462.51 285.85L444.95 285.85Z" id="e8s76WXcnW"></path><path d="M532.74 301.08L532.74 331.56L523.96 339.65L532.74 346.79L532.74 354.41L532.71 355.35L532.65 356.29L532.54 357.21L532.39 358.12L532.2 359.02L531.97 359.91L531.7 360.78L531.4 361.64L531.05 362.49L530.67 363.32L530.25 364.13L529.8 364.92L529.32 365.7L528.8 366.46L528.25 367.2L527.66 367.92L527.05 368.62L526.41 369.29L525.73 369.95L525.03 370.58L524.3 371.19L523.55 371.77L522.77 372.33L521.97 372.86L521.14 373.37L520.28 373.85L519.41 374.3L518.51 374.72L517.6 375.11L516.66 375.47L515.71 375.8L514.73 376.1L513.74 376.37L512.74 376.6L511.72 376.8L510.68 376.97L509.63 377.1L508.56 377.19L507.49 377.25L506.4 377.27L427.39 377.27L409.83 361.57L409.83 293.46L409.84 293.15L409.86 292.83L409.9 292.52L409.95 292.21L410.01 291.91L410.08 291.61L410.17 291.32L410.27 291.03L410.39 290.75L410.51 290.47L410.65 290.2L410.8 289.94L410.96 289.68L411.13 289.42L411.31 289.18L411.51 288.94L411.71 288.71L411.92 288.48L412.15 288.26L412.38 288.05L412.62 287.85L412.87 287.66L413.13 287.47L413.4 287.3L413.67 287.13L413.96 286.97L414.25 286.82L414.55 286.68L414.85 286.56L415.17 286.44L415.48 286.33L415.81 286.23L416.14 286.14L416.48 286.06L416.82 286L417.17 285.94L417.52 285.9L417.88 285.87L418.25 285.85L418.61 285.85L480.06 285.85L492.53 301.08L532.74 301.08Z" id="ap1fsUbQo"></path><path d="M419.34 209.69L419.7 209.72L420.05 209.76L420.4 209.81L420.74 209.88L421.08 209.96L421.41 210.04L421.74 210.14L422.06 210.25L422.37 210.37L422.68 210.5L422.98 210.64L423.27 210.79L423.55 210.95L423.83 211.11L424.09 211.29L424.35 211.48L424.6 211.67L424.85 211.87L425.08 212.08L425.3 212.3L425.51 212.52L425.72 212.76L425.91 212.99L426.09 213.24L426.26 213.49L426.42 213.75L426.57 214.02L426.71 214.29L426.84 214.57L426.95 214.85L427.05 215.14L427.14 215.43L427.22 215.73L427.28 216.03L427.33 216.34L427.36 216.65L427.38 216.96L427.39 217.28L427.39 377.27L241.87 377.27L241.5 377.26L241.14 377.24L240.78 377.21L240.43 377.17L240.08 377.11L239.73 377.05L239.4 376.97L239.07 376.88L238.74 376.78L238.42 376.68L238.11 376.56L237.8 376.43L237.5 376.29L237.21 376.14L236.93 375.98L236.65 375.81L236.38 375.64L236.13 375.45L235.88 375.26L235.63 375.06L235.4 374.85L235.18 374.63L234.97 374.4L234.76 374.17L234.57 373.93L234.39 373.69L234.22 373.43L234.06 373.17L233.91 372.91L233.77 372.64L233.64 372.36L233.53 372.08L233.43 371.79L233.34 371.5L233.26 371.2L233.2 370.9L233.15 370.59L233.12 370.28L233.1 369.97L233.09 369.65L233.09 217.28L233.1 216.96L233.12 216.65L233.15 216.34L233.2 216.03L233.26 215.73L233.34 215.43L233.43 215.14L233.53 214.85L233.64 214.57L233.77 214.29L233.91 214.02L234.06 213.75L234.22 213.49L234.39 213.24L234.57 212.99L234.76 212.76L234.97 212.52L235.18 212.3L235.4 212.08L235.63 211.87L235.88 211.67L236.13 211.48L236.38 211.29L236.65 211.11L236.93 210.95L237.21 210.79L237.5 210.64L237.8 210.5L238.11 210.37L238.42 210.25L238.74 210.14L239.07 210.04L239.4 209.96L239.73 209.88L240.08 209.81L240.43 209.76L240.78 209.72L241.14 209.69L241.5 209.67L241.87 209.66L418.61 209.66L418.98 209.67L419.34 209.69Z" id="cTseEvx"></path><path d="M419.34 209.69L419.7 209.72L420.05 209.76L420.4 209.81L420.74 209.88L421.08 209.96L421.41 210.04L421.74 210.14L422.06 210.25L422.37 210.37L422.68 210.5L422.98 210.64L423.27 210.79L423.55 210.95L423.83 211.11L424.09 211.29L424.35 211.48L424.6 211.67L424.85 211.87L425.08 212.08L425.3 212.3L425.51 212.52L425.72 212.76L425.91 212.99L426.09 213.24L426.26 213.49L426.42 213.75L426.57 214.02L426.71 214.29L426.84 214.57L426.95 214.85L427.05 215.14L427.14 215.43L427.22 215.73L427.28 216.03L427.33 216.34L427.36 216.65L427.38 216.96L427.39 217.28L427.39 377.27L330.24 377.27L330.24 209.66L418.61 209.66L418.98 209.67L419.34 209.69Z" id="c6qMPGUqFf"></path><path d="M339.75 247.78L340.11 247.81L340.46 247.85L340.81 247.91L341.15 247.97L341.49 248.05L341.82 248.14L342.15 248.24L342.46 248.34L342.78 248.46L343.08 248.59L343.38 248.73L343.67 248.88L343.96 249.04L344.23 249.21L344.5 249.38L344.76 249.57L345.01 249.76L345.25 249.96L345.48 250.17L345.71 250.39L345.92 250.61L346.12 250.85L346.32 251.09L346.5 251.33L346.67 251.59L346.83 251.84L346.98 252.11L347.12 252.38L347.24 252.66L347.36 252.94L347.46 253.23L347.55 253.52L347.62 253.82L347.68 254.12L347.73 254.43L347.77 254.74L347.79 255.05L347.8 255.37L347.8 278.23L374.13 278.23L374.5 278.23L374.86 278.25L375.22 278.28L375.57 278.33L375.92 278.38L376.27 278.45L376.6 278.52L376.93 278.61L377.26 278.71L377.58 278.82L377.89 278.94L378.2 279.07L378.5 279.21L378.79 279.35L379.07 279.51L379.35 279.68L379.62 279.86L379.87 280.04L380.12 280.23L380.37 280.44L380.6 280.65L380.82 280.86L381.03 281.09L381.24 281.32L381.43 281.56L381.61 281.81L381.78 282.06L381.94 282.32L382.09 282.58L382.23 282.85L382.36 283.13L382.47 283.41L382.57 283.7L382.66 284L382.74 284.29L382.8 284.6L382.85 284.9L382.88 285.21L382.9 285.53L382.91 285.85L382.91 301.08L382.9 301.4L382.88 301.71L382.85 302.03L382.8 302.33L382.74 302.63L382.66 302.93L382.57 303.22L382.47 303.51L382.36 303.8L382.23 304.07L382.09 304.34L381.94 304.61L381.78 304.87L381.61 305.12L381.43 305.37L381.24 305.61L381.03 305.84L380.82 306.06L380.6 306.28L380.37 306.49L380.12 306.69L379.87 306.89L379.62 307.07L379.35 307.25L379.07 307.41L378.79 307.57L378.5 307.72L378.2 307.86L377.89 307.99L377.58 308.11L377.26 308.22L376.93 308.32L376.6 308.41L376.27 308.48L375.92 308.55L375.57 308.6L375.22 308.65L374.86 308.68L374.5 308.69L374.13 308.7L347.8 308.7L347.8 331.56L347.79 331.87L347.77 332.19L347.73 332.5L347.68 332.81L347.62 333.11L347.55 333.41L347.46 333.7L347.36 333.99L347.24 334.27L347.12 334.55L346.98 334.82L346.83 335.08L346.67 335.34L346.5 335.59L346.32 335.84L346.12 336.08L345.92 336.31L345.71 336.54L345.48 336.75L345.25 336.96L345.01 337.17L344.76 337.36L344.5 337.54L344.23 337.72L343.96 337.89L343.67 338.05L343.38 338.2L343.08 338.33L342.78 338.46L342.46 338.58L342.15 338.69L341.82 338.79L341.49 338.88L341.15 338.96L340.81 339.02L340.46 339.08L340.11 339.12L339.75 339.15L339.38 339.17L339.02 339.17L321.46 339.17L321.09 339.17L320.73 339.15L320.37 339.12L320.02 339.08L319.67 339.02L319.33 338.96L318.99 338.88L318.66 338.79L318.33 338.69L318.01 338.58L317.7 338.46L317.4 338.33L317.1 338.2L316.81 338.05L316.52 337.89L316.25 337.72L315.98 337.54L315.72 337.36L315.47 337.17L315.23 336.96L314.99 336.75L314.77 336.54L314.56 336.31L314.36 336.08L314.16 335.84L313.98 335.59L313.81 335.34L313.65 335.08L313.5 334.82L313.36 334.55L313.24 334.27L313.12 333.99L313.02 333.7L312.93 333.41L312.86 333.11L312.8 332.81L312.75 332.5L312.71 332.19L312.69 331.87L312.68 331.56L312.68 308.7L286.35 308.7L285.98 308.69L285.62 308.68L285.26 308.65L284.91 308.6L284.56 308.55L284.21 308.48L283.88 308.41L283.54 308.32L283.22 308.22L282.9 308.11L282.59 307.99L282.28 307.86L281.98 307.72L281.69 307.57L281.41 307.41L281.13 307.25L280.86 307.07L280.6 306.89L280.35 306.69L280.11 306.49L279.88 306.28L279.66 306.06L279.44 305.84L279.24 305.61L279.05 305.37L278.87 305.12L278.69 304.87L278.53 304.61L278.38 304.34L278.25 304.07L278.12 303.8L278.01 303.51L277.91 303.22L277.82 302.93L277.74 302.63L277.68 302.33L277.63 302.03L277.6 301.71L277.57 301.4L277.57 301.08L277.57 285.85L277.57 285.53L277.6 285.21L277.63 284.9L277.68 284.6L277.74 284.29L277.82 284L277.91 283.7L278.01 283.41L278.12 283.13L278.25 282.85L278.38 282.58L278.53 282.32L278.69 282.06L278.87 281.81L279.05 281.56L279.24 281.32L279.44 281.09L279.66 280.86L279.88 280.65L280.11 280.44L280.35 280.23L280.6 280.04L280.86 279.86L281.13 279.68L281.41 279.51L281.69 279.35L281.98 279.21L282.28 279.07L282.59 278.94L282.9 278.82L283.22 278.71L283.54 278.61L283.88 278.52L284.21 278.45L284.56 278.38L284.91 278.33L285.26 278.28L285.62 278.25L285.98 278.23L286.35 278.23L312.68 278.23L312.68 255.37L312.69 255.05L312.71 254.74L312.75 254.43L312.8 254.12L312.86 253.82L312.93 253.52L313.02 253.23L313.12 252.94L313.24 252.66L313.36 252.38L313.5 252.11L313.65 251.84L313.81 251.59L313.98 251.33L314.16 251.09L314.36 250.85L314.56 250.61L314.77 250.39L314.99 250.17L315.23 249.96L315.47 249.76L315.72 249.57L315.98 249.38L316.25 249.21L316.52 249.04L316.81 248.88L317.1 248.73L317.4 248.59L317.7 248.46L318.01 248.34L318.33 248.24L318.66 248.14L318.99 248.05L319.33 247.97L319.67 247.91L320.02 247.85L320.37 247.81L320.73 247.78L321.09 247.76L321.46 247.75L339.02 247.75L339.38 247.76L339.75 247.78Z" id="a2qRrak1au"></path><path d="M506.4 346.79L505.59 346.76L504.8 346.67L504.04 346.52L503.31 346.32L502.61 346.07L501.94 345.77L501.31 345.41L500.71 345.02L500.17 344.58L499.66 344.11L499.21 343.59L498.8 343.04L498.45 342.47L498.16 341.86L497.93 341.22L497.76 340.56L497.66 339.88L497.62 339.17L497.66 338.47L497.76 337.79L497.93 337.13L498.16 336.49L498.45 335.88L498.8 335.3L499.21 334.75L499.66 334.24L500.17 333.76L500.71 333.33L501.31 332.93L501.94 332.58L502.61 332.28L503.31 332.03L504.04 331.82L504.8 331.68L505.59 331.59L506.4 331.56L532.74 331.56L532.74 346.79L506.4 346.79Z" id="b1IvyC8uA8"></path><path d="M465.38 346.89L466.8 347.02L468.19 347.19L469.57 347.41L470.94 347.68L472.28 347.99L473.59 348.35L474.89 348.75L476.16 349.19L477.41 349.67L478.63 350.2L479.82 350.76L480.99 351.36L482.13 352L483.23 352.68L484.31 353.39L485.35 354.14L486.35 354.92L487.33 355.73L488.26 356.57L489.16 357.44L490.02 358.35L490.84 359.28L491.62 360.24L492.35 361.22L493.05 362.24L493.7 363.27L494.3 364.33L494.86 365.41L495.37 366.52L495.83 367.64L496.24 368.79L496.6 369.95L496.91 371.13L497.16 372.33L497.36 373.54L497.5 374.77L497.59 376.01L497.62 377.27L497.59 378.52L497.5 379.76L497.36 380.99L497.16 382.2L496.91 383.4L496.6 384.58L496.24 385.74L495.83 386.89L495.37 388.01L494.86 389.12L494.3 390.2L493.7 391.26L493.05 392.3L492.35 393.31L491.62 394.29L490.84 395.25L490.02 396.18L489.16 397.09L488.26 397.96L487.33 398.8L486.35 399.62L485.35 400.4L484.31 401.14L483.23 401.85L482.13 402.53L480.99 403.17L479.82 403.77L478.63 404.33L477.41 404.86L476.16 405.34L474.89 405.78L473.59 406.18L472.28 406.54L470.94 406.85L469.57 407.12L468.19 407.34L466.8 407.51L465.38 407.64L463.95 407.71L462.51 407.74L461.06 407.71L459.63 407.64L458.21 407.51L456.82 407.34L455.44 407.12L454.08 406.85L452.74 406.54L451.42 406.18L450.12 405.78L448.85 405.34L447.6 404.86L446.38 404.33L445.19 403.77L444.02 403.17L442.88 402.53L441.78 401.85L440.71 401.14L439.66 400.4L438.66 399.62L437.69 398.8L436.75 397.96L435.85 397.09L434.99 396.18L434.17 395.25L433.39 394.29L432.66 393.31L431.96 392.3L431.32 391.26L430.71 390.2L430.15 389.12L429.64 388.01L429.18 386.89L428.77 385.74L428.41 384.58L428.11 383.4L427.85 382.2L427.65 380.99L427.51 379.76L427.42 378.52L427.39 377.27L427.42 376.01L427.51 374.77L427.65 373.54L427.85 372.33L428.11 371.13L428.41 369.95L428.77 368.79L429.18 367.64L429.64 366.52L430.15 365.41L430.71 364.33L431.32 363.27L431.96 362.24L432.66 361.22L433.39 360.24L434.17 359.28L434.99 358.35L435.85 357.44L436.75 356.57L437.69 355.73L438.66 354.92L439.66 354.14L440.71 353.39L441.78 352.68L442.88 352L444.02 351.36L445.19 350.76L446.38 350.2L447.6 349.67L448.85 349.19L450.12 348.75L451.42 348.35L452.74 347.99L454.08 347.68L455.44 347.41L456.82 347.19L458.21 347.02L459.63 346.89L461.06 346.82L462.51 346.79L463.95 346.82L465.38 346.89Z" id="b1iqhZmKo8"></path><path d="M465.35 362.23L466.72 362.47L468.05 362.81L469.33 363.23L470.57 363.73L471.75 364.32L472.87 364.97L473.92 365.7L474.91 366.5L475.83 367.36L476.67 368.27L477.43 369.25L478.1 370.27L478.68 371.34L479.17 372.46L479.55 373.61L479.83 374.8L480 376.02L480.06 377.27L480 378.51L479.83 379.73L479.55 380.92L479.17 382.08L478.68 383.19L478.1 384.26L477.43 385.29L476.67 386.26L475.83 387.18L474.91 388.03L473.92 388.83L472.87 389.56L471.75 390.22L470.57 390.8L469.33 391.3L468.05 391.72L466.72 392.06L465.35 392.3L463.94 392.45L462.51 392.5L461.07 392.45L459.66 392.3L458.29 392.06L456.96 391.72L455.68 391.3L454.44 390.8L453.26 390.22L452.14 389.56L451.09 388.83L450.1 388.03L449.18 387.18L448.34 386.26L447.58 385.29L446.91 384.26L446.33 383.19L445.84 382.08L445.46 380.92L445.18 379.73L445.01 378.51L444.95 377.27L445.01 376.02L445.18 374.8L445.46 373.61L445.84 372.46L446.33 371.34L446.91 370.27L447.58 369.25L448.34 368.27L449.18 367.36L450.1 366.5L451.09 365.7L452.14 364.97L453.26 364.32L454.44 363.73L455.68 363.23L456.96 362.81L458.29 362.47L459.66 362.23L461.07 362.08L462.51 362.03L463.94 362.08L465.35 362.23Z" id="a1l1xjukK9"></path><path d="M305.48 346.82L306.25 346.86L307.03 346.91L307.8 346.98L308.57 347.06L309.33 347.16L310.08 347.27L310.83 347.4L311.57 347.53L312.31 347.69L313.04 347.85L313.77 348.03L314.49 348.23L315.2 348.43L315.9 348.65L316.6 348.88L317.29 349.12L317.98 349.38L318.65 349.65L319.32 349.93L319.98 350.22L320.63 350.52L321.27 350.84L321.91 351.17L322.53 351.5L323.15 351.85L323.75 352.21L324.35 352.58L324.94 352.96L325.52 353.35L326.08 353.75L326.64 354.17L327.19 354.59L327.73 355.02L328.25 355.46L328.76 355.9L329.27 356.36L329.76 356.83L330.24 357.31L330.66 357.71L331.06 358.12L331.46 358.53L331.85 358.95L332.23 359.38L332.6 359.81L332.96 360.25L333.31 360.7L333.65 361.15L333.98 361.6L334.3 362.06L334.61 362.53L334.91 363L335.21 363.48L335.49 363.96L335.76 364.44L336.02 364.93L336.27 365.43L336.51 365.92L336.74 366.43L336.95 366.94L337.16 367.45L337.36 367.96L337.55 368.48L337.72 369.01L337.89 369.54L338.04 370.07L338.18 370.6L338.32 371.14L338.44 371.68L338.55 372.23L338.64 372.78L338.73 373.33L338.81 373.88L338.87 374.44L338.92 375L338.97 375.56L338.99 376.13L339.01 376.7L339.02 377.27L339.01 377.84L338.99 378.4L338.97 378.97L338.92 379.53L338.87 380.09L338.81 380.65L338.73 381.2L338.64 381.76L338.55 382.3L338.44 382.85L338.32 383.39L338.18 383.93L338.04 384.46L337.89 385L337.72 385.52L337.55 386.05L337.36 386.57L337.16 387.08L336.95 387.6L336.74 388.1L336.51 388.61L336.27 389.11L336.02 389.6L335.76 390.09L335.49 390.58L335.21 391.06L334.91 391.53L334.61 392L334.3 392.47L333.98 392.93L333.65 393.38L333.31 393.83L332.96 394.28L332.6 394.72L332.23 395.15L331.85 395.58L331.46 396L331.06 396.41L330.66 396.82L330.24 397.23L329.76 397.7L329.27 398.17L328.76 398.63L328.25 399.08L327.73 399.51L327.19 399.94L326.64 400.37L326.08 400.78L325.52 401.18L324.94 401.57L324.35 401.95L323.75 402.32L323.15 402.68L322.53 403.03L321.91 403.36L321.27 403.69L320.63 404.01L319.98 404.31L319.32 404.6L318.65 404.88L317.98 405.15L317.29 405.41L316.6 405.65L315.9 405.88L315.2 406.1L314.49 406.31L313.77 406.5L313.04 406.68L312.31 406.84L311.57 407L310.83 407.13L310.08 407.26L309.33 407.37L308.57 407.47L307.8 407.55L307.03 407.62L306.25 407.67L305.48 407.71L304.69 407.73L303.9 407.74L302.46 407.71L301.03 407.64L299.62 407.51L298.23 407.34L296.85 407.12L295.49 406.85L294.15 406.54L292.84 406.18L291.54 405.78L290.27 405.33L289.02 404.85L287.8 404.32L286.61 403.76L285.44 403.16L284.31 402.52L283.2 401.84L282.13 401.13L281.08 400.38L280.08 399.6L279.1 398.79L278.17 397.94L277.27 397.07L276.41 396.17L275.59 395.23L274.81 394.27L274.07 393.29L273.37 392.28L272.72 391.24L272.12 390.18L271.56 389.1L271.05 387.99L270.59 386.87L270.17 385.73L269.81 384.57L269.51 383.39L269.25 382.19L269.05 380.98L268.91 379.76L268.82 378.52L268.79 377.27L268.82 376.01L268.91 374.78L269.05 373.55L269.25 372.34L269.51 371.14L269.81 369.97L270.17 368.8L270.59 367.66L271.05 366.54L271.56 365.43L272.12 364.35L272.72 363.29L273.37 362.26L274.07 361.24L274.81 360.26L275.59 359.3L276.41 358.37L277.27 357.46L278.17 356.59L279.1 355.74L280.08 354.93L281.08 354.15L282.13 353.4L283.2 352.69L284.31 352.02L285.44 351.37L286.61 350.77L287.8 350.21L289.02 349.68L290.27 349.2L291.54 348.75L292.84 348.35L294.15 348L295.49 347.68L296.85 347.41L298.23 347.19L299.62 347.02L301.03 346.89L302.46 346.82L303.9 346.79L304.69 346.8L305.48 346.82Z" id="anmZaMSi3"></path><path d="M306.75 362.23L308.12 362.47L309.45 362.81L310.73 363.23L311.96 363.73L313.14 364.32L314.27 364.97L315.32 365.7L316.31 366.5L317.23 367.36L318.07 368.27L318.83 369.25L319.5 370.27L320.08 371.34L320.56 372.46L320.95 373.61L321.23 374.8L321.4 376.02L321.46 377.27L321.4 378.51L321.23 379.73L320.95 380.92L320.56 382.08L320.08 383.19L319.5 384.26L318.83 385.29L318.07 386.26L317.23 387.18L316.31 388.03L315.32 388.83L314.27 389.56L313.14 390.22L311.96 390.8L310.73 391.3L309.45 391.72L308.12 392.06L306.75 392.3L305.34 392.45L303.9 392.5L302.47 392.45L301.06 392.3L299.69 392.06L298.36 391.72L297.08 391.3L295.84 390.8L294.66 390.22L293.54 389.56L292.48 388.83L291.49 388.03L290.58 387.18L289.74 386.26L288.98 385.29L288.31 384.26L287.73 383.19L287.24 382.08L286.86 380.92L286.58 379.73L286.4 378.51L286.35 377.27L286.4 376.02L286.58 374.8L286.86 373.61L287.24 372.46L287.73 371.34L288.31 370.27L288.98 369.25L289.74 368.27L290.58 367.36L291.49 366.5L292.48 365.7L293.54 364.97L294.66 364.32L295.84 363.73L297.08 363.23L298.36 362.81L299.69 362.47L301.06 362.23L302.47 362.08L303.9 362.03L305.34 362.08L306.75 362.23Z" id="f3ttuLclLn"></path><path d="M332.23 359.38L333.14 360.47L333.98 361.6L334.77 362.76L335.49 363.96L336.14 365.18L336.74 366.43L337.26 367.71L337.72 369.01L338.11 370.33L338.44 371.68L338.69 373.05L338.87 374.44L338.98 375.84L339.02 377.27L338.98 378.69L338.87 380.09L338.69 381.48L338.44 382.85L338.11 384.2L337.72 385.52L337.26 386.83L336.74 388.1L336.14 389.35L335.49 390.58L334.77 391.77L333.98 392.93L333.14 394.06L332.23 395.15L331.26 396.21L330.24 397.23L330.24 357.31L331.26 358.32L332.23 359.38Z" id="hiwhB1TYo"></path><path d="M339.75 247.78L340.11 247.81L340.46 247.85L340.81 247.91L341.15 247.97L341.49 248.05L341.82 248.14L342.15 248.24L342.46 248.34L342.78 248.46L343.08 248.59L343.38 248.73L343.67 248.88L343.96 249.04L344.23 249.21L344.5 249.38L344.76 249.57L345.01 249.76L345.25 249.96L345.48 250.17L345.71 250.39L345.92 250.61L346.12 250.85L346.32 251.09L346.5 251.33L346.67 251.59L346.83 251.84L346.98 252.11L347.12 252.38L347.24 252.66L347.36 252.94L347.46 253.23L347.55 253.52L347.62 253.82L347.68 254.12L347.73 254.43L347.77 254.74L347.79 255.05L347.8 255.37L347.8 278.23L374.13 278.23L374.5 278.23L374.86 278.25L375.22 278.28L375.57 278.33L375.92 278.38L376.27 278.45L376.6 278.52L376.93 278.61L377.26 278.71L377.58 278.82L377.89 278.94L378.2 279.07L378.5 279.21L378.79 279.35L379.07 279.51L379.35 279.68L379.62 279.86L379.87 280.04L380.12 280.23L380.37 280.44L380.6 280.65L380.82 280.86L381.03 281.09L381.24 281.32L381.43 281.56L381.61 281.81L381.78 282.06L381.94 282.32L382.09 282.58L382.23 282.85L382.36 283.13L382.47 283.41L382.57 283.7L382.66 284L382.74 284.29L382.8 284.6L382.85 284.9L382.88 285.21L382.9 285.53L382.91 285.85L382.91 301.08L382.9 301.4L382.88 301.71L382.85 302.03L382.8 302.33L382.74 302.63L382.66 302.93L382.57 303.22L382.47 303.51L382.36 303.8L382.23 304.07L382.09 304.34L381.94 304.61L381.78 304.87L381.61 305.12L381.43 305.37L381.24 305.61L381.03 305.84L380.82 306.06L380.6 306.28L380.37 306.49L380.12 306.69L379.87 306.89L379.62 307.07L379.35 307.25L379.07 307.41L378.79 307.57L378.5 307.72L378.2 307.86L377.89 307.99L377.58 308.11L377.26 308.22L376.93 308.32L376.6 308.41L376.27 308.48L375.92 308.55L375.57 308.6L375.22 308.65L374.86 308.68L374.5 308.69L374.13 308.7L347.8 308.7L347.8 331.56L347.79 331.87L347.77 332.19L347.73 332.5L347.68 332.81L347.62 333.11L347.55 333.41L347.46 333.7L347.36 333.99L347.24 334.27L347.12 334.55L346.98 334.82L346.83 335.08L346.67 335.34L346.5 335.59L346.32 335.84L346.12 336.08L345.92 336.31L345.71 336.54L345.48 336.75L345.25 336.96L345.01 337.17L344.76 337.36L344.5 337.54L344.23 337.72L343.96 337.89L343.67 338.05L343.38 338.2L343.08 338.33L342.78 338.46L342.46 338.58L342.15 338.69L341.82 338.79L341.49 338.88L341.15 338.96L340.81 339.02L340.46 339.08L340.11 339.12L339.75 339.15L339.38 339.17L339.02 339.17L330.24 339.17L330.24 247.75L339.02 247.75L339.38 247.76L339.75 247.78Z" id="c4ekVbVX8U"></path><path d="M358.69 432.77C356.14 432.92 343.43 433.62 320.55 434.88C290.17 436.57 273.29 437.51 269.92 437.7C263.64 431.81 260.22 424.08 260.22 415.73C260.22 411.6 261.06 407.64 262.72 403.86C262.83 403.59 263.42 402.25 264.47 399.82C267.02 400.82 268.44 401.38 268.72 401.49C273.15 403.34 278.81 402.72 282.69 399.91C282.78 399.85 283.21 399.52 283.99 398.94L320.55 400.44L354.44 401.84C355.21 402.74 355.64 403.24 355.73 403.34C359.79 407.99 362.1 413.97 362.1 420.12C362.1 424.51 360.9 428.91 358.69 432.77Z" id="aObaLlS1K"></path><path d="M358.69 432.77C356.14 432.92 343.43 433.62 320.55 434.88L320.55 400.44L354.44 401.84C355.21 402.74 355.64 403.24 355.73 403.34C359.79 407.99 362.1 413.97 362.1 420.12C362.1 424.51 360.9 428.91 358.69 432.77Z" id="aJNkPsLj"></path><path d="M380.57 499.5L362.1 499.5L352.87 490.36C352.87 487.76 352.87 486.32 352.87 486.03C352.87 483.57 350.84 481.63 348.25 481.63C343.63 481.63 320.55 481.63 279 481.63L279 443.06L288.23 424.78L288.23 424.69L300.79 417.92L340.31 417.92C357.43 427.15 366.94 432.28 368.84 433.3C376.05 437.08 380.57 444.37 380.57 452.37C380.57 458.65 380.57 474.36 380.57 499.5Z" id="a2c3gI4g1j"></path><path d="M343.63 494.14L334.4 499.5L260.22 499.5C260.22 471.22 260.22 455.51 260.22 452.37C260.22 444.37 264.75 437.08 272.04 433.21C273.12 432.65 278.52 429.84 288.23 424.78L288.23 472.84L334.4 472.84L343.63 481.54L343.63 494.14Z" id="c4qp6n9M4J"></path><path d="M380.57 499.5L362.1 499.5L352.87 490.36C352.87 487.76 352.87 486.32 352.87 486.03C352.87 483.57 350.84 481.63 348.25 481.63C346.41 481.63 337.17 481.63 320.55 481.63L320.55 417.92L340.31 417.92C357.43 427.15 366.94 432.28 368.84 433.3C376.05 437.08 380.57 444.37 380.57 452.37C380.57 458.65 380.57 474.36 380.57 499.5Z" id="c4CUcIXlHd"></path><path d="M334.4 477.24C334.4 465.13 344.76 455.27 357.49 455.27C359.33 455.27 374.11 455.27 375.95 455.27C383.59 455.27 389.8 449.36 389.8 442.09C389.8 439.75 389.8 428.03 389.8 406.94L399.04 406.94C399.04 428.03 399.04 439.75 399.04 442.09C399.04 454.2 388.68 464.06 375.95 464.06C374.11 464.06 359.33 464.06 357.49 464.06C349.85 464.06 343.63 469.97 343.63 477.24C341.79 477.24 335.32 477.24 334.4 477.24Z" id="c2RbHB6fiA"></path><path d="M371.34 367.1L371.34 402.55C377.35 402.55 380.69 402.55 381.36 402.55C383.27 407.66 388.4 411.33 394.42 411.33C400.44 411.33 405.57 407.66 407.48 402.55C408.17 402.55 411.61 402.55 417.81 402.55L417.81 367.1L401.71 358.32L384.7 358.32L371.34 367.1Z" id="gmeoqkS0p"></path><path d="M334.4 499.5L334.4 472.84C342.71 472.84 347.33 472.84 348.25 472.84C355.89 472.84 362.1 478.76 362.1 486.03C362.1 486.92 362.1 491.42 362.1 499.5L334.4 499.5Z" id="f1YXGAhxfn"></path><path d="M343.63 481.54L343.63 494.14L334.4 499.5L320.55 499.5L320.55 472.84L334.4 472.84L343.63 481.54Z" id="e1VXm9dKsC"></path><path d="M343.63 427.5C343.63 438.13 339.3 448.06 331.45 455.45C330.72 456.14 327.09 459.63 320.55 465.9C314.01 459.63 310.38 456.14 309.66 455.45C301.81 448.06 297.47 438.13 297.47 427.5C297.47 427.11 297.47 425.15 297.47 421.61L343.63 421.61C343.63 425.15 343.63 427.11 343.63 427.5Z" id="a3wIwMrdK"></path><path d="M343.63 427.5C343.63 438.13 339.3 448.06 331.45 455.45C330.72 456.14 327.09 459.63 320.55 465.9L320.55 421.61L343.63 421.61C343.63 425.15 343.63 427.11 343.63 427.5Z" id="e2DTUiQY1f"></path><path d="M288.23 380.58C288.23 381.46 288.23 385.85 288.23 393.76C302.08 393.76 309.78 393.76 311.32 393.76C314.64 393.76 317.69 393.14 320.55 391.91C324.24 390.42 327.38 387.96 329.78 384.97C334.03 390.33 340.68 393.76 348.25 393.76C348.56 393.76 350.1 393.76 352.87 393.76C352.87 385.85 352.87 381.46 352.87 380.58C352.87 363.62 338.37 349.53 320.55 349.53C302.73 349.53 288.23 363.62 288.23 380.58Z" id="aisFV1wrK"></path><path d="M352.87 393.76C350.1 393.76 348.56 393.76 348.25 393.76C340.68 393.76 334.03 390.33 329.78 384.97C327.38 387.96 324.24 390.42 320.55 391.91C320.55 387.67 320.55 353.77 320.55 349.53C338.37 349.53 352.87 363.62 352.87 380.58C352.87 382.34 352.87 386.73 352.87 393.76Z" id="eb4Gc9pFz"></path><path d="M334.4 371.79C333.48 371.79 326.09 371.79 325.17 371.79C325.17 375.66 323.41 379.17 320.55 381.54C318.15 383.65 314.92 384.97 311.32 384.97C309.47 384.97 294.7 384.97 292.85 384.97C285.19 384.97 279 390.86 279 398.15C279 404.3 283.43 409.49 289.99 410.89C294.54 425.9 306.07 432.79 320.55 437.96C334.83 432.86 346.42 425.87 351.11 411.07C357.39 409.84 362.1 404.48 362.1 398.15C362.1 390.86 355.92 384.97 348.25 384.97C340.59 384.97 334.4 379.08 334.4 371.79Z" id="b1D9eODhTc"></path><path d="M351.11 411.07C346.41 425.88 334.81 432.87 320.55 437.96C320.55 432.32 320.55 387.19 320.55 381.54C323.41 379.17 325.17 375.66 325.17 371.79C326.09 371.79 333.48 371.79 334.4 371.79C334.4 379.08 340.59 384.97 348.25 384.97C355.92 384.97 362.1 390.86 362.1 398.15C362.1 404.48 357.39 409.84 351.11 411.07Z" id="dcx7a5JnJ"></path><path d="M371.34 367.1L371.34 349.53L417.81 349.53L417.81 367.1L371.34 367.1Z" id="avIiBfueu"></path><path d="M166.73 268.4L166.8 268.41L166.86 268.41L166.92 268.42L166.98 268.43L167.05 268.44L167.11 268.45L167.17 268.47L167.23 268.48L167.29 268.5L167.35 268.52L167.41 268.54L167.47 268.57L167.53 268.59L167.59 268.62L167.65 268.65L167.71 268.68L167.76 268.71L167.82 268.74L167.88 268.78L176.23 274.18L177.84 298.31L176.23 329.05L175.52 329.04L174.8 329.02L174.09 328.98L173.38 328.92L172.67 328.84L171.96 328.75L171.26 328.64L170.56 328.52L169.87 328.38L169.18 328.22L168.5 328.05L167.81 327.86L167.14 327.66L166.47 327.44L165.8 327.21L165.14 326.96L164.49 326.69L163.84 326.41L163.19 326.12L162.56 325.81L161.93 325.48L161.31 325.14L160.69 324.78L160.08 324.41L159.48 324.03L158.89 323.63L158.3 323.22L157.73 322.79L157.16 322.35L156.6 321.89L156.05 321.42L155.51 320.93L154.97 320.44L154.5 319.98L154.04 319.51L153.6 319.03L153.16 318.55L152.73 318.06L152.31 317.56L151.9 317.05L151.51 316.53L151.12 316.01L150.75 315.48L150.38 314.94L150.03 314.39L149.69 313.84L149.36 313.28L149.04 312.72L148.73 312.15L148.43 311.57L148.15 310.99L147.87 310.4L147.61 309.8L147.36 309.2L147.12 308.6L146.89 307.98L146.68 307.37L146.47 306.75L146.28 306.12L146.1 305.49L145.94 304.86L145.78 304.22L145.64 303.58L145.51 302.93L145.4 302.29L145.29 301.63L144.92 301.63L144.68 301.63L144.45 301.62L144.21 301.6L143.98 301.57L143.74 301.54L143.51 301.5L143.28 301.46L143.05 301.4L142.83 301.34L142.6 301.28L142.38 301.2L142.16 301.13L141.94 301.04L141.73 300.95L141.52 300.85L141.31 300.74L141.1 300.63L140.9 300.51L140.7 300.39L140.51 300.26L140.31 300.13L140.13 299.99L139.94 299.84L139.76 299.69L139.58 299.53L139.41 299.37L139.24 299.2L139.08 299.02L138.92 298.84L138.77 298.66L138.62 298.47L138.47 298.27L138.33 298.07L138.25 297.94L138.17 297.82L138.09 297.69L138.01 297.55L137.94 297.42L137.86 297.29L137.79 297.15L137.73 297.02L137.66 296.88L137.6 296.74L137.54 296.6L137.48 296.46L137.43 296.32L137.38 296.18L137.33 296.03L137.28 295.89L137.24 295.74L137.2 295.6L137.16 295.45L137.12 295.3L137.09 295.15L137.06 295L137.03 294.85L137 294.7L136.98 294.55L136.96 294.4L136.94 294.25L136.93 294.1L136.91 293.94L136.9 293.79L136.9 293.63L136.89 293.48L136.89 293.32L136.9 292.91L136.93 292.5L136.98 292.1L137.05 291.7L137.13 291.31L137.23 290.93L137.35 290.55L137.49 290.18L137.64 289.82L137.81 289.47L137.99 289.13L138.19 288.8L138.4 288.48L138.63 288.17L138.86 287.88L139.12 287.59L139.38 287.32L139.66 287.06L139.94 286.81L140.24 286.57L140.55 286.36L140.87 286.15L141.2 285.96L141.54 285.79L141.89 285.63L142.24 285.49L142.6 285.37L142.98 285.26L143.35 285.17L143.74 285.11L144.13 285.06L144.52 285.03L144.92 285.01L144.92 279.2L144.92 279.07L144.93 278.95L144.95 278.83L144.97 278.71L144.99 278.59L145.02 278.48L145.06 278.37L145.1 278.26L145.14 278.15L145.2 278.04L145.25 277.94L145.31 277.84L145.37 277.75L145.44 277.65L145.51 277.56L145.59 277.48L145.67 277.4L145.75 277.32L145.84 277.24L145.93 277.17L146.02 277.11L146.11 277.05L146.21 276.99L146.31 276.94L146.42 276.89L146.53 276.85L146.63 276.81L146.75 276.78L146.86 276.75L146.97 276.73L147.09 276.72L147.21 276.71L147.33 276.71L154.74 276.71L155.13 276.7L155.51 276.68L155.89 276.64L156.27 276.59L156.64 276.53L157.01 276.45L157.37 276.36L157.73 276.26L158.08 276.14L158.43 276.01L158.78 275.87L159.12 275.71L159.45 275.55L159.77 275.37L160.09 275.18L160.4 274.98L160.71 274.76L161 274.54L161.29 274.3L161.57 274.06L161.85 273.8L162.11 273.53L162.37 273.25L162.61 272.97L162.85 272.67L163.08 272.36L163.29 272.05L163.5 271.72L163.69 271.39L163.88 271.04L164.05 270.69L164.21 270.33L164.36 269.96L164.39 269.9L164.41 269.84L164.44 269.78L164.47 269.72L164.5 269.66L164.53 269.61L164.57 269.55L164.6 269.49L164.64 269.44L164.68 269.39L164.72 269.34L164.76 269.28L164.8 269.24L164.84 269.19L164.88 269.14L164.93 269.09L164.97 269.05L165.02 269.01L165.07 268.96L165.12 268.92L165.17 268.88L165.22 268.84L165.27 268.81L165.33 268.77L165.38 268.74L165.44 268.71L165.49 268.67L165.55 268.64L165.61 268.62L165.67 268.59L165.73 268.57L165.79 268.54L165.85 268.52L165.91 268.5L165.97 268.48L166.04 268.47L166.1 268.45L166.16 268.44L166.23 268.43L166.29 268.42L166.35 268.41L166.42 268.4L166.48 268.4L166.54 268.4L166.61 268.4L166.67 268.4L166.73 268.4Z" id="c2v5rOIvvV"></path><path d="M178.48 275.64L178.59 275.7L178.7 275.76L178.8 275.82L178.91 275.88L179.02 275.94L179.13 275.99L179.24 276.05L179.36 276.1L179.47 276.15L179.58 276.19L179.7 276.24L179.81 276.28L179.93 276.32L180.04 276.36L180.16 276.4L180.27 276.43L180.39 276.47L180.51 276.5L180.63 276.53L180.75 276.55L180.87 276.58L180.99 276.6L181.11 276.62L181.23 276.64L181.35 276.65L181.47 276.67L181.59 276.68L181.72 276.69L181.84 276.7L181.96 276.7L182.09 276.71L182.21 276.71L205.09 276.71L205.21 276.71L205.33 276.72L205.44 276.73L205.56 276.75L205.67 276.78L205.78 276.81L205.89 276.85L206 276.89L206.1 276.94L206.2 276.99L206.3 277.05L206.4 277.11L206.49 277.17L206.58 277.24L206.67 277.32L206.75 277.4L206.83 277.48L206.91 277.56L206.98 277.65L207.04 277.75L207.11 277.84L207.17 277.94L207.22 278.04L207.27 278.15L207.32 278.26L207.36 278.37L207.39 278.48L207.42 278.59L207.45 278.71L207.47 278.83L207.48 278.95L207.49 279.07L207.5 279.2L207.5 285.01L207.55 285.01L207.95 285.03L208.34 285.06L208.73 285.11L209.11 285.17L209.49 285.26L209.86 285.37L210.23 285.49L210.58 285.63L210.93 285.79L211.27 285.96L211.59 286.15L211.91 286.36L212.22 286.57L212.52 286.81L212.81 287.06L213.09 287.32L213.35 287.59L213.6 287.88L213.84 288.17L214.07 288.48L214.28 288.8L214.48 289.13L214.66 289.47L214.83 289.82L214.98 290.18L215.11 290.55L215.23 290.93L215.34 291.31L215.42 291.7L215.49 292.1L215.54 292.5L215.56 292.91L215.57 293.32L215.57 293.48L215.57 293.63L215.56 293.79L215.55 293.94L215.54 294.1L215.53 294.25L215.51 294.4L215.49 294.55L215.46 294.7L215.44 294.85L215.41 295L215.38 295.15L215.35 295.3L215.31 295.45L215.27 295.6L215.23 295.74L215.18 295.89L215.14 296.03L215.09 296.18L215.04 296.32L214.98 296.46L214.93 296.6L214.87 296.74L214.8 296.88L214.74 297.02L214.67 297.15L214.6 297.29L214.53 297.42L214.46 297.56L214.38 297.69L214.3 297.82L214.22 297.95L214.13 298.07L213.99 298.27L213.85 298.47L213.7 298.66L213.55 298.84L213.39 299.02L213.22 299.2L213.06 299.37L212.88 299.53L212.71 299.69L212.53 299.84L212.34 299.99L212.15 300.13L211.96 300.26L211.77 300.39L211.57 300.52L211.36 300.63L211.16 300.74L210.95 300.85L210.74 300.95L210.52 301.04L210.31 301.13L210.09 301.2L209.87 301.28L209.64 301.34L209.41 301.4L209.19 301.46L208.96 301.5L208.73 301.54L208.49 301.57L208.26 301.6L208.02 301.62L207.78 301.63L207.55 301.63L207.18 301.63L207.14 301.88L207.1 302.13L207.05 302.39L207.01 302.64L206.96 302.89L206.92 303.13L206.87 303.38L206.82 303.63L206.76 303.88L206.71 304.13L206.65 304.37L206.59 304.62L206.53 304.86L206.47 305.11L206.4 305.35L206.33 305.6L206.27 305.84L206.19 306.08L206.12 306.33L206.05 306.57L205.97 306.81L205.89 307.05L205.81 307.29L205.73 307.53L205.65 307.77L205.56 308.01L205.48 308.25L205.39 308.48L205.3 308.72L205.2 308.96L205.11 309.19L205.01 309.43L204.91 309.66L204.93 309.72L204.94 309.77L204.95 309.83L204.97 309.89L204.98 309.95L204.99 310.01L205 310.07L205.01 310.12L205.02 310.18L205.03 310.24L205.04 310.3L205.05 310.36L205.06 310.42L205.06 310.47L205.07 310.53L205.08 310.59L205.08 310.65L205.09 310.71L205.1 310.77L205.1 310.83L205.11 310.89L205.11 310.95L205.12 311.01L205.12 311.07L205.12 311.13L205.13 311.19L205.13 311.24L205.13 311.3L205.13 311.36L205.14 311.42L205.14 311.48L205.14 311.54L205.14 311.6L205.13 311.99L205.1 312.37L205.06 312.74L205.01 313.11L204.93 313.47L204.84 313.83L204.74 314.18L204.63 314.52L204.49 314.86L204.35 315.19L204.19 315.51L204.02 315.83L203.84 316.13L203.64 316.43L203.43 316.72L203.21 316.99L202.98 317.26L202.74 317.52L202.49 317.76L202.23 318L201.96 318.22L201.68 318.43L201.39 318.63L201.09 318.82L200.79 318.99L200.47 319.15L200.15 319.29L199.82 319.42L199.49 319.54L199.15 319.64L198.8 319.73L198.45 319.8L198.09 319.85L198.07 319.87L198.05 319.89L198.02 319.92L198 319.94L197.96 319.98L197.94 320L197.91 320.03L197.89 320.05L197.87 320.07L197.84 320.1L197.82 320.12L197.8 320.14L197.78 320.16L197.75 320.19L197.73 320.21L197.71 320.23L197.69 320.25L197.67 320.26L197.66 320.28L197.62 320.32L197.58 320.35L197.55 320.38L197.53 320.4L197.51 320.42L197.49 320.44L196.96 320.93L196.42 321.42L195.87 321.89L195.31 322.35L194.74 322.79L194.16 323.22L193.58 323.63L192.99 324.03L192.39 324.41L191.78 324.78L191.16 325.14L190.54 325.48L189.91 325.81L189.27 326.12L188.63 326.41L187.98 326.69L187.33 326.96L186.67 327.21L186 327.44L185.33 327.66L184.65 327.86L183.97 328.05L183.29 328.22L182.6 328.38L181.9 328.52L181.21 328.64L180.5 328.75L179.8 328.84L179.09 328.92L178.38 328.98L177.67 329.02L176.95 329.04L176.23 329.05L176.23 274.18L178.38 275.57L178.48 275.64Z" id="a1Bp4de3Eh"></path><path d="M176.23 308.29L174.76 308.38L173.32 308.66L171.93 309.11L170.61 309.73L169.36 310.52L168.21 311.46L167.67 311.84L167.08 312.05L166.47 312.09L165.86 311.98L165.3 311.7L164.8 311.27L164.44 310.71L164.24 310.1L164.19 309.47L164.31 308.84L164.57 308.25L164.99 307.75L166.61 306.42L168.36 305.32L170.21 304.45L172.16 303.82L174.17 303.43L176.23 303.3L177.84 305.79L176.23 308.29Z" id="a2HAX29Cvp"></path><path d="M180.31 303.82L182.25 304.45L184.11 305.32L185.86 306.42L187.47 307.75L187.89 308.25L188.16 308.84L188.27 309.47L188.23 310.1L188.03 310.71L187.66 311.27L187.41 311.52L187.13 311.73L186.83 311.89L186.52 312L186.2 312.07L185.87 312.1L185.58 312.08L185.3 312.03L185.02 311.94L184.76 311.81L184.5 311.66L184.26 311.46L183.11 310.52L181.86 309.73L180.53 309.11L179.14 308.66L177.71 308.38L176.23 308.29L176.23 303.3L178.29 303.43L180.31 303.82Z" id="a45OlHUYIh"></path><path d="M176.23 280.05L176.21 280.03L176.17 280.01L176.15 280L176.11 279.98L176.1 279.97L176.06 279.95L176.04 279.93L176 279.91L175.98 279.9L175.96 279.88L175.93 279.87L175.92 279.86L175.88 279.83L175.86 279.82L175.85 279.81L175.83 279.8L167.54 274.44L167.29 274.83L167.03 275.21L166.77 275.58L166.49 275.95L166.2 276.3L165.9 276.64L165.6 276.98L165.28 277.3L164.96 277.62L164.63 277.92L164.29 278.21L163.94 278.5L163.58 278.77L163.22 279.03L162.85 279.28L162.47 279.52L162.09 279.75L161.7 279.96L161.3 280.16L160.9 280.36L160.49 280.53L160.07 280.7L159.65 280.86L159.23 281L158.8 281.13L158.36 281.24L157.92 281.35L157.48 281.44L157.03 281.51L156.58 281.58L156.12 281.63L155.67 281.66L155.2 281.68L154.74 281.69L149.74 281.69L149.74 287.51L149.74 287.63L149.73 287.75L149.71 287.87L149.69 287.98L149.67 288.1L149.64 288.21L149.61 288.32L149.57 288.42L149.53 288.53L149.48 288.63L149.43 288.73L149.37 288.83L149.31 288.92L149.25 289.02L149.18 289.1L149.11 289.19L149.03 289.27L148.95 289.35L148.87 289.42L148.79 289.49L148.7 289.56L148.61 289.62L148.51 289.68L148.42 289.73L148.32 289.78L148.22 289.83L148.11 289.87L148.01 289.9L147.9 289.93L147.79 289.96L147.68 289.97L147.56 289.99L147.45 290L147.33 290L144.92 290L144.77 290L144.61 290.02L144.46 290.03L144.31 290.06L144.16 290.09L144.02 290.13L143.88 290.18L143.74 290.23L143.6 290.29L143.47 290.36L143.34 290.43L143.22 290.51L143.1 290.59L142.98 290.68L142.87 290.77L142.76 290.87L142.65 290.97L142.55 291.08L142.46 291.2L142.36 291.31L142.28 291.44L142.2 291.56L142.12 291.69L142.06 291.82L141.99 291.96L141.93 292.1L141.88 292.25L141.84 292.39L141.8 292.54L141.77 292.69L141.74 292.85L141.72 293L141.71 293.16L141.71 293.32L141.71 293.44L141.7 293.56L141.69 293.68L141.67 293.8L141.64 293.91L141.61 294.02L141.58 294.13L141.54 294.24L141.5 294.35L141.45 294.45L141.4 294.55L141.34 294.65L141.28 294.74L141.22 294.83L141.15 294.92L141.08 295L141 295.09L140.93 295.16L140.84 295.24L140.76 295.31L140.67 295.37L140.58 295.44L140.48 295.49L140.39 295.55L140.29 295.6L140.19 295.64L140.08 295.68L139.98 295.72L139.87 295.75L139.76 295.77L139.65 295.79L139.53 295.81L139.42 295.81L139.3 295.82L139.18 295.81L139.07 295.81L138.96 295.79L138.84 295.77L138.73 295.75L138.62 295.72L138.52 295.68L138.41 295.64L138.31 295.6L138.21 295.55L138.12 295.49L138.02 295.44L137.93 295.37L137.84 295.31L137.76 295.24L137.68 295.16L137.6 295.09L137.52 295L137.45 294.92L137.38 294.83L137.32 294.74L137.26 294.65L137.2 294.55L137.15 294.45L137.1 294.35L137.06 294.24L137.02 294.13L136.99 294.02L136.96 293.91L136.94 293.8L136.92 293.68L136.9 293.56L136.9 293.44L136.89 293.32L136.89 271.72L136.92 270.31L137.02 268.92L137.18 267.55L137.4 266.2L137.68 264.87L138.02 263.57L138.41 262.28L138.86 261.03L139.36 259.8L139.92 258.6L140.52 257.44L141.18 256.3L141.88 255.2L142.63 254.14L143.42 253.11L144.25 252.12L145.13 251.17L146.05 250.26L147.01 249.39L148 248.57L149.03 247.8L150.09 247.07L151.19 246.4L152.32 245.77L153.48 245.2L154.66 244.68L155.87 244.21L157.11 243.8L158.38 243.45L159.66 243.17L160.97 242.94L162.29 242.77L163.63 242.67L164.99 242.64L176.23 242.64L177.84 260.31L176.23 280.05Z" id="acHsBVjqr"></path><path d="M188.87 242.68L190.26 242.78L191.62 242.96L192.96 243.2L194.28 243.5L195.58 243.87L196.85 244.3L198.09 244.8L199.31 245.35L200.49 245.95L201.65 246.62L202.76 247.33L203.85 248.1L204.89 248.92L205.9 249.78L206.87 250.69L207.79 251.65L208.67 252.65L209.51 253.69L210.3 254.78L211.04 255.9L211.73 257.05L212.37 258.25L212.96 259.47L213.49 260.73L213.97 262.02L214.38 263.33L214.74 264.67L215.04 266.04L215.27 267.43L215.44 268.84L215.54 270.27L215.57 271.72L215.57 293.32L215.57 293.45L215.56 293.57L215.55 293.69L215.53 293.81L215.5 293.93L215.47 294.04L215.44 294.16L215.4 294.27L215.35 294.37L215.3 294.48L215.25 294.58L215.19 294.68L215.12 294.78L215.06 294.87L214.98 294.96L214.91 295.04L214.83 295.13L214.75 295.2L214.66 295.28L214.57 295.35L214.48 295.41L214.38 295.48L214.28 295.53L214.18 295.58L214.08 295.63L213.97 295.67L213.86 295.71L213.75 295.74L213.64 295.77L213.52 295.79L213.4 295.8L213.29 295.81L213.17 295.82L213.05 295.81L212.93 295.8L212.81 295.79L212.69 295.77L212.58 295.74L212.47 295.71L212.36 295.67L212.25 295.63L212.15 295.58L212.05 295.53L211.95 295.48L211.85 295.41L211.76 295.35L211.67 295.28L211.59 295.2L211.5 295.13L211.42 295.04L211.35 294.96L211.28 294.87L211.21 294.78L211.15 294.68L211.09 294.58L211.03 294.48L210.98 294.37L210.94 294.27L210.89 294.16L210.86 294.04L210.83 293.93L210.8 293.81L210.78 293.69L210.77 293.57L210.76 293.45L210.76 293.32L210.75 293.16L210.74 292.99L210.72 292.83L210.7 292.67L210.66 292.52L210.62 292.36L210.57 292.21L210.52 292.07L210.46 291.92L210.39 291.78L210.32 291.65L210.24 291.52L210.15 291.39L210.06 291.26L209.97 291.14L209.87 291.03L209.76 290.92L209.65 290.82L209.54 290.72L209.42 290.62L209.29 290.54L209.17 290.45L209.03 290.38L208.9 290.31L208.76 290.25L208.62 290.19L208.47 290.14L208.32 290.1L208.17 290.06L208.02 290.04L207.86 290.02L207.71 290L207.55 290L205.14 290L205.02 290L204.9 289.99L204.78 289.97L204.67 289.95L204.55 289.93L204.44 289.89L204.33 289.86L204.23 289.82L204.12 289.77L204.02 289.72L203.92 289.66L203.83 289.6L203.73 289.53L203.64 289.46L203.56 289.39L203.47 289.31L203.39 289.23L203.32 289.14L203.25 289.05L203.18 288.96L203.12 288.86L203.06 288.77L203 288.66L202.95 288.56L202.91 288.45L202.87 288.34L202.83 288.23L202.8 288.11L202.77 288L202.75 287.88L202.74 287.75L202.73 287.63L202.73 287.51L202.73 281.69L182.21 281.69L182.02 281.69L181.83 281.68L181.64 281.68L181.45 281.67L181.26 281.65L181.07 281.64L180.88 281.61L180.69 281.59L180.5 281.57L180.32 281.54L180.13 281.5L179.94 281.47L179.76 281.43L179.57 281.39L179.39 281.35L179.21 281.3L179.02 281.25L178.84 281.19L178.66 281.14L178.48 281.08L178.3 281.02L178.12 280.95L177.95 280.88L177.77 280.81L177.59 280.74L177.42 280.66L177.25 280.58L177.08 280.5L176.9 280.42L176.74 280.33L176.57 280.24L176.4 280.15L176.23 280.05L176.23 242.64L187.47 242.64L188.87 242.68Z" id="e1qQvt7B1X"></path><path d="M189.84 292.46L190.71 293.36L191.28 294.5L191.49 295.82L191.28 297.13L190.71 298.27L189.84 299.17L188.74 299.76L187.47 299.97L186.21 299.76L185.1 299.17L184.24 298.27L183.66 297.13L183.46 295.82L183.66 294.5L184.24 293.36L185.1 292.46L186.21 291.87L187.47 291.66L188.74 291.87L189.84 292.46Z" id="a12qB871o"></path><path d="M167.36 292.46L168.23 293.36L168.8 294.5L169.01 295.82L168.8 297.13L168.23 298.27L167.36 299.17L166.26 299.76L164.99 299.97L163.73 299.76L162.62 299.17L161.75 298.27L161.18 297.13L160.98 295.82L161.18 294.5L161.75 293.36L162.62 292.46L163.73 291.87L164.99 291.66L166.26 291.87L167.36 292.46Z" id="aU8ZFnBXB"></path><path d="M169.2 287.65L169.65 287.92L170.04 288.31L170.35 288.79L170.55 289.33L170.61 289.88L170.56 290.43L170.4 290.94L170.13 291.42L169.76 291.82L169.3 292.14L159.66 297.21L159.51 297.28L159.36 297.34L159.2 297.39L159.05 297.43L158.89 297.46L158.73 297.47L158.57 297.48L158.2 297.45L157.84 297.36L157.49 297.21L157.17 297.01L156.88 296.76L156.63 296.46L156.42 296.12L156.23 295.58L156.16 295.02L156.21 294.48L156.38 293.96L156.65 293.49L157.02 293.08L157.48 292.76L167.11 287.69L167.63 287.49L168.17 287.42L168.7 287.48L169.2 287.65Z" id="dpdxIVI9L"></path><path d="M185.35 287.69L194.99 292.76L195.45 293.08L195.82 293.49L196.09 293.96L196.26 294.48L196.31 295.02L196.24 295.58L196.04 296.12L195.84 296.46L195.59 296.76L195.3 297.01L194.98 297.21L194.63 297.36L194.27 297.45L193.9 297.48L193.74 297.47L193.58 297.46L193.42 297.43L193.27 297.39L193.11 297.34L192.96 297.28L192.81 297.21L183.17 292.14L182.71 291.82L182.34 291.42L182.07 290.94L181.9 290.43L181.85 289.88L181.92 289.33L182.12 288.79L182.42 288.31L182.81 287.93L183.27 287.65L183.77 287.48L184.3 287.42L184.83 287.49L185.35 287.69Z" id="e7hrdeLuY1"></path><path d="M213.41 308.04L214 308.82L214.25 309.78L214.13 310.72L213.68 311.56L212.93 312.17L211.49 312.91L211.23 313.03L210.96 313.12L210.69 313.16L210.41 313.18L209.76 313.09L209.16 312.82L208.65 312.39L208.26 311.81L208.01 310.85L208.12 309.91L208.58 309.07L209.33 308.46L210.76 307.71L211.69 307.45L212.6 307.57L213.41 308.04Z" id="e1DGIjYX0f"></path><path d="M211.96 315.91L212.79 316.4L213.36 317.16L213.61 318.08L213.49 319.06L213.14 319.77L212.6 320.31L211.94 320.65L211.21 320.77L211.02 320.76L210.83 320.74L210.64 320.7L210.45 320.65L208.93 320.12L208.09 319.63L207.53 318.88L207.28 317.96L207.39 316.98L207.87 316.12L208.6 315.53L209.49 315.27L210.44 315.39L211.96 315.91Z" id="bB3qidY63"></path><path d="M205.9 320.32L206.49 321.1L207.21 322.59L207.46 323.54L207.34 324.49L206.89 325.32L206.14 325.93L205.87 326.05L205.6 326.13L205.33 326.18L205.06 326.2L204.41 326.11L203.81 325.84L203.3 325.41L202.9 324.83L202.18 323.34L201.93 322.39L202.05 321.44L202.5 320.61L203.25 320L204.17 319.73L205.09 319.86L205.9 320.32Z" id="bobKDWYMC"></path><path d="M207.68 349.66L207.74 349.66L207.81 349.67L207.87 349.68L207.93 349.69L208 349.7L208.06 349.71L208.12 349.73L208.18 349.74L208.24 349.76L208.3 349.78L208.36 349.8L208.42 349.83L208.48 349.85L208.54 349.88L208.6 349.9L208.66 349.93L208.71 349.97L208.77 350L208.82 350.03L217.18 355.44L218.79 379.57L217.18 410.31L216.46 410.3L215.75 410.28L215.03 410.23L214.32 410.18L213.62 410.1L212.91 410.01L212.21 409.9L211.51 409.78L210.82 409.64L210.13 409.48L209.44 409.31L208.76 409.12L208.09 408.92L207.42 408.7L206.75 408.47L206.09 408.22L205.43 407.95L204.79 407.67L204.14 407.37L203.51 407.06L202.88 406.74L202.25 406.4L201.64 406.04L201.03 405.67L200.43 405.29L199.84 404.89L199.25 404.47L198.67 404.05L198.11 403.6L197.55 403.15L197 402.68L196.45 402.19L195.92 401.69L195.45 401.24L194.99 400.77L194.54 400.29L194.11 399.81L193.68 399.31L193.26 398.81L192.85 398.31L192.46 397.79L192.07 397.27L191.69 396.74L191.33 396.2L190.98 395.65L190.64 395.1L190.3 394.54L189.98 393.98L189.68 393.4L189.38 392.83L189.09 392.24L188.82 391.65L188.56 391.06L188.31 390.46L188.07 389.85L187.84 389.24L187.63 388.63L187.42 388.01L187.23 387.38L187.05 386.75L186.89 386.12L186.73 385.48L186.59 384.84L186.46 384.19L186.34 383.54L186.24 382.89L185.87 382.89L185.63 382.89L185.39 382.88L185.16 382.86L184.92 382.83L184.69 382.8L184.46 382.76L184.23 382.72L184 382.66L183.77 382.6L183.55 382.54L183.33 382.46L183.11 382.38L182.89 382.3L182.68 382.2L182.47 382.11L182.26 382L182.05 381.89L181.85 381.77L181.65 381.65L181.45 381.52L181.26 381.38L181.07 381.24L180.89 381.1L180.71 380.94L180.53 380.79L180.36 380.62L180.19 380.45L180.03 380.28L179.87 380.1L179.71 379.92L179.57 379.73L179.42 379.53L179.28 379.33L179.2 379.2L179.12 379.07L179.04 378.94L178.96 378.81L178.88 378.68L178.81 378.55L178.74 378.41L178.68 378.27L178.61 378.14L178.55 378L178.49 377.86L178.43 377.72L178.38 377.58L178.33 377.43L178.28 377.29L178.23 377.15L178.19 377L178.14 376.85L178.11 376.71L178.07 376.56L178.04 376.41L178 376.26L177.98 376.11L177.95 375.96L177.93 375.81L177.91 375.66L177.89 375.51L177.87 375.35L177.86 375.2L177.85 375.05L177.85 374.89L177.84 374.74L177.84 374.58L177.85 374.17L177.88 373.76L177.93 373.36L177.99 372.96L178.08 372.57L178.18 372.18L178.3 371.81L178.44 371.44L178.59 371.08L178.76 370.73L178.94 370.39L179.14 370.06L179.35 369.74L179.57 369.43L179.81 369.13L180.06 368.85L180.33 368.57L180.61 368.31L180.89 368.07L181.19 367.83L181.5 367.61L181.82 367.41L182.15 367.22L182.49 367.05L182.83 366.89L183.19 366.75L183.55 366.63L183.92 366.52L184.3 366.43L184.68 366.36L185.07 366.31L185.47 366.28L185.87 366.27L185.87 360.46L185.87 360.33L185.88 360.21L185.9 360.09L185.92 359.97L185.94 359.85L185.97 359.74L186.01 359.62L186.05 359.51L186.09 359.41L186.14 359.3L186.2 359.2L186.26 359.1L186.32 359L186.39 358.91L186.46 358.82L186.54 358.74L186.62 358.65L186.7 358.58L186.78 358.5L186.87 358.43L186.97 358.37L187.06 358.3L187.16 358.25L187.26 358.2L187.37 358.15L187.47 358.11L187.58 358.07L187.69 358.04L187.81 358.01L187.92 357.99L188.04 357.98L188.16 357.97L188.28 357.96L195.69 357.96L196.07 357.96L196.46 357.94L196.84 357.9L197.21 357.85L197.59 357.79L197.96 357.71L198.32 357.62L198.68 357.51L199.03 357.4L199.38 357.27L199.73 357.13L200.06 356.97L200.4 356.81L200.72 356.63L201.04 356.44L201.35 356.23L201.66 356.02L201.95 355.8L202.24 355.56L202.52 355.31L202.8 355.06L203.06 354.79L203.32 354.51L203.56 354.23L203.8 353.93L204.02 353.62L204.24 353.31L204.45 352.98L204.64 352.65L204.83 352.3L205 351.95L205.16 351.59L205.31 351.22L205.34 351.16L205.36 351.1L205.39 351.04L205.42 350.98L205.45 350.92L205.48 350.86L205.52 350.81L205.55 350.75L205.59 350.7L205.63 350.65L205.66 350.59L205.7 350.54L205.75 350.49L205.79 350.44L205.83 350.4L205.88 350.35L205.92 350.31L205.97 350.26L206.02 350.22L206.07 350.18L206.12 350.14L206.17 350.1L206.22 350.07L206.28 350.03L206.33 350L206.39 349.96L206.44 349.93L206.5 349.9L206.56 349.87L206.62 349.85L206.68 349.82L206.74 349.8L206.8 349.78L206.86 349.76L206.92 349.74L206.99 349.72L207.05 349.71L207.11 349.7L207.17 349.69L207.24 349.68L207.3 349.67L207.36 349.66L207.43 349.66L207.49 349.66L207.55 349.66L207.62 349.66L207.68 349.66Z" id="dB3s8Wo4f"></path><path d="M219.43 356.89L219.54 356.96L219.64 357.02L219.75 357.08L219.86 357.14L219.97 357.2L220.08 357.25L220.19 357.31L220.3 357.36L220.42 357.41L220.53 357.45L220.64 357.5L220.76 357.54L220.87 357.58L220.99 357.62L221.11 357.66L221.22 357.69L221.34 357.72L221.46 357.76L221.58 357.78L221.7 357.81L221.82 357.83L221.94 357.86L222.06 357.88L222.18 357.9L222.3 357.91L222.42 357.93L222.54 357.94L222.67 357.95L222.79 357.95L222.91 357.96L223.03 357.96L223.16 357.96L246.04 357.96L246.16 357.97L246.27 357.98L246.39 357.99L246.51 358.01L246.62 358.04L246.73 358.07L246.84 358.11L246.95 358.15L247.05 358.2L247.15 358.25L247.25 358.3L247.35 358.37L247.44 358.43L247.53 358.5L247.62 358.58L247.7 358.65L247.78 358.74L247.85 358.82L247.93 358.91L247.99 359L248.06 359.1L248.12 359.2L248.17 359.3L248.22 359.41L248.27 359.51L248.31 359.62L248.34 359.74L248.37 359.85L248.4 359.97L248.42 360.09L248.43 360.21L248.44 360.33L248.44 360.46L248.44 366.27L248.49 366.27L248.89 366.28L249.29 366.31L249.68 366.36L250.06 366.43L250.44 366.52L250.81 366.63L251.17 366.75L251.53 366.89L251.88 367.05L252.21 367.22L252.54 367.41L252.86 367.61L253.17 367.83L253.47 368.07L253.76 368.31L254.04 368.57L254.3 368.85L254.55 369.13L254.79 369.43L255.02 369.74L255.23 370.06L255.43 370.39L255.61 370.73L255.78 371.08L255.93 371.44L256.06 371.81L256.18 372.18L256.28 372.57L256.37 372.96L256.44 373.36L256.48 373.76L256.51 374.17L256.52 374.58L256.52 374.74L256.52 374.89L256.51 375.05L256.5 375.2L256.49 375.35L256.47 375.51L256.46 375.66L256.44 375.81L256.41 375.96L256.39 376.11L256.36 376.26L256.33 376.41L256.29 376.56L256.26 376.71L256.22 376.85L256.18 377L256.13 377.15L256.09 377.29L256.04 377.43L255.99 377.58L255.93 377.72L255.87 377.86L255.81 378L255.75 378.14L255.69 378.27L255.62 378.41L255.55 378.55L255.48 378.68L255.4 378.81L255.33 378.95L255.25 379.08L255.17 379.2L255.08 379.33L254.94 379.53L254.8 379.73L254.65 379.92L254.49 380.1L254.34 380.28L254.17 380.46L254 380.62L253.83 380.79L253.66 380.95L253.47 381.1L253.29 381.24L253.1 381.39L252.91 381.52L252.71 381.65L252.51 381.77L252.31 381.89L252.11 382L251.9 382.11L251.69 382.21L251.47 382.3L251.25 382.38L251.04 382.46L250.81 382.54L250.59 382.6L250.36 382.66L250.14 382.72L249.91 382.76L249.67 382.8L249.44 382.83L249.21 382.86L248.97 382.88L248.73 382.89L248.49 382.89L248.12 382.89L248.09 383.14L248.05 383.39L248 383.64L247.96 383.89L247.91 384.14L247.87 384.39L247.82 384.64L247.76 384.89L247.71 385.14L247.65 385.38L247.6 385.63L247.54 385.88L247.48 386.12L247.41 386.37L247.35 386.61L247.28 386.86L247.21 387.1L247.14 387.34L247.07 387.59L247 387.83L246.92 388.07L246.84 388.31L246.76 388.55L246.68 388.79L246.6 389.03L246.51 389.27L246.43 389.5L246.34 389.74L246.25 389.98L246.15 390.21L246.06 390.45L245.96 390.68L245.86 390.92L245.88 390.97L245.89 391.03L245.9 391.09L245.91 391.15L245.93 391.21L245.94 391.26L245.95 391.32L245.96 391.38L245.97 391.44L245.98 391.5L245.99 391.56L246 391.62L246 391.67L246.01 391.73L246.02 391.79L246.03 391.85L246.03 391.91L246.04 391.97L246.05 392.03L246.05 392.09L246.06 392.15L246.06 392.21L246.07 392.26L246.07 392.32L246.07 392.38L246.08 392.44L246.08 392.5L246.08 392.56L246.08 392.62L246.08 392.68L246.08 392.74L246.09 392.8L246.09 392.86L246.08 393.24L246.05 393.62L246.01 394L245.95 394.37L245.88 394.73L245.79 395.09L245.69 395.44L245.57 395.78L245.44 396.12L245.3 396.45L245.14 396.77L244.97 397.09L244.79 397.39L244.59 397.69L244.38 397.97L244.16 398.25L243.93 398.52L243.69 398.77L243.44 399.02L243.18 399.26L242.91 399.48L242.63 399.69L242.34 399.89L242.04 400.07L241.73 400.25L241.42 400.4L241.1 400.55L240.77 400.68L240.44 400.8L240.1 400.9L239.75 400.98L239.4 401.05L239.04 401.11L239.02 401.13L239 401.14L238.96 401.18L238.95 401.2L238.91 401.24L238.89 401.25L238.86 401.29L238.84 401.31L238.82 401.33L238.78 401.36L238.77 401.38L238.75 401.4L238.73 401.42L238.69 401.45L238.68 401.47L238.66 401.49L238.64 401.5L238.62 401.52L238.6 401.54L238.57 401.57L238.53 401.61L238.5 401.64L238.48 401.66L238.46 401.68L238.44 401.69L237.91 402.19L237.37 402.68L236.82 403.15L236.26 403.6L235.69 404.05L235.11 404.47L234.53 404.89L233.94 405.29L233.33 405.67L232.73 406.04L232.11 406.4L231.49 406.74L230.86 407.06L230.22 407.37L229.58 407.67L228.93 407.95L228.28 408.22L227.61 408.47L226.95 408.7L226.28 408.92L225.6 409.12L224.92 409.31L224.23 409.48L223.55 409.64L222.85 409.78L222.15 409.9L221.45 410.01L220.75 410.1L220.04 410.18L219.33 410.23L218.62 410.28L217.9 410.3L217.18 410.31L217.18 355.44L219.33 356.83L219.43 356.89Z" id="g4MmUH41AM"></path><path d="M217.18 389.55L215.71 389.64L214.27 389.91L212.88 390.37L211.56 390.99L210.31 391.77L209.15 392.72L208.62 393.09L208.03 393.3L207.41 393.35L206.81 393.23L206.24 392.96L205.75 392.52L205.39 391.97L205.19 391.36L205.14 390.72L205.25 390.1L205.52 389.51L205.94 389L207.56 387.68L209.31 386.58L211.16 385.71L213.11 385.08L215.12 384.69L217.18 384.56L218.79 387.04L217.18 389.55Z" id="c1kSkmcURz"></path><path d="M221.26 385.08L223.2 385.71L225.06 386.58L226.8 387.68L228.42 389L228.84 389.51L229.11 390.1L229.22 390.72L229.18 391.36L228.97 391.97L228.61 392.52L228.36 392.78L228.08 392.98L227.78 393.15L227.47 393.26L227.15 393.33L226.82 393.35L226.53 393.34L226.25 393.28L225.97 393.2L225.7 393.07L225.45 392.91L225.21 392.72L224.05 391.77L222.81 390.99L221.48 390.37L220.09 389.91L218.65 389.64L217.18 389.55L217.18 384.56L219.24 384.69L221.26 385.08Z" id="a1zmhEWLi"></path><path d="M217.18 361.31L217.16 361.29L217.12 361.27L217.1 361.26L217.06 361.23L217.05 361.23L217.01 361.2L216.99 361.19L216.95 361.17L216.93 361.15L216.91 361.14L216.88 361.12L216.87 361.12L216.83 361.09L216.81 361.08L216.8 361.07L216.77 361.05L208.49 355.7L208.24 356.09L207.98 356.47L207.71 356.84L207.44 357.2L207.15 357.56L206.85 357.9L206.55 358.24L206.23 358.56L205.91 358.88L205.58 359.18L205.24 359.47L204.89 359.76L204.53 360.03L204.17 360.29L203.8 360.54L203.42 360.78L203.04 361L202.65 361.22L202.25 361.42L201.85 361.61L201.44 361.79L201.02 361.96L200.6 362.11L200.18 362.26L199.75 362.39L199.31 362.5L198.87 362.61L198.43 362.7L197.98 362.77L197.53 362.84L197.07 362.89L196.61 362.92L196.15 362.94L195.69 362.95L190.69 362.95L190.69 368.77L190.68 368.89L190.68 369.01L190.66 369.12L190.64 369.24L190.62 369.35L190.59 369.47L190.56 369.58L190.52 369.68L190.48 369.79L190.43 369.89L190.38 369.99L190.32 370.09L190.26 370.18L190.2 370.27L190.13 370.36L190.06 370.45L189.98 370.53L189.9 370.61L189.82 370.68L189.74 370.75L189.65 370.82L189.56 370.88L189.46 370.94L189.37 370.99L189.27 371.04L189.16 371.08L189.06 371.12L188.95 371.16L188.85 371.19L188.74 371.21L188.62 371.23L188.51 371.25L188.39 371.26L188.28 371.26L185.87 371.26L185.71 371.26L185.56 371.27L185.41 371.29L185.26 371.32L185.11 371.35L184.97 371.39L184.83 371.44L184.69 371.49L184.55 371.55L184.42 371.62L184.29 371.69L184.17 371.77L184.05 371.85L183.93 371.94L183.81 372.03L183.7 372.13L183.6 372.23L183.5 372.34L183.4 372.45L183.31 372.57L183.23 372.69L183.15 372.82L183.07 372.95L183 373.08L182.94 373.22L182.88 373.36L182.83 373.5L182.79 373.65L182.75 373.8L182.72 373.95L182.69 374.11L182.67 374.26L182.66 374.42L182.66 374.58L182.66 374.7L182.65 374.82L182.63 374.94L182.61 375.06L182.59 375.17L182.56 375.28L182.53 375.39L182.49 375.5L182.45 375.6L182.4 375.71L182.35 375.81L182.29 375.9L182.23 376L182.17 376.09L182.1 376.18L182.03 376.26L181.95 376.34L181.87 376.42L181.79 376.5L181.71 376.57L181.62 376.63L181.53 376.7L181.43 376.75L181.34 376.81L181.24 376.86L181.14 376.9L181.03 376.94L180.93 376.97L180.82 377L180.71 377.03L180.6 377.05L180.48 377.06L180.37 377.07L180.25 377.07L180.13 377.07L180.02 377.06L179.9 377.05L179.79 377.03L179.68 377L179.57 376.97L179.47 376.94L179.36 376.9L179.26 376.86L179.16 376.81L179.07 376.75L178.97 376.7L178.88 376.63L178.79 376.57L178.71 376.5L178.62 376.42L178.55 376.34L178.47 376.26L178.4 376.18L178.33 376.09L178.27 376L178.21 375.9L178.15 375.81L178.1 375.71L178.05 375.6L178.01 375.5L177.97 375.39L177.94 375.28L177.91 375.17L177.88 375.06L177.87 374.94L177.85 374.82L177.84 374.7L177.84 374.58L177.84 352.98L177.87 351.57L177.97 350.18L178.13 348.81L178.35 347.46L178.63 346.13L178.97 344.82L179.36 343.54L179.81 342.29L180.31 341.06L180.86 339.86L181.47 338.69L182.12 337.56L182.83 336.46L183.57 335.39L184.37 334.36L185.2 333.37L186.08 332.43L187 331.52L187.95 330.65L188.95 329.83L189.98 329.06L191.04 328.33L192.14 327.65L193.27 327.03L194.42 326.45L195.61 325.93L196.82 325.47L198.06 325.06L199.32 324.71L200.61 324.42L201.91 324.2L203.24 324.03L204.58 323.93L205.94 323.9L217.18 323.9L218.79 341.57L217.18 361.31Z" id="a1KSbWI4hb"></path><path d="M231.21 324.04L232.57 324.21L233.91 324.45L235.23 324.76L236.53 325.13L237.8 325.56L239.04 326.05L240.26 326.6L241.44 327.21L242.59 327.87L243.71 328.59L244.8 329.36L245.84 330.17L246.85 331.04L247.82 331.95L248.74 332.91L249.62 333.91L250.46 334.95L251.25 336.03L251.99 337.16L252.68 338.31L253.32 339.5L253.91 340.73L254.44 341.99L254.91 343.27L255.33 344.59L255.69 345.93L255.98 347.3L256.22 348.69L256.39 350.1L256.49 351.53L256.52 352.98L256.52 374.58L256.52 374.71L256.51 374.83L256.5 374.95L256.48 375.07L256.45 375.19L256.42 375.3L256.39 375.41L256.34 375.52L256.3 375.63L256.25 375.74L256.19 375.84L256.14 375.94L256.07 376.04L256 376.13L255.93 376.22L255.86 376.3L255.78 376.38L255.69 376.46L255.61 376.54L255.52 376.61L255.43 376.67L255.33 376.73L255.23 376.79L255.13 376.84L255.03 376.89L254.92 376.93L254.81 376.97L254.7 377L254.59 377.03L254.47 377.05L254.35 377.06L254.23 377.07L254.11 377.07L253.99 377.07L253.88 377.06L253.76 377.05L253.64 377.03L253.53 377L253.42 376.97L253.31 376.93L253.2 376.89L253.1 376.84L253 376.79L252.9 376.73L252.8 376.67L252.71 376.61L252.62 376.54L252.53 376.46L252.45 376.38L252.37 376.3L252.3 376.22L252.23 376.13L252.16 376.04L252.09 375.94L252.03 375.84L251.98 375.74L251.93 375.63L251.88 375.52L251.84 375.41L251.81 375.3L251.78 375.19L251.75 375.07L251.73 374.95L251.72 374.83L251.71 374.71L251.71 374.58L251.7 374.42L251.69 374.25L251.67 374.09L251.64 373.93L251.61 373.78L251.57 373.62L251.52 373.47L251.47 373.33L251.41 373.18L251.34 373.04L251.27 372.91L251.19 372.77L251.1 372.65L251.01 372.52L250.92 372.4L250.82 372.29L250.71 372.18L250.6 372.07L250.49 371.98L250.37 371.88L250.24 371.79L250.11 371.71L249.98 371.64L249.85 371.57L249.71 371.5L249.57 371.45L249.42 371.4L249.27 371.36L249.12 371.32L248.97 371.29L248.81 371.27L248.65 371.26L248.49 371.26L246.09 371.26L245.97 371.26L245.85 371.25L245.73 371.23L245.61 371.21L245.5 371.18L245.39 371.15L245.28 371.12L245.17 371.07L245.07 371.03L244.97 370.97L244.87 370.92L244.77 370.86L244.68 370.79L244.59 370.72L244.51 370.65L244.42 370.57L244.34 370.49L244.27 370.4L244.2 370.31L244.13 370.22L244.07 370.12L244.01 370.02L243.95 369.92L243.9 369.82L243.86 369.71L243.81 369.6L243.78 369.49L243.75 369.37L243.72 369.25L243.7 369.13L243.69 369.01L243.68 368.89L243.68 368.77L243.68 362.95L223.16 362.95L222.97 362.95L222.78 362.94L222.59 362.94L222.4 362.92L222.21 362.91L222.02 362.89L221.83 362.87L221.64 362.85L221.45 362.82L221.26 362.79L221.08 362.76L220.89 362.73L220.71 362.69L220.52 362.65L220.34 362.6L220.15 362.56L219.97 362.51L219.79 362.45L219.61 362.4L219.43 362.34L219.25 362.28L219.07 362.21L218.89 362.14L218.72 362.07L218.54 362L218.37 361.92L218.2 361.84L218.02 361.76L217.85 361.68L217.68 361.59L217.52 361.5L217.35 361.4L217.18 361.31L217.18 323.9L228.42 323.9L229.82 323.93L231.21 324.04Z" id="a38aPi6B"></path><path d="M230.79 373.72L231.66 374.62L232.23 375.76L232.44 377.07L232.23 378.39L231.66 379.53L230.79 380.43L229.69 381.02L228.42 381.23L227.15 381.02L226.05 380.43L225.18 379.53L224.61 378.39L224.41 377.07L224.61 375.76L225.18 374.62L226.05 373.72L227.15 373.13L228.42 372.92L229.69 373.13L230.79 373.72Z" id="a4faYg7RHc"></path><path d="M208.31 373.72L209.18 374.62L209.75 375.76L209.96 377.07L209.75 378.39L209.18 379.53L208.31 380.43L207.21 381.02L205.94 381.23L204.67 381.02L203.57 380.43L202.7 379.53L202.13 378.39L201.93 377.07L202.13 375.76L202.7 374.62L203.57 373.72L204.67 373.13L205.94 372.92L207.21 373.13L208.31 373.72Z" id="frExJDX59"></path><path d="M210.15 368.9L210.6 369.18L210.99 369.57L211.3 370.05L211.49 370.58L211.56 371.14L211.51 371.68L211.35 372.2L211.08 372.67L210.71 373.08L210.24 373.4L200.61 378.47L200.46 378.54L200.31 378.6L200.15 378.65L199.99 378.69L199.84 378.72L199.68 378.73L199.52 378.74L199.15 378.71L198.78 378.62L198.44 378.47L198.12 378.27L197.83 378.02L197.58 377.72L197.37 377.37L197.18 376.83L197.11 376.28L197.16 375.73L197.32 375.22L197.59 374.74L197.96 374.34L198.43 374.02L208.06 368.95L208.58 368.75L209.12 368.68L209.64 368.73L210.15 368.9Z" id="oMZUNCF0O"></path><path d="M226.3 368.95L235.94 374.02L236.4 374.34L236.77 374.74L237.04 375.22L237.2 375.73L237.25 376.28L237.19 376.83L236.99 377.37L236.79 377.72L236.53 378.02L236.24 378.27L235.92 378.47L235.58 378.62L235.22 378.71L234.84 378.74L234.69 378.73L234.53 378.72L234.37 378.69L234.21 378.65L234.06 378.6L233.91 378.54L233.75 378.47L224.12 373.4L223.66 373.08L223.29 372.67L223.02 372.2L222.85 371.68L222.8 371.14L222.87 370.58L223.06 370.05L223.37 369.57L223.76 369.18L224.22 368.9L224.72 368.73L225.25 368.68L225.78 368.75L226.3 368.95Z" id="haryIrUea"></path><path d="M254.36 389.3L254.95 390.08L255.2 391.03L255.08 391.98L254.63 392.82L253.88 393.43L252.44 394.17L252.18 394.29L251.91 394.37L251.63 394.42L251.36 394.44L250.71 394.35L250.11 394.08L249.6 393.65L249.21 393.07L248.96 392.11L249.07 391.16L249.52 390.33L250.28 389.72L251.71 388.97L252.63 388.71L253.55 388.83L254.36 389.3Z" id="cuXFJeIL7"></path><path d="M252.91 397.17L253.74 397.66L254.31 398.42L254.56 399.34L254.44 400.32L254.09 401.03L253.55 401.57L252.89 401.91L252.15 402.03L251.97 402.02L251.78 402L251.59 401.96L251.4 401.9L249.87 401.38L249.04 400.89L248.48 400.14L248.23 399.22L248.34 398.23L248.82 397.37L249.55 396.79L250.44 396.53L251.39 396.65L252.91 397.17Z" id="j2dDbTFWDV"></path><path d="M246.84 401.58L247.44 402.36L248.16 403.84L248.41 404.8L248.29 405.75L247.84 406.58L247.09 407.19L246.82 407.31L246.55 407.39L246.28 407.44L246.01 407.46L245.36 407.37L244.76 407.1L244.24 406.67L243.85 406.09L243.13 404.6L242.88 403.65L243 402.7L243.45 401.86L244.2 401.25L245.12 400.99L246.04 401.11L246.84 401.58Z" id="bu4v5u17Y"></path></defs><g><g><g><use xlink:href="#gjPFmYBOl" opacity="1" fill="#ffffff" fill-opacity="1"></use><g><use xlink:href="#gjPFmYBOl" opacity="1" fill-opacity="0" stroke="#992825" stroke-width="10" stroke-opacity="1"></use></g></g><g><use xlink:href="#b59zuWW1Kp" opacity="1" fill="#ffffff" fill-opacity="1"></use><g><use xlink:href="#b59zuWW1Kp" opacity="1" fill-opacity="0" stroke="#000000" stroke-width="1" stroke-opacity="0"></use></g></g><g><use xlink:href="#b5MFza2v1O" opacity="1" fill="#ffffff" fill-opacity="1"></use><g><use xlink:href="#b5MFza2v1O" opacity="1" fill-opacity="0" stroke="#000000" stroke-width="1" stroke-opacity="0"></use></g></g><g><use xlink:href="#a16EvB3tSC" opacity="1" fill="#ffffff" fill-opacity="1"></use><g><use xlink:href="#a16EvB3tSC" opacity="1" fill-opacity="0" stroke="#000000" stroke-width="1" stroke-opacity="0"></use></g></g><g><use xlink:href="#c4IbAtK5OA" opacity="1" fill="#ff7816" fill-opacity="1"></use><g><use xlink:href="#c4IbAtK5OA" opacity="1" fill-opacity="0" stroke="#000000" stroke-width="1" stroke-opacity="0"></use></g></g><g><use xlink:href="#bbJAAEeEm" opacity="1" fill="#fdbf00" fill-opacity="1"></use><g><use xlink:href="#bbJAAEeEm" opacity="1" fill-opacity="0" stroke="#000000" stroke-width="1" stroke-opacity="0"></use></g></g><g><use xlink:href="#a1f2s7JJnw" opacity="1" fill="#fdbf00" fill-opacity="1"></use><g><use xlink:href="#a1f2s7JJnw" opacity="1" fill-opacity="0" stroke="#000000" stroke-width="1" stroke-opacity="0"></use></g></g><g><use xlink:href="#b37iMmzAT5" opacity="1" fill="#fdbf00" fill-opacity="1"></use><g><use xlink:href="#b37iMmzAT5" opacity="1" fill-opacity="0" stroke="#000000" stroke-width="1" stroke-opacity="0"></use></g></g><g><use xlink:href="#fB6LsHoe5" opacity="1" fill="#ae2538" fill-opacity="1"></use><g><use xlink:href="#fB6LsHoe5" opacity="1" fill-opacity="0" stroke="#000000" stroke-width="1" stroke-opacity="0"></use></g></g><g><use xlink:href="#bSbk0FwE6" opacity="1" fill="#76e2f8" fill-opacity="1"></use><g><use xlink:href="#bSbk0FwE6" opacity="1" fill-opacity="0" stroke="#000000" stroke-width="1" stroke-opacity="0"></use></g></g><g><use xlink:href="#e8s76WXcnW" opacity="1" fill="#76e2f8" fill-opacity="1"></use><g><use xlink:href="#e8s76WXcnW" opacity="1" fill-opacity="0" stroke="#000000" stroke-width="1" stroke-opacity="0"></use></g></g><g><use xlink:href="#ap1fsUbQo" opacity="1" fill="#cc2e43" fill-opacity="1"></use><g><use xlink:href="#ap1fsUbQo" opacity="1" fill-opacity="0" stroke="#000000" stroke-width="1" stroke-opacity="0"></use></g></g><g><use xlink:href="#cTseEvx" opacity="1" fill="#deecf1" fill-opacity="1"></use><g><use xlink:href="#cTseEvx" opacity="1" fill-opacity="0" stroke="#000000" stroke-width="1" stroke-opacity="0"></use></g></g><g><use xlink:href="#c6qMPGUqFf" opacity="1" fill="#c6e2e7" fill-opacity="1"></use><g><use xlink:href="#c6qMPGUqFf" opacity="1" fill-opacity="0" stroke="#000000" stroke-width="1" stroke-opacity="0"></use></g></g><g><use xlink:href="#a2qRrak1au" opacity="1" fill="#ec5569" fill-opacity="1"></use><g><use xlink:href="#a2qRrak1au" opacity="1" fill-opacity="0" stroke="#000000" stroke-width="1" stroke-opacity="0"></use></g></g><g><use xlink:href="#b1IvyC8uA8" opacity="1" fill="#c6e2e7" fill-opacity="1"></use><g><use xlink:href="#b1IvyC8uA8" opacity="1" fill-opacity="0" stroke="#000000" stroke-width="1" stroke-opacity="0"></use></g></g><g><use xlink:href="#b1iqhZmKo8" opacity="1" fill="#384949" fill-opacity="1"></use><g><use xlink:href="#b1iqhZmKo8" opacity="1" fill-opacity="0" stroke="#000000" stroke-width="1" stroke-opacity="0"></use></g></g><g><use xlink:href="#a1l1xjukK9" opacity="1" fill="#c6e2e7" fill-opacity="1"></use><g><use xlink:href="#a1l1xjukK9" opacity="1" fill-opacity="0" stroke="#000000" stroke-width="1" stroke-opacity="0"></use></g></g><g><use xlink:href="#anmZaMSi3" opacity="1" fill="#4a696f" fill-opacity="1"></use><g><use xlink:href="#anmZaMSi3" opacity="1" fill-opacity="0" stroke="#000000" stroke-width="1" stroke-opacity="0"></use></g></g><g><use xlink:href="#f3ttuLclLn" opacity="1" fill="#deecf1" fill-opacity="1"></use><g><use xlink:href="#f3ttuLclLn" opacity="1" fill-opacity="0" stroke="#000000" stroke-width="1" stroke-opacity="0"></use></g></g><g><use xlink:href="#hiwhB1TYo" opacity="1" fill="#3e5959" fill-opacity="1"></use><g><use xlink:href="#hiwhB1TYo" opacity="1" fill-opacity="0" stroke="#000000" stroke-width="1" stroke-opacity="0"></use></g></g><g><use xlink:href="#c4ekVbVX8U" opacity="1" fill="#e63950" fill-opacity="1"></use><g><use xlink:href="#c4ekVbVX8U" opacity="1" fill-opacity="0" stroke="#000000" stroke-width="1" stroke-opacity="0"></use></g></g><g><use xlink:href="#aObaLlS1K" opacity="1" fill="#fdbf00" fill-opacity="1"></use><g><use xlink:href="#aObaLlS1K" opacity="1" fill-opacity="0" stroke="#000000" stroke-width="1" stroke-opacity="0"></use></g></g><g><use xlink:href="#aJNkPsLj" opacity="1" fill="#ff9100" fill-opacity="1"></use><g><use xlink:href="#aJNkPsLj" opacity="1" fill-opacity="0" stroke="#000000" stroke-width="1" stroke-opacity="0"></use></g></g><g><use xlink:href="#a2c3gI4g1j" opacity="1" fill="#00ab94" fill-opacity="1"></use><g><use xlink:href="#a2c3gI4g1j" opacity="1" fill-opacity="0" stroke="#000000" stroke-width="1" stroke-opacity="0"></use></g></g><g><use xlink:href="#c4qp6n9M4J" opacity="1" fill="#61d7a8" fill-opacity="1"></use><g><use xlink:href="#c4qp6n9M4J" opacity="1" fill-opacity="0" stroke="#000000" stroke-width="1" stroke-opacity="0"></use></g></g><g><use xlink:href="#c4CUcIXlHd" opacity="1" fill="#009184" fill-opacity="1"></use><g><use xlink:href="#c4CUcIXlHd" opacity="1" fill-opacity="0" stroke="#000000" stroke-width="1" stroke-opacity="0"></use></g></g><g><use xlink:href="#c2RbHB6fiA" opacity="1" fill="#9abadb" fill-opacity="1"></use><g><use xlink:href="#c2RbHB6fiA" opacity="1" fill-opacity="0" stroke="#000000" stroke-width="1" stroke-opacity="0"></use></g></g><g><use xlink:href="#gmeoqkS0p" opacity="1" fill="#99271b" fill-opacity="1"></use><g><use xlink:href="#gmeoqkS0p" opacity="1" fill-opacity="0" stroke="#000000" stroke-width="1" stroke-opacity="0"></use></g></g><g><use xlink:href="#f1YXGAhxfn" opacity="1" fill="#ffbd86" fill-opacity="1"></use><g><use xlink:href="#f1YXGAhxfn" opacity="1" fill-opacity="0" stroke="#000000" stroke-width="1" stroke-opacity="0"></use></g></g><g><use xlink:href="#e1VXm9dKsC" opacity="1" fill="#ffbd86" fill-opacity="1"></use><g><use xlink:href="#e1VXm9dKsC" opacity="1" fill-opacity="0" stroke="#000000" stroke-width="1" stroke-opacity="0"></use></g></g><g><use xlink:href="#a3wIwMrdK" opacity="1" fill="#ffbd86" fill-opacity="1"></use><g><use xlink:href="#a3wIwMrdK" opacity="1" fill-opacity="0" stroke="#000000" stroke-width="1" stroke-opacity="0"></use></g></g><g><use xlink:href="#e2DTUiQY1f" opacity="1" fill="#f6a96c" fill-opacity="1"></use><g><use xlink:href="#e2DTUiQY1f" opacity="1" fill-opacity="0" stroke="#000000" stroke-width="1" stroke-opacity="0"></use></g></g><g><use xlink:href="#aisFV1wrK" opacity="1" fill="#fdbf00" fill-opacity="1"></use><g><use xlink:href="#aisFV1wrK" opacity="1" fill-opacity="0" stroke="#000000" stroke-width="1" stroke-opacity="0"></use></g></g><g><use xlink:href="#eb4Gc9pFz" opacity="1" fill="#ff9100" fill-opacity="1"></use><g><use xlink:href="#eb4Gc9pFz" opacity="1" fill-opacity="0" stroke="#000000" stroke-width="1" stroke-opacity="0"></use></g></g><g><use xlink:href="#b1D9eODhTc" opacity="1" fill="#fed2a4" fill-opacity="1"></use><g><use xlink:href="#b1D9eODhTc" opacity="1" fill-opacity="0" stroke="#000000" stroke-width="1" stroke-opacity="0"></use></g></g><g><use xlink:href="#dcx7a5JnJ" opacity="1" fill="#ffbd86" fill-opacity="1"></use><g><use xlink:href="#dcx7a5JnJ" opacity="1" fill-opacity="0" stroke="#000000" stroke-width="1" stroke-opacity="0"></use></g></g><g><use xlink:href="#avIiBfueu" opacity="1" fill="#99271b" fill-opacity="1"></use><g><use xlink:href="#avIiBfueu" opacity="1" fill-opacity="0" stroke="#000000" stroke-width="1" stroke-opacity="0"></use></g></g><g><use xlink:href="#c2v5rOIvvV" opacity="1" fill="#fedbab" fill-opacity="1"></use><g><use xlink:href="#c2v5rOIvvV" opacity="1" fill-opacity="0" stroke="#000000" stroke-width="1" stroke-opacity="0"></use></g></g><g><use xlink:href="#a1Bp4de3Eh" opacity="1" fill="#fdc377" fill-opacity="1"></use><g><use xlink:href="#a1Bp4de3Eh" opacity="1" fill-opacity="0" stroke="#000000" stroke-width="1" stroke-opacity="0"></use></g></g><g><use xlink:href="#a2HAX29Cvp" opacity="1" fill="#53433f" fill-opacity="1"></use><g><use xlink:href="#a2HAX29Cvp" opacity="1" fill-opacity="0" stroke="#000000" stroke-width="1" stroke-opacity="0"></use></g></g><g><use xlink:href="#a45OlHUYIh" opacity="1" fill="#3e322e" fill-opacity="1"></use><g><use xlink:href="#a45OlHUYIh" opacity="1" fill-opacity="0" stroke="#000000" stroke-width="1" stroke-opacity="0"></use></g></g><g><use xlink:href="#acHsBVjqr" opacity="1" fill="#376482" fill-opacity="1"></use><g><use xlink:href="#acHsBVjqr" opacity="1" fill-opacity="0" stroke="#000000" stroke-width="1" stroke-opacity="0"></use></g></g><g><use xlink:href="#e1qQvt7B1X" opacity="1" fill="#2e4252" fill-opacity="1"></use><g><use xlink:href="#e1qQvt7B1X" opacity="1" fill-opacity="0" stroke="#000000" stroke-width="1" stroke-opacity="0"></use></g></g><g><use xlink:href="#a12qB871o" opacity="1" fill="#3e322e" fill-opacity="1"></use><g><use xlink:href="#a12qB871o" opacity="1" fill-opacity="0" stroke="#000000" stroke-width="1" stroke-opacity="0"></use></g></g><g><use xlink:href="#aU8ZFnBXB" opacity="1" fill="#53433f" fill-opacity="1"></use><g><use xlink:href="#aU8ZFnBXB" opacity="1" fill-opacity="0" stroke="#000000" stroke-width="1" stroke-opacity="0"></use></g></g><g><use xlink:href="#dpdxIVI9L" opacity="1" fill="#376482" fill-opacity="1"></use><g><use xlink:href="#dpdxIVI9L" opacity="1" fill-opacity="0" stroke="#000000" stroke-width="1" stroke-opacity="0"></use></g></g><g><use xlink:href="#e7hrdeLuY1" opacity="1" fill="#2e4252" fill-opacity="1"></use><g><use xlink:href="#e7hrdeLuY1" opacity="1" fill-opacity="0" stroke="#000000" stroke-width="1" stroke-opacity="0"></use></g></g><g><use xlink:href="#e1DGIjYX0f" opacity="1" fill="#fff2b4" fill-opacity="1"></use><g><use xlink:href="#e1DGIjYX0f" opacity="1" fill-opacity="0" stroke="#000000" stroke-width="1" stroke-opacity="0"></use></g></g><g><use xlink:href="#bB3qidY63" opacity="1" fill="#fff2b4" fill-opacity="1"></use><g><use xlink:href="#bB3qidY63" opacity="1" fill-opacity="0" stroke="#000000" stroke-width="1" stroke-opacity="0"></use></g></g><g><use xlink:href="#bobKDWYMC" opacity="1" fill="#fff2b4" fill-opacity="1"></use><g><use xlink:href="#bobKDWYMC" opacity="1" fill-opacity="0" stroke="#000000" stroke-width="1" stroke-opacity="0"></use></g></g><g><use xlink:href="#dB3s8Wo4f" opacity="1" fill="#fedbab" fill-opacity="1"></use><g><use xlink:href="#dB3s8Wo4f" opacity="1" fill-opacity="0" stroke="#000000" stroke-width="1" stroke-opacity="0"></use></g></g><g><use xlink:href="#g4MmUH41AM" opacity="1" fill="#fdc377" fill-opacity="1"></use><g><use xlink:href="#g4MmUH41AM" opacity="1" fill-opacity="0" stroke="#000000" stroke-width="1" stroke-opacity="0"></use></g></g><g><use xlink:href="#c1kSkmcURz" opacity="1" fill="#53433f" fill-opacity="1"></use><g><use xlink:href="#c1kSkmcURz" opacity="1" fill-opacity="0" stroke="#000000" stroke-width="1" stroke-opacity="0"></use></g></g><g><use xlink:href="#a1zmhEWLi" opacity="1" fill="#3e322e" fill-opacity="1"></use><g><use xlink:href="#a1zmhEWLi" opacity="1" fill-opacity="0" stroke="#000000" stroke-width="1" stroke-opacity="0"></use></g></g><g><use xlink:href="#a1KSbWI4hb" opacity="1" fill="#376482" fill-opacity="1"></use><g><use xlink:href="#a1KSbWI4hb" opacity="1" fill-opacity="0" stroke="#000000" stroke-width="1" stroke-opacity="0"></use></g></g><g><use xlink:href="#a38aPi6B" opacity="1" fill="#2e4252" fill-opacity="1"></use><g><use xlink:href="#a38aPi6B" opacity="1" fill-opacity="0" stroke="#000000" stroke-width="1" stroke-opacity="0"></use></g></g><g><use xlink:href="#a4faYg7RHc" opacity="1" fill="#3e322e" fill-opacity="1"></use><g><use xlink:href="#a4faYg7RHc" opacity="1" fill-opacity="0" stroke="#000000" stroke-width="1" stroke-opacity="0"></use></g></g><g><use xlink:href="#frExJDX59" opacity="1" fill="#53433f" fill-opacity="1"></use><g><use xlink:href="#frExJDX59" opacity="1" fill-opacity="0" stroke="#000000" stroke-width="1" stroke-opacity="0"></use></g></g><g><use xlink:href="#oMZUNCF0O" opacity="1" fill="#376482" fill-opacity="1"></use><g><use xlink:href="#oMZUNCF0O" opacity="1" fill-opacity="0" stroke="#000000" stroke-width="1" stroke-opacity="0"></use></g></g><g><use xlink:href="#haryIrUea" opacity="1" fill="#2e4252" fill-opacity="1"></use><g><use xlink:href="#haryIrUea" opacity="1" fill-opacity="0" stroke="#000000" stroke-width="1" stroke-opacity="0"></use></g></g><g><use xlink:href="#cuXFJeIL7" opacity="1" fill="#fff2b4" fill-opacity="1"></use><g><use xlink:href="#cuXFJeIL7" opacity="1" fill-opacity="0" stroke="#000000" stroke-width="1" stroke-opacity="0"></use></g></g><g><use xlink:href="#j2dDbTFWDV" opacity="1" fill="#fff2b4" fill-opacity="1"></use><g><use xlink:href="#j2dDbTFWDV" opacity="1" fill-opacity="0" stroke="#000000" stroke-width="1" stroke-opacity="0"></use></g></g><g><use xlink:href="#bu4v5u17Y" opacity="1" fill="#fff2b4" fill-opacity="1"></use><g><use xlink:href="#bu4v5u17Y" opacity="1" fill-opacity="0" stroke="#000000" stroke-width="1" stroke-opacity="0"></use></g></g></g></g></svg>