<?xml version="1.0" encoding="UTF-8" standalone="no"?>
<!DOCTYPE svg PUBLIC "-//W3C//DTD SVG 1.1//EN" "http://www.w3.org/Graphics/SVG/1.1/DTD/svg11.dtd">
<svg version="1.1" xmlns="http://www.w3.org/2000/svg" xmlns:xlink="http://www.w3.org/1999/xlink" preserveAspectRatio="xMidYMid meet" viewBox="0 0 640 640" width="640" height="640"><defs><path d="M577.91 310.6C577.91 448.58 465.88 560.6 327.91 560.6C189.93 560.6 77.91 448.58 77.91 310.6C77.91 172.62 189.93 60.6 327.91 60.6C465.88 60.6 577.91 172.62 577.91 310.6Z" id="a7LqEK6La"></path><path d="M374.98 216.07L375.84 216.48L376.61 217.04L377.27 217.72L377.82 218.5L378.22 219.38L378.48 220.33L378.57 221.34L378.48 222.35L378.22 223.3L377.82 224.18L377.27 224.96L376.61 225.64L375.84 226.19L374.98 226.61L374.04 226.87L373.05 226.96L367.53 226.96L366.54 226.87L365.6 226.61L364.74 226.19L363.97 225.64L363.31 224.96L362.76 224.18L362.35 223.3L362.1 222.35L362.01 221.34L362.1 220.33L362.35 219.38L362.76 218.5L363.31 217.72L363.97 217.04L364.74 216.48L365.6 216.07L366.54 215.81L367.53 215.72L373.05 215.72L374.04 215.81L374.98 216.07Z" id="ewT6nBT9c"></path><path d="M346.3 215.78L346.71 215.86L347.11 215.98L347.5 216.12L347.87 216.29L348.23 216.48L348.57 216.7L348.9 216.95L349.2 217.22L349.49 217.51L349.75 217.82L349.99 218.15L350.21 218.5L350.4 218.87L350.57 219.25L350.71 219.64L350.82 220.05L350.9 220.47L350.95 220.9L350.96 221.34L350.95 221.78L350.9 222.21L350.82 222.63L350.71 223.03L350.57 223.43L350.4 223.81L350.21 224.18L349.99 224.52L349.75 224.85L349.49 225.17L349.2 225.46L348.9 225.73L348.57 225.97L348.23 226.19L347.87 226.39L347.5 226.56L347.11 226.7L346.71 226.81L346.3 226.89L345.87 226.94L345.44 226.96L308.84 226.96L308.41 226.94L307.98 226.89L307.57 226.81L307.17 226.7L306.78 226.56L306.41 226.39L306.05 226.19L305.71 225.97L305.38 225.73L305.08 225.46L304.79 225.17L304.53 224.85L304.29 224.52L304.07 224.18L303.88 223.81L303.71 223.43L303.57 223.03L303.46 222.63L303.38 222.21L303.33 221.78L303.32 221.34L303.33 220.9L303.38 220.47L303.46 220.05L303.57 219.64L303.71 219.25L303.88 218.87L304.07 218.5L304.29 218.15L304.53 217.82L304.79 217.51L305.08 217.22L305.38 216.95L305.71 216.7L306.05 216.48L306.41 216.29L306.78 216.12L307.17 215.98L307.57 215.86L307.98 215.78L308.41 215.73L308.84 215.72L345.44 215.72L345.87 215.73L346.3 215.78Z" id="lfv5j2hdm"></path><path d="M357.03 243.85L357.3 243.89L357.57 243.93L357.83 243.99L358.08 244.06L358.33 244.15L358.57 244.24L358.81 244.35L359.05 244.47L359.27 244.59L359.49 244.73L359.7 244.88L359.91 245.04L360.11 245.21L360.3 245.38L360.48 245.57L360.65 245.76L360.82 245.96L360.97 246.17L361.12 246.39L361.25 246.61L361.38 246.84L361.49 247.08L361.6 247.32L361.69 247.57L361.77 247.82L361.84 248.08L361.9 248.35L361.95 248.62L361.98 248.89L362 249.17L362.01 249.45L362 249.73L361.98 250.01L361.95 250.28L361.9 250.55L361.84 250.81L361.77 251.07L361.69 251.33L361.6 251.58L361.49 251.82L361.38 252.06L361.25 252.29L361.12 252.51L360.97 252.73L360.82 252.94L360.65 253.14L360.48 253.33L360.3 253.52L360.11 253.69L359.91 253.86L359.7 254.02L359.49 254.17L359.27 254.3L359.05 254.43L358.81 254.55L358.57 254.65L358.33 254.75L358.08 254.83L357.83 254.9L357.57 254.96L357.3 255.01L357.03 255.04L356.76 255.06L356.49 255.07L290.73 255.07L290.45 255.06L290.18 255.04L289.91 255.01L289.65 254.96L289.39 254.9L289.13 254.83L288.88 254.75L288.64 254.65L288.4 254.55L288.17 254.43L287.94 254.3L287.72 254.17L287.51 254.02L287.3 253.86L287.11 253.69L286.92 253.52L286.74 253.33L286.56 253.14L286.4 252.94L286.24 252.73L286.1 252.51L285.96 252.29L285.84 252.06L285.72 251.82L285.62 251.58L285.52 251.33L285.44 251.07L285.37 250.81L285.31 250.55L285.27 250.28L285.23 250.01L285.21 249.73L285.21 249.45L285.21 249.17L285.23 248.89L285.27 248.62L285.31 248.35L285.37 248.08L285.44 247.82L285.52 247.57L285.62 247.32L285.72 247.08L285.84 246.84L285.96 246.61L286.1 246.39L286.24 246.17L286.4 245.96L286.56 245.76L286.74 245.57L286.92 245.38L287.11 245.21L287.3 245.04L287.51 244.88L287.72 244.73L287.94 244.59L288.17 244.47L288.4 244.35L288.64 244.24L288.88 244.15L289.13 244.06L289.39 243.99L289.65 243.93L289.91 243.89L290.18 243.85L290.45 243.83L290.73 243.83L356.49 243.83L356.76 243.83L357.03 243.85Z" id="f10lCPsvnx"></path><path d="M172.2 444.5L172.2 269.8L374.76 269.8L374.76 444.5L172.2 444.5Z" id="a1I2EghCrz"></path><path d="M263.64 444.5L263.64 269.8L374.76 269.8L374.76 444.5L263.64 444.5Z" id="ebZGgAcRQ"></path><path d="M356.3 444.5L356.3 187.51L487.29 187.51L487.29 444.5L356.3 444.5Z" id="fHmYALrlO"></path><path d="M421.79 444.5L421.79 187.51L487.29 187.51L487.29 444.5L421.79 444.5Z" id="b6Hf9t9dFU"></path><path d="M271.64 182.81L272.98 182.89L274.32 183.01L275.65 183.16L276.97 183.35L278.28 183.57L279.58 183.81L280.87 184.1L282.15 184.41L283.42 184.75L284.68 185.13L285.93 185.54L287.16 185.97L288.38 186.44L289.59 186.94L290.78 187.47L291.96 188.03L293.13 188.61L294.27 189.23L295.41 189.87L296.52 190.54L297.62 191.25L298.7 191.97L299.76 192.73L300.81 193.51L301.83 194.32L302.84 195.16L303.83 196.03L304.79 196.92L305.73 197.83L306.66 198.77L307.56 199.74L308.44 200.73L309.29 201.75L310.12 202.79L310.93 203.86L311.71 204.94L312.47 206.06L313.2 207.19L292.62 219.85L292.23 219.24L291.82 218.65L291.4 218.06L290.97 217.49L290.52 216.93L290.06 216.39L289.59 215.86L289.11 215.34L288.62 214.83L288.11 214.34L287.6 213.86L287.07 213.4L286.53 212.95L285.98 212.52L285.42 212.1L284.85 211.69L284.28 211.3L283.69 210.93L283.09 210.57L282.48 210.22L281.87 209.89L281.25 209.58L280.62 209.28L279.98 209L279.33 208.73L278.68 208.48L278.02 208.24L277.35 208.03L276.68 207.82L276 207.64L275.32 207.47L274.63 207.32L273.93 207.19L273.23 207.07L272.52 206.97L271.81 206.89L271.1 206.83L270.38 206.78L269.66 206.76L268.93 206.75L268.21 206.76L267.49 206.78L266.77 206.83L266.05 206.89L265.34 206.97L264.64 207.07L263.94 207.19L263.24 207.32L262.55 207.47L261.87 207.64L261.19 207.82L260.51 208.03L259.85 208.24L259.19 208.48L258.54 208.73L257.89 209L257.25 209.28L256.62 209.58L256 209.89L255.38 210.22L254.78 210.57L254.18 210.93L253.59 211.3L253.02 211.69L252.45 212.1L251.89 212.52L251.34 212.95L250.8 213.4L250.27 213.86L249.76 214.34L249.25 214.83L248.76 215.34L248.27 215.86L247.8 216.39L247.35 216.93L246.9 217.49L246.47 218.06L246.05 218.65L245.64 219.24L245.25 219.85L224.67 207.19L225.4 206.06L226.16 204.94L226.94 203.86L227.75 202.79L228.58 201.75L229.43 200.73L230.31 199.74L231.21 198.77L232.13 197.83L233.08 196.92L234.04 196.03L235.03 195.16L236.03 194.32L237.06 193.51L238.1 192.73L239.17 191.97L240.25 191.25L241.35 190.54L242.46 189.87L243.59 189.23L244.74 188.61L245.91 188.03L247.08 187.47L248.28 186.94L249.48 186.44L250.71 185.97L251.94 185.54L253.19 185.13L254.44 184.75L255.71 184.41L256.99 184.1L258.29 183.81L259.59 183.57L260.9 183.35L262.22 183.16L263.55 183.01L264.88 182.89L266.23 182.81L267.58 182.76L268.93 182.74L270.29 182.76L271.64 182.81Z" id="aeZgF26LD"></path><path d="M273.95 141.3L276.44 141.46L278.92 141.68L281.38 141.96L283.82 142.3L286.25 142.7L288.66 143.17L291.05 143.69L293.43 144.27L295.78 144.91L298.11 145.6L300.42 146.36L302.71 147.17L304.97 148.04L307.21 148.96L309.42 149.94L311.6 150.97L313.76 152.06L315.89 153.2L317.99 154.39L320.05 155.64L322.09 156.94L324.09 158.29L326.06 159.69L328 161.14L329.9 162.65L331.76 164.2L333.59 165.8L335.38 167.45L337.13 169.15L338.84 170.89L340.51 172.69L342.13 174.53L343.72 176.41L345.26 178.34L346.75 180.32L348.2 182.34L349.61 184.4L350.96 186.51L330.39 199.17L329.37 197.59L328.32 196.04L327.23 194.53L326.11 193.04L324.96 191.6L323.77 190.18L322.55 188.81L321.3 187.46L320.02 186.15L318.71 184.88L317.37 183.64L316 182.44L314.6 181.28L313.18 180.15L311.73 179.06L310.25 178.01L308.75 177L307.23 176.03L305.68 175.09L304.11 174.2L302.51 173.34L300.9 172.53L299.26 171.75L297.6 171.02L295.93 170.33L294.23 169.68L292.52 169.07L290.79 168.5L289.04 167.98L287.28 167.5L285.5 167.07L283.71 166.67L281.9 166.33L280.09 166.03L278.25 165.77L276.41 165.56L274.56 165.4L272.69 165.28L270.82 165.21L268.93 165.18L267.05 165.21L265.18 165.28L263.31 165.4L261.46 165.56L259.61 165.77L257.78 166.03L255.96 166.33L254.16 166.67L252.36 167.07L250.59 167.5L248.82 167.98L247.08 168.5L245.35 169.07L243.64 169.68L241.94 170.33L240.27 171.02L238.61 171.75L236.97 172.53L235.36 173.34L233.76 174.2L232.19 175.09L230.64 176.03L229.12 177L227.62 178.01L226.14 179.06L224.69 180.15L223.27 181.28L221.87 182.44L220.5 183.64L219.16 184.88L217.85 186.15L216.57 187.46L215.32 188.81L214.1 190.18L212.91 191.6L211.76 193.04L210.64 194.53L209.55 196.04L208.5 197.59L207.48 199.17L186.9 186.51L188.26 184.4L189.67 182.34L191.12 180.32L192.61 178.34L194.15 176.41L195.74 174.53L197.36 172.69L199.03 170.89L200.74 169.15L202.49 167.45L204.28 165.8L206.11 164.2L207.97 162.65L209.87 161.14L211.81 159.69L213.78 158.29L215.78 156.94L217.82 155.64L219.88 154.39L221.98 153.2L224.11 152.06L226.27 150.97L228.45 149.94L230.66 148.96L232.9 148.04L235.16 147.17L237.45 146.36L239.76 145.6L242.09 144.91L244.44 144.27L246.81 143.69L249.21 143.17L251.62 142.7L254.04 142.3L256.49 141.96L258.95 141.68L261.43 141.46L263.92 141.3L266.42 141.21L268.93 141.18L271.45 141.21L273.95 141.3Z" id="a2fPtwPMij"></path><path d="M271.66 224.78L272.96 225.1L274.21 225.52L275.41 226.06L276.55 226.69L277.62 227.43L278.61 228.25L279.53 229.16L280.36 230.15L281.1 231.21L281.74 232.33L282.28 233.52L282.71 234.76L283.03 236.05L283.22 237.39L283.28 238.76L283.22 240.13L283.03 241.46L282.71 242.75L282.28 243.99L281.74 245.18L281.1 246.3L280.36 247.36L279.53 248.35L278.61 249.26L277.62 250.08L276.55 250.82L275.41 251.45L274.21 251.99L272.96 252.41L271.66 252.72L270.32 252.92L268.93 252.98L267.55 252.92L266.21 252.72L264.91 252.41L263.65 251.99L262.46 251.45L261.32 250.82L260.25 250.08L259.26 249.26L258.34 248.35L257.51 247.36L256.77 246.3L256.13 245.18L255.59 243.99L255.16 242.75L254.84 241.46L254.65 240.13L254.58 238.76L254.65 237.39L254.84 236.05L255.16 234.76L255.59 233.52L256.13 232.33L256.77 231.21L257.51 230.15L258.34 229.16L259.26 228.25L260.25 227.43L261.32 226.69L262.46 226.06L263.65 225.52L264.91 225.1L266.21 224.78L267.55 224.59L268.93 224.53L270.32 224.59L271.66 224.78Z" id="c6vh3G6KS"></path><path d="M451.02 241.49L451.02 258.88L431.02 258.88L431.02 277.71L412.56 277.71L412.56 258.88L392.56 258.88L392.56 241.49L412.56 241.49L412.56 222.66L431.02 222.66L431.02 241.49L451.02 241.49Z" id="a2g3gIvtpc"></path><path d="M395.66 312.36L395.66 295.56L413.51 295.56L413.51 312.36L395.66 312.36Z" id="a2WRXykcsN"></path><path d="M430.53 312.36L430.53 295.56L448.38 295.56L448.38 312.36L430.53 312.36Z" id="g2DX01sK4X"></path><path d="M395.66 342.69L395.66 325.89L413.51 325.89L413.51 342.69L395.66 342.69Z" id="bF5vgQU7G"></path><path d="M430.53 342.69L430.53 325.89L448.38 325.89L448.38 342.69L430.53 342.69Z" id="iOTcZSOtY"></path><path d="M395.66 373.02L395.66 356.21L413.51 356.21L413.51 373.02L395.66 373.02Z" id="azCbkg5T"></path><path d="M430.53 373.02L430.53 356.21L448.38 356.21L448.38 373.02L430.53 373.02Z" id="b38cF7hwQE"></path><path d="M395.66 403.35L395.66 386.54L413.51 386.54L413.51 403.35L395.66 403.35Z" id="b18X9IhA1u"></path><path d="M430.53 403.35L430.53 386.54L448.38 386.54L448.38 403.35L430.53 403.35Z" id="ajM3HcRUf"></path><path d="M207.19 444.5L207.19 357.01L320.08 357.01L320.08 444.5L207.19 444.5Z" id="g61S4Y88V"></path><path d="M202.07 320.27L202.07 303.18L220.23 303.18L220.23 320.27L202.07 320.27Z" id="aiSryyKmu"></path><path d="M237.15 320.27L237.15 303.18L255.31 303.18L255.31 320.27L237.15 320.27Z" id="a5WezDqh3"></path><path d="M272.23 320.27L272.23 303.18L290.38 303.18L290.38 320.27L272.23 320.27Z" id="aZXJvgpdd"></path><path d="M307.31 320.27L307.31 303.18L325.46 303.18L325.46 320.27L307.31 320.27Z" id="hxfHZed9Y"></path><path d="M451.02 241.49L451.02 258.88L431.02 258.88L431.02 277.71L421.79 277.71L421.79 222.66L431.02 222.66L431.02 241.49L451.02 241.49Z" id="b2tC1s8GDH"></path><path d="M263.64 444.5L263.64 357.01L320.08 357.01L320.08 444.5L263.64 444.5Z" id="a3GOIT6AIW"></path><path d="M272.22 224.9L273.77 225.36L275.24 225.97L276.63 226.74L277.91 227.65L279.08 228.69L280.13 229.86L281.05 231.13L281.83 232.5L282.45 233.96L282.91 235.49L283.19 237.1L283.28 238.76L283.19 240.42L282.91 242.02L282.45 243.55L281.83 245.01L281.05 246.38L280.13 247.65L279.08 248.82L277.91 249.86L276.63 250.77L275.24 251.54L273.77 252.15L272.22 252.61L270.61 252.89L268.93 252.98L268.93 224.53L270.61 224.62L272.22 224.9Z" id="bMnRGdgkk"></path><path d="M273.25 182.91L275.38 183.13L277.5 183.43L279.58 183.81L281.64 184.28L283.68 184.83L285.68 185.45L287.65 186.16L289.59 186.94L291.49 187.8L293.36 188.73L295.18 189.74L296.96 190.82L298.7 191.97L300.39 193.2L302.04 194.49L303.63 195.85L305.17 197.28L306.66 198.77L308.09 200.33L309.46 201.95L310.77 203.64L312.02 205.39L313.2 207.19L292.62 219.85L291.98 218.88L291.31 217.95L290.61 217.04L289.88 216.17L289.11 215.34L288.32 214.54L287.49 213.77L286.64 213.04L285.76 212.35L284.85 211.69L283.92 211.08L282.97 210.5L281.99 209.96L281 209.46L279.98 209L278.94 208.58L277.89 208.2L276.82 207.86L275.73 207.57L274.63 207.32L273.51 207.12L272.38 206.96L271.24 206.84L270.09 206.77L268.93 206.75L268.93 182.74L271.1 182.78L273.25 182.91Z" id="afINlg8xS"></path><path d="M273.95 141.3L276.44 141.46L278.92 141.68L281.38 141.96L283.82 142.3L286.25 142.7L288.66 143.17L291.05 143.69L293.43 144.27L295.78 144.91L298.11 145.6L300.42 146.36L302.71 147.17L304.97 148.04L307.21 148.96L309.42 149.94L311.6 150.97L313.76 152.06L315.89 153.2L317.99 154.39L320.05 155.64L322.09 156.94L324.09 158.29L326.06 159.69L328 161.14L329.9 162.65L331.76 164.2L333.59 165.8L335.38 167.45L337.13 169.15L338.84 170.89L340.51 172.69L342.13 174.53L343.72 176.41L345.26 178.34L346.75 180.32L348.2 182.34L349.61 184.4L350.96 186.51L330.39 199.17L329.37 197.59L328.32 196.04L327.23 194.53L326.11 193.04L324.96 191.6L323.77 190.18L322.55 188.81L321.3 187.46L320.02 186.15L318.71 184.88L317.37 183.64L316 182.44L314.6 181.28L313.18 180.15L311.73 179.06L310.25 178.01L308.75 177L307.23 176.03L305.68 175.09L304.11 174.2L302.51 173.34L300.9 172.53L299.26 171.75L297.6 171.02L295.93 170.33L294.23 169.68L292.52 169.07L290.79 168.5L289.04 167.98L287.28 167.5L285.5 167.07L283.71 166.67L281.9 166.33L280.09 166.03L278.25 165.77L276.41 165.56L274.56 165.4L272.69 165.28L270.82 165.21L268.93 165.18L268.93 141.18L271.45 141.21L273.95 141.3Z" id="asRvZOUNN"></path></defs><g><g><g><use xlink:href="#a7LqEK6La" opacity="1" fill="#ffffff" fill-opacity="1"></use><g><use xlink:href="#a7LqEK6La" opacity="1" fill-opacity="0" stroke="#992825" stroke-width="10" stroke-opacity="1"></use></g></g><g><use xlink:href="#ewT6nBT9c" opacity="1" fill="#ffffff" fill-opacity="1"></use><g><use xlink:href="#ewT6nBT9c" opacity="1" fill-opacity="0" stroke="#000000" stroke-width="1" stroke-opacity="0"></use></g></g><g><use xlink:href="#lfv5j2hdm" opacity="1" fill="#ffffff" fill-opacity="1"></use><g><use xlink:href="#lfv5j2hdm" opacity="1" fill-opacity="0" stroke="#000000" stroke-width="1" stroke-opacity="0"></use></g></g><g><use xlink:href="#f10lCPsvnx" opacity="1" fill="#ffffff" fill-opacity="1"></use><g><use xlink:href="#f10lCPsvnx" opacity="1" fill-opacity="0" stroke="#000000" stroke-width="1" stroke-opacity="0"></use></g></g><g><use xlink:href="#a1I2EghCrz" opacity="1" fill="#b1dcff" fill-opacity="1"></use><g><use xlink:href="#a1I2EghCrz" opacity="1" fill-opacity="0" stroke="#000000" stroke-width="1" stroke-opacity="0"></use></g></g><g><use xlink:href="#ebZGgAcRQ" opacity="1" fill="#84caff" fill-opacity="1"></use><g><use xlink:href="#ebZGgAcRQ" opacity="1" fill-opacity="0" stroke="#000000" stroke-width="1" stroke-opacity="0"></use></g></g><g><use xlink:href="#fHmYALrlO" opacity="1" fill="#cae8f9" fill-opacity="1"></use><g><use xlink:href="#fHmYALrlO" opacity="1" fill-opacity="0" stroke="#000000" stroke-width="1" stroke-opacity="0"></use></g></g><g><use xlink:href="#b6Hf9t9dFU" opacity="1" fill="#b8e0f9" fill-opacity="1"></use><g><use xlink:href="#b6Hf9t9dFU" opacity="1" fill-opacity="0" stroke="#000000" stroke-width="1" stroke-opacity="0"></use></g></g><g><use xlink:href="#aeZgF26LD" opacity="1" fill="#ff633e" fill-opacity="1"></use><g><use xlink:href="#aeZgF26LD" opacity="1" fill-opacity="0" stroke="#000000" stroke-width="1" stroke-opacity="0"></use></g></g><g><use xlink:href="#a2fPtwPMij" opacity="1" fill="#ff633e" fill-opacity="1"></use><g><use xlink:href="#a2fPtwPMij" opacity="1" fill-opacity="0" stroke="#000000" stroke-width="1" stroke-opacity="0"></use></g></g><g><use xlink:href="#c6vh3G6KS" opacity="1" fill="#ff633e" fill-opacity="1"></use><g><use xlink:href="#c6vh3G6KS" opacity="1" fill-opacity="0" stroke="#000000" stroke-width="1" stroke-opacity="0"></use></g></g><g><use xlink:href="#a2g3gIvtpc" opacity="1" fill="#ff633e" fill-opacity="1"></use><g><use xlink:href="#a2g3gIvtpc" opacity="1" fill-opacity="0" stroke="#000000" stroke-width="1" stroke-opacity="0"></use></g></g><g><use xlink:href="#a2WRXykcsN" opacity="1" fill="#0089ff" fill-opacity="1"></use><g><use xlink:href="#a2WRXykcsN" opacity="1" fill-opacity="0" stroke="#000000" stroke-width="1" stroke-opacity="0"></use></g></g><g><use xlink:href="#g2DX01sK4X" opacity="1" fill="#4b5be7" fill-opacity="1"></use><g><use xlink:href="#g2DX01sK4X" opacity="1" fill-opacity="0" stroke="#000000" stroke-width="1" stroke-opacity="0"></use></g></g><g><use xlink:href="#bF5vgQU7G" opacity="1" fill="#0089ff" fill-opacity="1"></use><g><use xlink:href="#bF5vgQU7G" opacity="1" fill-opacity="0" stroke="#000000" stroke-width="1" stroke-opacity="0"></use></g></g><g><use xlink:href="#iOTcZSOtY" opacity="1" fill="#4b5be7" fill-opacity="1"></use><g><use xlink:href="#iOTcZSOtY" opacity="1" fill-opacity="0" stroke="#000000" stroke-width="1" stroke-opacity="0"></use></g></g><g><use xlink:href="#azCbkg5T" opacity="1" fill="#0089ff" fill-opacity="1"></use><g><use xlink:href="#azCbkg5T" opacity="1" fill-opacity="0" stroke="#000000" stroke-width="1" stroke-opacity="0"></use></g></g><g><use xlink:href="#b38cF7hwQE" opacity="1" fill="#4b5be7" fill-opacity="1"></use><g><use xlink:href="#b38cF7hwQE" opacity="1" fill-opacity="0" stroke="#000000" stroke-width="1" stroke-opacity="0"></use></g></g><g><use xlink:href="#b18X9IhA1u" opacity="1" fill="#0089ff" fill-opacity="1"></use><g><use xlink:href="#b18X9IhA1u" opacity="1" fill-opacity="0" stroke="#000000" stroke-width="1" stroke-opacity="0"></use></g></g><g><use xlink:href="#ajM3HcRUf" opacity="1" fill="#4b5be7" fill-opacity="1"></use><g><use xlink:href="#ajM3HcRUf" opacity="1" fill-opacity="0" stroke="#000000" stroke-width="1" stroke-opacity="0"></use></g></g><g><use xlink:href="#g61S4Y88V" opacity="1" fill="#0089ff" fill-opacity="1"></use><g><use xlink:href="#g61S4Y88V" opacity="1" fill-opacity="0" stroke="#000000" stroke-width="1" stroke-opacity="0"></use></g></g><g><use xlink:href="#aiSryyKmu" opacity="1" fill="#0089ff" fill-opacity="1"></use><g><use xlink:href="#aiSryyKmu" opacity="1" fill-opacity="0" stroke="#000000" stroke-width="1" stroke-opacity="0"></use></g></g><g><use xlink:href="#a5WezDqh3" opacity="1" fill="#0089ff" fill-opacity="1"></use><g><use xlink:href="#a5WezDqh3" opacity="1" fill-opacity="0" stroke="#000000" stroke-width="1" stroke-opacity="0"></use></g></g><g><use xlink:href="#aZXJvgpdd" opacity="1" fill="#4b5be7" fill-opacity="1"></use><g><use xlink:href="#aZXJvgpdd" opacity="1" fill-opacity="0" stroke="#000000" stroke-width="1" stroke-opacity="0"></use></g></g><g><use xlink:href="#hxfHZed9Y" opacity="1" fill="#4b5be7" fill-opacity="1"></use><g><use xlink:href="#hxfHZed9Y" opacity="1" fill-opacity="0" stroke="#000000" stroke-width="1" stroke-opacity="0"></use></g></g><g><use xlink:href="#b2tC1s8GDH" opacity="1" fill="#ff3100" fill-opacity="1"></use><g><use xlink:href="#b2tC1s8GDH" opacity="1" fill-opacity="0" stroke="#000000" stroke-width="1" stroke-opacity="0"></use></g></g><g><use xlink:href="#a3GOIT6AIW" opacity="1" fill="#4b5be7" fill-opacity="1"></use><g><use xlink:href="#a3GOIT6AIW" opacity="1" fill-opacity="0" stroke="#000000" stroke-width="1" stroke-opacity="0"></use></g></g><g><use xlink:href="#bMnRGdgkk" opacity="1" fill="#ff3100" fill-opacity="1"></use><g><use xlink:href="#bMnRGdgkk" opacity="1" fill-opacity="0" stroke="#000000" stroke-width="1" stroke-opacity="0"></use></g></g><g><use xlink:href="#afINlg8xS" opacity="1" fill="#ff3100" fill-opacity="1"></use><g><use xlink:href="#afINlg8xS" opacity="1" fill-opacity="0" stroke="#000000" stroke-width="1" stroke-opacity="0"></use></g></g><g><use xlink:href="#asRvZOUNN" opacity="1" fill="#ff3100" fill-opacity="1"></use><g><use xlink:href="#asRvZOUNN" opacity="1" fill-opacity="0" stroke="#000000" stroke-width="1" stroke-opacity="0"></use></g></g></g></g></svg>