<?xml version="1.0" encoding="UTF-8" standalone="no"?>
<!DOCTYPE svg PUBLIC "-//W3C//DTD SVG 1.1//EN" "http://www.w3.org/Graphics/SVG/1.1/DTD/svg11.dtd">
<svg version="1.1" xmlns="http://www.w3.org/2000/svg" xmlns:xlink="http://www.w3.org/1999/xlink" preserveAspectRatio="xMidYMid meet" viewBox="0 0 640 640" width="640" height="640"><defs><path d="M580.14 309.87C580.14 447.85 468.12 559.87 330.14 559.87C192.16 559.87 80.14 447.85 80.14 309.87C80.14 171.89 192.16 59.87 330.14 59.87C468.12 59.87 580.14 171.89 580.14 309.87Z" id="gjPFmYBOl"></path><path d="M374.98 216.07L375.84 216.48L376.61 217.04L377.27 217.72L377.82 218.5L378.22 219.38L378.48 220.33L378.57 221.34L378.48 222.35L378.22 223.3L377.82 224.18L377.27 224.96L376.61 225.64L375.84 226.19L374.98 226.61L374.04 226.87L373.05 226.96L367.53 226.96L366.54 226.87L365.6 226.61L364.74 226.19L363.97 225.64L363.31 224.96L362.76 224.18L362.35 223.3L362.1 222.35L362.01 221.34L362.1 220.33L362.35 219.38L362.76 218.5L363.31 217.72L363.97 217.04L364.74 216.48L365.6 216.07L366.54 215.81L367.53 215.72L373.05 215.72L374.04 215.81L374.98 216.07Z" id="b59zuWW1Kp"></path><path d="M346.3 215.78L346.71 215.86L347.11 215.98L347.5 216.12L347.87 216.29L348.23 216.48L348.57 216.7L348.9 216.95L349.2 217.22L349.49 217.51L349.75 217.82L349.99 218.15L350.21 218.5L350.4 218.87L350.57 219.25L350.71 219.64L350.82 220.05L350.9 220.47L350.95 220.9L350.96 221.34L350.95 221.78L350.9 222.21L350.82 222.63L350.71 223.03L350.57 223.43L350.4 223.81L350.21 224.18L349.99 224.52L349.75 224.85L349.49 225.17L349.2 225.46L348.9 225.73L348.57 225.97L348.23 226.19L347.87 226.39L347.5 226.56L347.11 226.7L346.71 226.81L346.3 226.89L345.87 226.94L345.44 226.96L308.84 226.96L308.41 226.94L307.98 226.89L307.57 226.81L307.17 226.7L306.78 226.56L306.41 226.39L306.05 226.19L305.71 225.97L305.38 225.73L305.08 225.46L304.79 225.17L304.53 224.85L304.29 224.52L304.07 224.18L303.88 223.81L303.71 223.43L303.57 223.03L303.46 222.63L303.38 222.21L303.33 221.78L303.32 221.34L303.33 220.9L303.38 220.47L303.46 220.05L303.57 219.64L303.71 219.25L303.88 218.87L304.07 218.5L304.29 218.15L304.53 217.82L304.79 217.51L305.08 217.22L305.38 216.95L305.71 216.7L306.05 216.48L306.41 216.29L306.78 216.12L307.17 215.98L307.57 215.86L307.98 215.78L308.41 215.73L308.84 215.72L345.44 215.72L345.87 215.73L346.3 215.78Z" id="b5MFza2v1O"></path><path d="M357.03 243.85L357.3 243.89L357.57 243.93L357.83 243.99L358.08 244.06L358.33 244.15L358.57 244.24L358.81 244.35L359.05 244.47L359.27 244.59L359.49 244.73L359.7 244.88L359.91 245.04L360.11 245.21L360.3 245.38L360.48 245.57L360.65 245.76L360.82 245.96L360.97 246.17L361.12 246.39L361.25 246.61L361.38 246.84L361.49 247.08L361.6 247.32L361.69 247.57L361.77 247.82L361.84 248.08L361.9 248.35L361.95 248.62L361.98 248.89L362 249.17L362.01 249.45L362 249.73L361.98 250.01L361.95 250.28L361.9 250.55L361.84 250.81L361.77 251.07L361.69 251.33L361.6 251.58L361.49 251.82L361.38 252.06L361.25 252.29L361.12 252.51L360.97 252.73L360.82 252.94L360.65 253.14L360.48 253.33L360.3 253.52L360.11 253.69L359.91 253.86L359.7 254.02L359.49 254.17L359.27 254.3L359.05 254.43L358.81 254.55L358.57 254.65L358.33 254.75L358.08 254.83L357.83 254.9L357.57 254.96L357.3 255.01L357.03 255.04L356.76 255.06L356.49 255.07L290.73 255.07L290.45 255.06L290.18 255.04L289.91 255.01L289.65 254.96L289.39 254.9L289.13 254.83L288.88 254.75L288.64 254.65L288.4 254.55L288.17 254.43L287.94 254.3L287.72 254.17L287.51 254.02L287.3 253.86L287.11 253.69L286.92 253.52L286.74 253.33L286.56 253.14L286.4 252.94L286.24 252.73L286.1 252.51L285.96 252.29L285.84 252.06L285.72 251.82L285.62 251.58L285.52 251.33L285.44 251.07L285.37 250.81L285.31 250.55L285.27 250.28L285.23 250.01L285.21 249.73L285.21 249.45L285.21 249.17L285.23 248.89L285.27 248.62L285.31 248.35L285.37 248.08L285.44 247.82L285.52 247.57L285.62 247.32L285.72 247.08L285.84 246.84L285.96 246.61L286.1 246.39L286.24 246.17L286.4 245.96L286.56 245.76L286.74 245.57L286.92 245.38L287.11 245.21L287.3 245.04L287.51 244.88L287.72 244.73L287.94 244.59L288.17 244.47L288.4 244.35L288.64 244.24L288.88 244.15L289.13 244.06L289.39 243.99L289.65 243.93L289.91 243.89L290.18 243.85L290.45 243.83L290.73 243.83L356.49 243.83L356.76 243.83L357.03 243.85Z" id="a16EvB3tSC"></path><path d="M377.46 369.48C391.97 372.2 400.03 373.71 401.64 374.01C452.81 338.89 474.77 197.29 411.31 197.29C406.8 220.25 395.52 277.65 377.46 369.48Z" id="bweGkKVyE"></path><path d="M324.28 197.29C282.58 218.25 246.11 293.2 304.94 369.48C305.02 369.59 348.45 364.95 348.45 364.95C352.64 353.77 373.6 297.89 411.31 197.29C375.9 185.93 346.89 185.93 324.28 197.29Z" id="b2vhFnV9B"></path><path d="M401.64 348.35L401.64 337.76L333.95 337.76C333.95 344.11 333.95 347.63 333.95 348.34C333.95 358.69 333.9 369.95 324.28 376.76C324.28 383.53 324.28 417.35 324.28 478.24C350.39 478.24 364.89 478.24 367.79 478.24C367.79 478.24 390.58 478.24 411.31 478.24C411.31 468.07 411.31 386.77 411.31 376.6C401.93 369.78 401.9 358.62 401.9 348.35C401.87 348.35 401.78 348.35 401.64 348.35Z" id="b5AmGrUGwl"></path><path d="M338.78 429.39C338.78 432.64 338.78 448.93 338.78 478.23L406.47 478.23C406.47 447.13 406.47 429.85 406.47 426.4C395.51 430.5 382.19 432.92 367.79 432.92C357.4 432.92 347.59 431.63 338.78 429.39Z" id="efR0lnZFS"></path><path d="M411.31 397.48C411.31 395.39 411.31 378.69 411.31 376.6C401.93 369.78 401.9 358.61 401.9 348.35C401.9 348.33 401.9 348.24 401.89 348.08L401.89 337.5L348.45 337.76C339.75 340.48 334.92 341.99 333.95 342.29C343.62 352.49 373.23 388.17 406.47 396.67C408.24 397.12 409.83 397.36 411.31 397.48Z" id="a4XC4AlEUq"></path><path d="M367.79 360.42C338.61 360.42 300.1 315.14 300.1 278.85C300.1 242.57 330.41 229.01 367.79 229.01C405.18 229.01 435.48 242.57 435.48 278.85C435.48 315.14 396.98 360.42 367.79 360.42Z" id="g1yb8aDJl4"></path><path d="M358.72 211.72C358.66 211.63 358.18 210.97 358.12 210.88C358.12 210.88 357.13 211.61 355.41 212.88C351.4 214.31 348.45 215.41 348.45 215.41C348.57 215.59 349.47 217 349.59 217.18C331.23 230.73 289.36 261.73 285.6 265.26C280.76 269.79 314.61 385.4 314.61 319.64C314.61 264.69 347.18 253.81 377.46 247.13C391.16 244.11 395.19 236.56 396.8 229.01C398.42 221.46 382.3 206.35 377.46 206.35C374.75 206.35 365.93 209.21 358.72 211.72Z" id="bQ4OBaaLa"></path><path d="M435.18 280.84C444.29 283.01 440.32 256.2 440.32 256.2C440.32 256.2 427.43 225.23 425.81 224.48C424.2 223.72 411.31 197.29 411.31 197.29C409.38 198.8 399.71 206.35 382.3 219.95L391.97 233.54C409.7 262.43 424.1 278.19 435.18 280.84Z" id="cDkxzVbdB"></path><path d="M296.88 383.08C296.72 383.08 295.43 383.08 295.27 383.08C265.9 383.08 242.08 405.39 242.08 432.92C242.08 436.09 242.08 461.47 242.08 464.64C242.08 472.15 248.58 478.24 256.59 478.24C263.2 478.24 296.27 478.24 355.8 478.24L329.59 371.33C320.41 379.16 309.51 383.08 296.88 383.08Z" id="f2Z1MjiEe"></path><path d="M438.71 383.08C438.87 383.08 440.16 383.08 440.32 383.08C469.69 383.08 493.5 405.39 493.5 432.92C493.5 436.09 493.5 461.47 493.5 464.64C493.5 472.15 487.01 478.24 479 478.24C472.39 478.24 439.31 478.24 379.78 478.24L406 371.33C415.17 379.16 426.08 383.08 438.71 383.08Z" id="fpGeVSuJJ"></path><path d="M295.27 441.98C287.26 441.98 280.76 448.07 280.76 455.58C280.76 463.09 287.26 469.17 295.27 469.17C303.28 469.17 309.77 463.09 309.77 455.58C309.77 448.07 303.28 441.98 295.27 441.98Z" id="d3PDc4aIMt"></path><path d="M452.51 467.25C457.82 460 460.87 449.14 460.87 437.45C460.87 417.19 451.46 400.07 440.32 400.07C429.18 400.07 419.77 417.19 419.77 437.45C419.77 449.14 422.82 460 428.13 467.25C427.53 467.63 422.75 470.71 422.15 471.1C416.03 462.75 412.52 450.49 412.52 437.45C412.52 412.68 424.73 393.27 440.32 393.27C455.91 393.27 468.12 412.68 468.12 437.45C468.12 450.49 464.61 462.75 458.49 471.1C457.29 470.33 453.11 467.63 452.51 467.25Z" id="bkI3e4VIy"></path><path d="M425.81 464.64C423.14 464.64 420.98 466.67 420.98 469.17C420.98 471.67 423.14 473.7 425.81 473.7C428.48 473.7 430.65 471.67 430.65 469.17C430.65 466.67 428.48 464.64 425.81 464.64Z" id="a5afYyXG0"></path><path d="M454.82 464.64C452.15 464.64 449.99 466.67 449.99 469.17C449.99 471.67 452.15 473.7 454.82 473.7C457.49 473.7 459.66 471.67 459.66 469.17C459.66 466.67 457.49 464.64 454.82 464.64Z" id="ciJrWtUY0"></path><path d="M291.64 446.52C291.64 387.79 321.26 371.7 322.52 371.04C324.27 370.13 326.48 370.72 327.45 372.36C328.42 374 327.79 376.06 326.06 376.98C325.7 377.17 298.89 392.24 298.89 446.52C298.89 448.39 297.27 449.91 295.27 449.91C293.27 449.91 291.64 448.39 291.64 446.52Z" id="b5oOZqWO"></path><path d="M295.27 448.4C291.04 448.4 287.61 451.62 287.61 455.58C287.61 459.54 291.04 462.75 295.27 462.75C299.5 462.75 302.92 459.54 302.92 455.58C302.92 451.62 299.5 448.4 295.27 448.4Z" id="bpz2n1Hrg"></path><path d="M436.9 397.8C433.75 389.43 428.62 385.89 428.57 385.86C426.93 384.78 426.53 382.66 427.68 381.13C428.83 379.59 431.09 379.22 432.73 380.29C433.02 380.48 439.77 385 443.74 395.54C444.41 397.31 443.41 399.25 441.53 399.88C441.13 400.01 440.72 400.07 440.32 400.07C438.83 400.07 437.43 399.2 436.9 397.8Z" id="hnmreAOsc"></path><path d="M441.38 288.33C441.38 297.77 430.74 320.9 419.55 306.46C408.37 292.01 428.28 279.27 428.28 279.27C436.19 277.57 441.38 281.2 441.38 288.33Z" id="a4X4RVnhv"></path><path d="M230.11 135.67C195.32 135.67 167.12 164.11 167.12 199.18C167.12 234.26 195.32 262.7 230.11 262.7C264.9 262.7 293.1 234.26 293.1 199.18C293.1 164.11 264.9 135.67 230.11 135.67Z" id="a3meyZpkY3"></path><path d="M164.95 201.37C164.95 183.87 171.7 167.4 183.95 154.99C185.64 153.28 188.4 153.28 190.09 154.98C191.8 156.69 191.8 159.46 190.11 161.18C179.49 171.93 173.64 186.2 173.64 201.37C173.64 232.77 198.97 258.32 230.11 258.32C261.25 258.32 286.58 232.77 286.58 201.37C286.58 171.45 263.57 146.84 234.45 144.6C234.45 146.95 234.45 165.8 234.45 168.16C234.45 170.57 232.51 172.54 230.11 172.54C227.71 172.54 225.77 170.57 225.77 168.16C225.77 165.35 225.77 142.86 225.77 140.05C225.77 137.63 227.71 135.67 230.11 135.67C266.04 135.67 295.27 165.14 295.27 201.37C295.27 237.6 266.04 267.08 230.11 267.08C194.18 267.08 164.95 237.6 164.95 201.37Z" id="avxK84hgP"></path><path d="M208.39 179.74C225.26 192.04 234.63 198.88 236.5 200.24C239.27 202.27 239.59 206.32 237.17 208.76C237.17 208.76 237.17 208.76 237.17 208.76C234.75 211.2 230.74 210.88 228.73 208.09C227.37 206.2 220.59 196.75 208.39 179.74L208.39 179.74Z" id="b5wxL6wALe"></path></defs><g><g><g><use xlink:href="#gjPFmYBOl" opacity="1" fill="#ffffff" fill-opacity="1"></use><g><use xlink:href="#gjPFmYBOl" opacity="1" fill-opacity="0" stroke="#992825" stroke-width="10" stroke-opacity="1"></use></g></g><g><use xlink:href="#b59zuWW1Kp" opacity="1" fill="#ffffff" fill-opacity="1"></use><g><use xlink:href="#b59zuWW1Kp" opacity="1" fill-opacity="0" stroke="#000000" stroke-width="1" stroke-opacity="0"></use></g></g><g><use xlink:href="#b5MFza2v1O" opacity="1" fill="#ffffff" fill-opacity="1"></use><g><use xlink:href="#b5MFza2v1O" opacity="1" fill-opacity="0" stroke="#000000" stroke-width="1" stroke-opacity="0"></use></g></g><g><use xlink:href="#a16EvB3tSC" opacity="1" fill="#ffffff" fill-opacity="1"></use><g><use xlink:href="#a16EvB3tSC" opacity="1" fill-opacity="0" stroke="#000000" stroke-width="1" stroke-opacity="0"></use></g></g><g><use xlink:href="#bweGkKVyE" opacity="1" fill="#51312e" fill-opacity="1"></use><g><use xlink:href="#bweGkKVyE" opacity="1" fill-opacity="0" stroke="#000000" stroke-width="1" stroke-opacity="0"></use></g></g><g><use xlink:href="#b2vhFnV9B" opacity="1" fill="#592f29" fill-opacity="1"></use><g><use xlink:href="#b2vhFnV9B" opacity="1" fill-opacity="0" stroke="#000000" stroke-width="1" stroke-opacity="0"></use></g></g><g><use xlink:href="#b5AmGrUGwl" opacity="1" fill="#d2b186" fill-opacity="1"></use><g><use xlink:href="#b5AmGrUGwl" opacity="1" fill-opacity="0" stroke="#000000" stroke-width="1" stroke-opacity="0"></use></g></g><g><use xlink:href="#efR0lnZFS" opacity="1" fill="#545465" fill-opacity="1"></use><g><use xlink:href="#efR0lnZFS" opacity="1" fill-opacity="0" stroke="#000000" stroke-width="1" stroke-opacity="0"></use></g></g><g><use xlink:href="#a4XC4AlEUq" opacity="1" fill="#cb9f6f" fill-opacity="1"></use><g><use xlink:href="#a4XC4AlEUq" opacity="1" fill-opacity="0" stroke="#000000" stroke-width="1" stroke-opacity="0"></use></g></g><g><use xlink:href="#g1yb8aDJl4" opacity="1" fill="#d8bd92" fill-opacity="1"></use><g><use xlink:href="#g1yb8aDJl4" opacity="1" fill-opacity="0" stroke="#000000" stroke-width="1" stroke-opacity="0"></use></g></g><g><use xlink:href="#bQ4OBaaLa" opacity="1" fill="#51312e" fill-opacity="1"></use><g><use xlink:href="#bQ4OBaaLa" opacity="1" fill-opacity="0" stroke="#000000" stroke-width="1" stroke-opacity="0"></use></g></g><g><use xlink:href="#cDkxzVbdB" opacity="1" fill="#51312e" fill-opacity="1"></use><g><use xlink:href="#cDkxzVbdB" opacity="1" fill-opacity="0" stroke="#000000" stroke-width="1" stroke-opacity="0"></use></g></g><g><use xlink:href="#f2Z1MjiEe" opacity="1" fill="#e4ebf0" fill-opacity="1"></use><g><use xlink:href="#f2Z1MjiEe" opacity="1" fill-opacity="0" stroke="#000000" stroke-width="1" stroke-opacity="0"></use></g></g><g><use xlink:href="#fpGeVSuJJ" opacity="1" fill="#e4ebf0" fill-opacity="1"></use><g><use xlink:href="#fpGeVSuJJ" opacity="1" fill-opacity="0" stroke="#000000" stroke-width="1" stroke-opacity="0"></use></g></g><g><use xlink:href="#d3PDc4aIMt" opacity="1" fill="#d0d7dc" fill-opacity="1"></use><g><use xlink:href="#d3PDc4aIMt" opacity="1" fill-opacity="0" stroke="#000000" stroke-width="1" stroke-opacity="0"></use></g></g><g><use xlink:href="#bkI3e4VIy" opacity="1" fill="#d0d7dc" fill-opacity="1"></use><g><use xlink:href="#bkI3e4VIy" opacity="1" fill-opacity="0" stroke="#000000" stroke-width="1" stroke-opacity="0"></use></g></g><g><use xlink:href="#a5afYyXG0" opacity="1" fill="#545465" fill-opacity="1"></use><g><use xlink:href="#a5afYyXG0" opacity="1" fill-opacity="0" stroke="#000000" stroke-width="1" stroke-opacity="0"></use></g></g><g><use xlink:href="#ciJrWtUY0" opacity="1" fill="#545465" fill-opacity="1"></use><g><use xlink:href="#ciJrWtUY0" opacity="1" fill-opacity="0" stroke="#000000" stroke-width="1" stroke-opacity="0"></use></g></g><g><use xlink:href="#b5oOZqWO" opacity="1" fill="#d0d7dc" fill-opacity="1"></use><g><use xlink:href="#b5oOZqWO" opacity="1" fill-opacity="0" stroke="#000000" stroke-width="1" stroke-opacity="0"></use></g></g><g><use xlink:href="#bpz2n1Hrg" opacity="1" fill="#b2b9bf" fill-opacity="1"></use><g><use xlink:href="#bpz2n1Hrg" opacity="1" fill-opacity="0" stroke="#000000" stroke-width="1" stroke-opacity="0"></use></g></g><g><use xlink:href="#hnmreAOsc" opacity="1" fill="#d0d7dc" fill-opacity="1"></use><g><use xlink:href="#hnmreAOsc" opacity="1" fill-opacity="0" stroke="#000000" stroke-width="1" stroke-opacity="0"></use></g></g><g><use xlink:href="#a4X4RVnhv" opacity="1" fill="#d8bd92" fill-opacity="1"></use><g><use xlink:href="#a4X4RVnhv" opacity="1" fill-opacity="0" stroke="#000000" stroke-width="1" stroke-opacity="0"></use></g></g><g><use xlink:href="#a3meyZpkY3" opacity="1" fill="#3083c9" fill-opacity="1"></use><g><use xlink:href="#a3meyZpkY3" opacity="1" fill-opacity="0" stroke="#000000" stroke-width="1" stroke-opacity="0"></use></g></g><g><use xlink:href="#avxK84hgP" opacity="1" fill="#a1c8ec" fill-opacity="1"></use><g><use xlink:href="#avxK84hgP" opacity="1" fill-opacity="0" stroke="#000000" stroke-width="1" stroke-opacity="0"></use></g></g><g><use xlink:href="#b5wxL6wALe" opacity="1" fill="#a1c8ec" fill-opacity="1"></use><g><use xlink:href="#b5wxL6wALe" opacity="1" fill-opacity="0" stroke="#000000" stroke-width="1" stroke-opacity="0"></use></g></g></g></g></svg>